SplineFontDB: 3.0
FontName: MedievalSharp-Bold
FullName: Medieval Sharp Bold
FamilyName: Medieval Sharp
Weight: Bold
Copyright: Copyright (c) 2020-2024 by Wojciech Kalinowski "wmk69" with Reserved Font Name "MedievalSharp-Bold".\nThis Font Software is licensed under the SIL Open Font License, Version 1.1.
Version: 3.1.0; 2021-05-14
ItalicAngle: 0
UnderlinePosition: -80
UnderlineWidth: 300
Ascent: 1638
Descent: 410
InvalidEm: 0
LayerCount: 2
Layer: 0 1 "Warstwa t+AUIA-a" 1
Layer: 1 1 "Plan pierwszy" 0
XUID: [1021 783 23647091 8578152]
StyleMap: 0x0020
FSType: 0
OS2Version: 3
OS2_WeightWidthSlopeOnly: 0
OS2_UseTypoMetrics: 1
CreationTime: 1260698820
ModificationTime: 1621003264
PfmFamily: 17
TTFWeight: 700
TTFWidth: 5
LineGap: 200
VLineGap: 0
Panose: 2 14 8 2 5 2 3 1 2 4
OS2TypoAscent: 2020
OS2TypoAOffset: 0
OS2TypoDescent: -450
OS2TypoDOffset: 0
OS2TypoLinegap: 200
OS2WinAscent: 2020
OS2WinAOffset: 0
OS2WinDescent: 450
OS2WinDOffset: 0
HheadAscent: 2020
HheadAOffset: 0
HheadDescent: -450
HheadDOffset: 0
OS2SubXSize: 1434
OS2SubYSize: 1331
OS2SubXOff: 0
OS2SubYOff: 287
OS2SupXSize: 1434
OS2SupYSize: 1331
OS2SupXOff: 0
OS2SupYOff: 977
OS2StrikeYSize: 102
OS2StrikeYPos: 512
OS2CapHeight: 1510
OS2XHeight: 1130
OS2Vendor: '    '
OS2CodePages: 20000093.00000000
OS2UnicodeRanges: 8000002f.4000204b.00000000.00000000
Lookup: 258 0 0 "'kern' Horizontal Kerning lookup 0" { "'kern' Horizontal Kerning lookup 0-1 subtable" [307,0,4] } ['kern' ('DFLT' <'dflt' > 'latn' <'dflt' > ) ]
MarkAttachClasses: 1
DEI: 91125
KernClass2: 67 56 "'kern' Horizontal Kerning lookup 0-1 subtable"
 84 A Agrave Aacute Acircumflex Atilde Adieresis Aring Amacron Abreve Aogonek Aringacute
 17 B uni1E02 uni1E9E
 47 C Ccedilla Cacute Ccircumflex Cdotaccent Ccaron
 19 D Eth Dcaron Dcroat
 92 E AE Egrave Eacute Ecircumflex Edieresis Emacron Ebreve Edotaccent Eogonek Ecaron OE AEacute
 9 F uni1E1E
 44 G Gcircumflex Gbreve Gdotaccent Gcommaaccent

StartChar: .notdef
Encoding: 65536 -1 0
Width: 1034
Flags: W
HStem: 0 138<340 694> 1372 138<340 694>
VStem: 110 230<138 1372> 694 230<138 1372>
LayerCount: 2
Fore
SplineSet
110 0 m 1,0,-1
 110 1510 l 1,1,-1
 924 1510 l 1,2,-1
 924 0 l 1,3,-1
 110 0 l 1,0,-1
340 1372 m 1,4,-1
 340 138 l 1,5,-1
 694 138 l 1,6,-1
 694 1372 l 1,7,-1
 340 1372 l 1,4,-1
EndSplineSet
Validated: 1
EndChar

StartChar: exclam
Encoding: 33 33 4
Width: 662
GlyphClass: 2
Flags: W
HStem: 0 21G<284 370> 1490 20G<419 532>
VStem: 142 378<90.1985 325.802> 240 182<496.188 973.858>
LayerCount: 2
Fore
SplineSet
522 1510 m 1,0,1
 532 1504 l 1,2,3
 474 1299 474 1299 448 1045 c 128,-1,4
 422 791 422 791 422 507 c 1,5,6
 333 488 333 488 250 448 c 1,7,-1
 240 454 l 1,8,9
 240 738 240 738 214 960 c 128,-1,10
 188 1182 188 1182 130 1387 c 1,11,12
 316 1409 316 1409 522 1510 c 1,0,1
336 0 m 1,13,-1
 326 0 l 1,14,15
 242 31 242 31 196 75 c 0,16,17
 142 127 142 127 142 208 c 128,-1,18
 142 289 142 289 196 341 c 0,19,20
 242 385 242 385 326 416 c 1,21,-1
 336 416 l 1,22,23
 404 393 404 393 462 340 c 128,-1,24
 520 287 520 287 520 208 c 128,-1,25
 520 129 520 129 462 76 c 128,-1,26
 404 23 404 23 336 0 c 1,13,-1
EndSplineSet
Validated: 1
EndChar

StartChar: quotedbl
Encoding: 34 34 5
Width: 596
GlyphClass: 2
Flags: W
HStem: 1108 442
VStem: 74 197<1200.1 1457.26> 379 197<1200.1 1457.26>
LayerCount: 2
Fore
SplineSet
539 1550 m 1,0,-1
 549 1544 l 1,1,2
 576 1461 576 1461 576 1371 c 0,3,4
 576 1283 576 1283 527 1191 c 1,5,6
 451 1170 451 1170 335 1108 c 1,7,-1
 325 1114 l 1,8,9
 379 1210 379 1210 379 1304 c 128,-1,10
 379 1398 379 1398 331 1462 c 1,11,12
 416 1488 416 1488 539 1550 c 1,0,-1
234 1550 m 1,13,-1
 244 1544 l 1,14,15
 271 1461 271 1461 271 1371 c 0,16,17
 271 1283 271 1283 222 1191 c 1,18,19
 146 1170 146 1170 30 1108 c 1,20,-1
 20 1114 l 1,21,22
 74 1210 74 1210 74 1304 c 128,-1,23
 74 1398 74 1398 26 1462 c 1,24,25
 111 1488 111 1488 234 1550 c 1,13,-1
EndSplineSet
Validated: 1
EndChar

StartChar: numbersign
Encoding: 35 35 6
Width: 1487
GlyphClass: 2
Flags: W
HStem: 377 233<197.521 476.281 1012.28 1289.25> 424 137<638 851> 746 233<197.521 473.967 1009.84 1289.25> 793 137<634 848>
VStem: 442 234<132.77 410.281 947.279 1224.25> 490 136<573 785> 812 232<131.521 408.967 943.873 1224.25> 858 138<569 783>
LayerCount: 2
Fore
SplineSet
666 1312 m 1,0,-1
 676 1306 l 1,1,2
 647 1123 647 1123 634 932 c 1,3,4
 687 930 687 930 739 930 c 0,5,6
 794 930 794 930 848 931 c 1,7,8
 836 1074 836 1074 812 1208 c 1,9,10
 892 1234 892 1234 1034 1312 c 1,11,-1
 1044 1306 l 1,12,13
 1015 1126 1015 1126 1004 938 c 1,14,15
 1191 950 1191 950 1371 979 c 1,16,-1
 1377 969 l 1,17,18
 1299 826 1299 826 1273 746 c 1,19,20
 1140 771 1140 771 997 783 c 1,21,22
 996 730 996 730 996 674 c 0,23,24
 996 622 996 622 998 569 c 1,25,26
 1188 581 1188 581 1371 610 c 1,27,-1
 1377 600 l 1,28,29
 1299 457 1299 457 1273 377 c 1,30,31
 1145 401 1145 401 1008 413 c 1,32,33
 1020 284 1020 284 1044 148 c 1,34,35
 954 118 954 118 822 44 c 1,36,-1
 812 50 l 1,37,38
 840 236 840 236 851 422 c 1,39,40
 795 424 795 424 738 424 c 0,41,42
 688 424 688 424 638 423 c 1,43,44
 650 288 650 288 676 148 c 1,45,46
 584 118 584 118 452 44 c 1,47,-1
 442 50 l 1,48,49
 470 233 470 233 482 416 c 1,50,51
 299 405 299 405 116 377 c 1,52,-1
 110 387 l 1,53,54
 184 519 184 519 214 610 c 1,55,56
 354 585 354 585 488 573 c 1,57,58
 490 622 490 622 490 672 c 0,59,60
 490 729 490 729 488 785 c 1,61,62
 302 774 302 774 116 746 c 1,63,-1
 110 756 l 1,64,65
 184 888 184 888 214 979 c 1,66,67
 349 955 349 955 478 943 c 1,68,69
 466 1080 466 1080 442 1208 c 1,70,71
 522 1234 522 1234 666 1312 c 1,0,-1
856 791 m 1,72,73
 798 793 798 793 738 793 c 0,74,75
 683 793 683 793 628 792 c 1,76,77
 626 734 626 734 626 674 c 0,78,79
 626 619 626 619 629 563 c 1,80,81
 685 561 685 561 739 561 c 0,82,83
 798 561 798 561 857 563 c 1,84,85
 858 618 858 618 858 672 c 0,86,87
 858 732 858 732 856 791 c 1,72,73
EndSplineSet
Validated: 1
EndChar

StartChar: percent
Encoding: 37 37 7
Width: 1829
GlyphClass: 2
Flags: W
HStem: 0 21G<590 658 1295.5 1450.5> 1490 20G<378.5 533.5 1171 1239>
VStem: 110 158<1084.63 1286.58> 644 158<945.387 1152.05> 1027 158<357.951 564.613> 1561 158<223.419 425.368>
LayerCount: 2
Fore
SplineSet
1546 198 m 1,0,1
 1561 236 1561 236 1561 285 c 0,2,3
 1561 430 1561 430 1415 515 c 0,4,5
 1333 563 1333 563 1200 585 c 1,6,7
 1185 548 1185 548 1185 500 c 0,8,9
 1185 353 1185 353 1331 268 c 0,10,11
 1413 220 1413 220 1546 198 c 1,0,1
1378 0 m 1,12,-1
 1368 0 l 1,13,14
 1223 55 1223 55 1145 129 c 0,15,16
 1027 242 1027 242 1027 396 c 0,17,18
 1027 560 1027 560 1164 670 c 0,19,20
 1247 736 1247 736 1368 783 c 1,21,-1
 1378 783 l 1,22,23
 1500 740 1500 740 1582 670 c 0,24,25
 1719 553 1719 553 1719 396 c 0,26,27
 1719 243 1719 243 1601 129 c 0,28,29
 1523 54 1523 54 1378 0 c 1,12,-1
283 1312 m 1,30,31
 268 1274 268 1274 268 1225 c 0,32,33
 268 1080 268 1080 414 995 c 0,34,35
 496 947 496 947 629 925 c 1,36,37
 644 962 644 962 644 1010 c 0,38,39
 644 1157 644 1157 498 1242 c 0,40,41
 416 1290 416 1290 283 1312 c 1,30,31
451 1510 m 1,42,-1
 461 1510 l 1,43,44
 606 1455 606 1455 684 1381 c 0,45,46
 802 1268 802 1268 802 1114 c 0,47,48
 802 950 802 950 665 840 c 0,49,50
 582 774 582 774 461 727 c 1,51,-1
 451 727 l 1,52,53
 329 770 329 770 247 840 c 0,54,55
 110 957 110 957 110 1114 c 0,56,57
 110 1267 110 1267 228 1381 c 0,58,59
 306 1456 306 1456 451 1510 c 1,42,-1
649 0 m 1,60,61
 531 65 531 65 317 99 c 1,62,63
 801 731 801 731 1171 1504 c 1,64,-1
 1180 1510 l 1,65,66
 1298 1445 1298 1445 1512 1411 c 1,67,68
 1027 778 1027 778 658 6 c 1,69,-1
 649 0 l 1,60,61
EndSplineSet
Validated: 1
EndChar

StartChar: ampersand
Encoding: 38 38 8
Width: 1459
VWidth: 0
GlyphClass: 2
Flags: W
HStem: 0 21G<510.5 705.5 1037 1144> 1276 234<497.763 617>
VStem: 80 254<416 648.437> 177 189<978.5 1236.68> 1120 221<548.994 820.315>
LayerCount: 2
Fore
SplineSet
617 0 m 1,0,1
 607 0 l 1,2,3
 414 59 414 59 282 170 c 0,4,5
 80 340 80 340 80 492 c 0,6,7
 80 715 80 715 350 792 c 1,8,9
 177 900 177 900 177 1057 c 0,10,11
 177 1236 177 1236 324 1359 c 0,12,13
 439 1454 439 1454 607 1510 c 1,14,-1
 617 1510 l 1,15,16
 790 1452 790 1452 900 1359 c 0,17,18
 946 1320 946 1320 975 1277 c 1,19,-1
 972 1266 l 1,20,21
 848 1239 848 1239 722 1177 c 1,22,23
 708 1187 708 1187 692 1196 c 0,24,25
 548 1276 548 1276 378 1276 c 1,26,27
 366 1246 366 1246 366 1213 c 0,28,29
 366 1003 366 1003 829 932 c 1,30,31
 946 696 946 696 1088 494 c 1,32,33
 1120 577 1120 577 1120 675 c 0,34,35
 1120 776 1120 776 1045 862 c 1,36,37
 1156 887 1156 887 1288 960 c 1,38,-1
 1298 954 l 1,39,40
 1341 855 1341 855 1341 760 c 0,41,42
 1341 549 1341 549 1181 369 c 1,43,44
 1284 238 1284 238 1399 123 c 1,45,46
 1241 102 1241 102 1047 0 c 1,47,-1
 1037 6 l 1,48,49
 994 95 994 95 951 178 c 1,50,51
 794 77 794 77 617 0 c 1,0,1
904 266 m 1,52,53
 744 563 744 563 583 780 c 1,54,55
 334 753 334 753 334 629 c 0,56,57
 334 520 334 520 470 411 c 0,58,59
 625 287 625 287 883 252 c 1,60,61
 894 259 894 259 904 266 c 1,52,53
EndSplineSet
Validated: 1
EndChar

StartChar: quotesingle
Encoding: 39 39 9
Width: 291
GlyphClass: 2
Flags: W
HStem: 1108 442
VStem: 74 197<1200.1 1457.26>
LayerCount: 2
Fore
SplineSet
234 1550 m 1,0,-1
 244 1544 l 1,1,2
 271 1461 271 1461 271 1371 c 0,3,4
 271 1283 271 1283 222 1191 c 1,5,6
 146 1170 146 1170 30 1108 c 1,7,-1
 20 1114 l 1,8,9
 74 1210 74 1210 74 1304 c 128,-1,10
 74 1398 74 1398 26 1462 c 1,11,12
 111 1488 111 1488 234 1550 c 1,0,-1
EndSplineSet
Validated: 1
EndChar

StartChar: parenleft
Encoding: 40 40 10
Width: 935
GlyphClass: 2
Flags: W
VStem: 110 234<474.903 1016.15>
LayerCount: 2
Fore
SplineSet
855 1761 m 1,0,1
 586 1553 586 1553 458 1281 c 0,2,3
 344 1038 344 1038 344 766 c 0,4,5
 344 448 344 448 521 232 c 0,6,7
 683 35 683 35 925 -89 c 1,8,-1
 621 -273 l 1,9,10
 402 -107 402 -107 268 111 c 0,11,12
 110 368 110 368 110 690 c 0,13,14
 110 1013 110 1013 265 1281 c 0,15,16
 470 1635 470 1635 855 1771 c 1,17,-1
 855 1761 l 1,0,1
EndSplineSet
Validated: 1
EndChar

StartChar: parenright
Encoding: 41 41 11
Width: 935
GlyphClass: 2
Flags: W
VStem: 591 234<481.854 1023.1>
LayerCount: 2
Fore
SplineSet
80 -263 m 1,0,1
 349 -55 349 -55 477 217 c 0,2,3
 591 460 591 460 591 732 c 0,4,5
 591 1050 591 1050 414 1266 c 0,6,7
 252 1463 252 1463 10 1587 c 1,8,-1
 314 1771 l 1,9,10
 533 1605 533 1605 667 1387 c 0,11,12
 825 1130 825 1130 825 808 c 0,13,14
 825 485 825 485 670 217 c 0,15,16
 465 -137 465 -137 80 -273 c 1,17,-1
 80 -263 l 1,0,1
EndSplineSet
Validated: 1
EndChar

StartChar: asterisk
Encoding: 42 42 12
Width: 922
VWidth: 0
GlyphClass: 2
Flags: W
VStem: 336 250<1022 1272> 349 216<822.096 986.982 1272.14 1469.24>
LayerCount: 2
Fore
SplineSet
565 1550 m 1,0,-1
 573 1545 l 1,1,2
 534 1399 534 1399 524 1259 c 1,3,4
 606 1319 606 1319 678 1393 c 1,5,6
 741 1330 741 1330 862 1258 c 1,7,-1
 862 1249 l 1,8,9
 714 1209 714 1209 586 1147 c 1,10,11
 714 1085 714 1085 862 1045 c 1,12,-1
 862 1036 l 1,13,14
 731 955 731 955 678 901 c 1,15,16
 607 974 607 974 527 1032 c 1,17,18
 538 933 538 933 565 836 c 1,19,20
 492 817 492 817 357 744 c 1,21,-1
 349 749 l 1,22,23
 388 896 388 896 398 1035 c 1,24,25
 316 975 316 975 244 901 c 1,26,27
 191 955 191 955 60 1036 c 1,28,-1
 60 1045 l 1,29,30
 208 1085 208 1085 336 1147 c 1,31,32
 208 1209 208 1209 60 1249 c 1,33,-1
 60 1258 l 1,34,35
 181 1330 181 1330 244 1393 c 1,36,37
 315 1321 315 1321 395 1262 c 1,38,39
 384 1360 384 1360 357 1458 c 1,40,41
 443 1481 443 1481 565 1550 c 1,0,-1
EndSplineSet
Validated: 1
EndChar

StartChar: plus
Encoding: 43 43 13
Width: 1234
VWidth: 0
GlyphClass: 2
Flags: W
HStem: 590 298<220.703 323.348 846.593 1010.73>
VStem: 463 298<347.01 452 973.593 1136.97>
LayerCount: 2
Fore
SplineSet
473 1129 m 1,0,1
 587 1152 587 1152 761 1251 c 1,2,-1
 771 1245 l 1,3,4
 715 1033 715 1033 706 833 c 1,5,6
 906 841 906 841 1118 898 c 1,7,-1
 1124 888 l 1,8,9
 1020 690 1020 690 1002 600 c 1,10,11
 856 640 856 640 709 652 c 1,12,13
 720 505 720 505 761 359 c 1,14,15
 671 341 671 341 473 237 c 1,16,-1
 463 243 l 1,17,18
 519 455 519 455 528 655 c 1,19,20
 328 647 328 647 116 590 c 1,21,-1
 110 600 l 1,22,23
 209 774 209 774 232 888 c 1,24,25
 378 848 378 848 525 836 c 1,26,27
 513 983 513 983 473 1129 c 1,0,1
EndSplineSet
Validated: 1
EndChar

StartChar: comma
Encoding: 44 44 14
Width: 452
GlyphClass: 2
Flags: W
HStem: -282 16<20 30.7852>
VStem: 20 412<97.3215 291.867>
LayerCount: 2
Fore
SplineSet
214 0 m 1,0,1
 130 31 130 31 84 75 c 0,2,3
 30 127 30 127 30 208 c 128,-1,4
 30 289 30 289 84 341 c 0,5,6
 130 385 130 385 214 416 c 1,7,-1
 224 416 l 1,8,9
 288 396 288 396 334 355 c 0,10,11
 432 267 432 267 432 129 c 0,12,13
 432 -169 432 -169 20 -282 c 1,14,-1
 20 -266 l 1,15,16
 195 -140 195 -140 214 0 c 1,0,1
EndSplineSet
Validated: 1
EndChar

StartChar: hyphen
Encoding: 45 45 15
Width: 1234
VWidth: 0
GlyphClass: 2
Flags: W
HStem: 590 298<220.703 322.224 849.609 1010.73> 656 176<276.92 957.08>
LayerCount: 2
Fore
SplineSet
232 888 m 1,0,1
 435 832 435 832 639 832 c 0,2,3
 870 832 870 832 1118 898 c 1,4,-1
 1124 888 l 1,5,6
 1020 690 1020 690 1002 600 c 1,7,8
 799 656 799 656 595 656 c 0,9,10
 364 656 364 656 116 590 c 1,11,-1
 110 600 l 1,12,13
 209 774 209 774 232 888 c 1,0,1
EndSplineSet
Validated: 1
EndChar

StartChar: period
Encoding: 46 46 16
Width: 418
GlyphClass: 2
Flags: W
HStem: 0 416<111.97 300.861>
VStem: 20 378<90.1985 325.802>
LayerCount: 2
Fore
SplineSet
214 0 m 5,0,-1
 204 0 l 5,1,2
 120 31 120 31 74 75 c 4,3,4
 20 127 20 127 20 208 c 132,-1,5
 20 289 20 289 74 341 c 4,6,7
 120 385 120 385 204 416 c 5,8,-1
 214 416 l 5,9,10
 282 393 282 393 340 340 c 132,-1,11
 398 287 398 287 398 208 c 132,-1,12
 398 129 398 129 340 76 c 132,-1,13
 282 23 282 23 214 0 c 5,0,-1
EndSplineSet
Validated: 1
EndChar

StartChar: slash
Encoding: 47 47 17
Width: 1245
GlyphClass: 2
Flags: W
LayerCount: 2
Fore
SplineSet
342 -150 m 1,0,1
 224 -85 224 -85 10 -51 c 1,2,3
 300 371 300 371 549 862 c 0,4,5
 747 1250 747 1250 894 1654 c 1,6,-1
 903 1660 l 1,7,8
 1021 1595 1021 1595 1235 1561 c 1,9,10
 972 1139 972 1139 767 750 c 0,11,12
 543 322 543 322 351 -144 c 1,13,-1
 342 -150 l 1,0,1
EndSplineSet
Validated: 1
EndChar

StartChar: zero
Encoding: 48 48 18
Width: 1394
VWidth: 0
GlyphClass: 2
Flags: W
HStem: 0 21G<556 837.5> 1490 20G<560 837>
VStem: 80 219<711.545 995.019> 1095 219<517.625 799.686>
LayerCount: 2
Fore
SplineSet
1039 314 m 1,0,1
 1095 435 1095 435 1095 574 c 0,2,3
 1095 903 1095 903 782 1080 c 0,4,5
 578 1196 578 1196 355 1196 c 1,6,7
 299 1075 299 1075 299 936 c 0,8,9
 299 608 299 608 612 430 c 0,10,11
 815 314 815 314 1039 314 c 1,0,1
702 0 m 1,12,-1
 692 0 l 1,13,14
 420 98 420 98 272 261 c 0,15,16
 80 472 80 472 80 746 c 128,-1,17
 80 1020 80 1020 281 1254 c 0,18,19
 428 1425 428 1425 692 1510 c 1,20,-1
 702 1510 l 1,21,22
 972 1412 972 1412 1122 1249 c 0,23,24
 1314 1040 1314 1040 1314 766 c 0,25,26
 1314 491 1314 491 1113 256 c 0,27,28
 973 92 973 92 702 0 c 1,12,-1
EndSplineSet
Validated: 1
EndChar

StartChar: one
Encoding: 49 49 19
Width: 861
GlyphClass: 2
Flags: W
HStem: 0 21G<329 442.5> 1490 20G<587.5 701>
VStem: 375 276<170.793 1151.84>
LayerCount: 2
Fore
SplineSet
339 0 m 1,0,-1
 329 6 l 1,1,2
 375 409 375 409 375 724 c 0,3,4
 375 924 375 924 353 1161 c 1,5,6
 262 1053 262 1053 208 879 c 1,7,8
 111 957 111 957 10 982 c 1,9,-1
 10 992 l 1,10,11
 223 1161 223 1161 329 1387 c 1,12,13
 484 1409 484 1409 691 1510 c 1,14,-1
 701 1504 l 1,15,16
 652 1140 652 1140 651 778 c 0,17,18
 651 509 651 509 701 123 c 1,19,20
 546 101 546 101 339 0 c 1,0,-1
EndSplineSet
Validated: 1
EndChar

StartChar: four
Encoding: 52 52 20
Width: 1191
GlyphClass: 2
Flags: W
HStem: 0 21G<659 775.5> 351 156<280.052 686.468> 1490 20G<919 1031>
VStem: 690 291<522.668 1106.86>
LayerCount: 2
Fore
SplineSet
669 0 m 1,0,-1
 659 6 l 1,1,2
 678 166 678 166 690 338 c 1,3,4
 577 351 577 351 462 351 c 0,5,6
 263 351 263 351 85 310 c 1,7,-1
 76 317 l 1,8,9
 61 391 61 391 10 477 c 1,10,11
 395 924 395 924 659 1387 c 1,12,13
 817 1409 817 1409 1021 1510 c 1,14,-1
 1031 1504 l 1,15,16
 981 1146 981 1146 981 801 c 128,-1,17
 981 456 981 456 1031 123 c 1,18,19
 882 101 882 101 669 0 c 1,0,-1
276 518 m 1,20,21
 383 507 383 507 475 507 c 0,22,23
 601 507 601 507 701 528 c 1,24,25
 701 855 701 855 686 1115 c 1,26,27
 431 804 431 804 276 518 c 1,20,21
EndSplineSet
Validated: 1
EndChar

StartChar: six
Encoding: 54 54 21
Width: 1317
GlyphClass: 2
Flags: W
HStem: 0 21G<557 806> 722 280<703.818 878.791> 1490 20G<556.5 837>
VStem: 80 219<710.314 992.375> 1051 186<401.17 705>
LayerCount: 2
Fore
SplineSet
702 0 m 1,0,-1
 692 0 l 1,1,2
 422 98 422 98 272 261 c 0,3,4
 80 470 80 470 80 744 c 0,5,6
 80 1019 80 1019 281 1254 c 0,7,8
 421 1418 421 1418 692 1510 c 1,9,-1
 702 1510 l 1,10,11
 972 1412 972 1412 1122 1249 c 1,12,-1
 1119 1238 l 1,13,14
 970 1211 970 1211 759 1093 c 1,15,16
 566 1196 566 1196 355 1196 c 1,17,18
 299 1075 299 1075 299 936 c 0,19,20
 299 607 299 607 612 430 c 0,21,22
 816 314 816 314 1039 314 c 1,23,24
 1051 360 1051 360 1051 406 c 0,25,26
 1051 557 1051 557 926 650 c 0,27,28
 831 722 831 722 618 722 c 1,29,-1
 612 732 l 1,30,31
 684 878 684 878 716 1002 c 1,32,33
 934 995 934 995 1079 898 c 0,34,35
 1237 793 1237 793 1237 617 c 0,36,37
 1237 375 1237 375 1043 194 c 0,38,39
 910 71 910 71 702 0 c 1,0,-1
EndSplineSet
Validated: 1
EndChar

StartChar: seven
Encoding: 55 55 22
Width: 1093
GlyphClass: 2
Flags: W
HStem: 0 21G<116 233.5> 1306 144<268.387 618.404> 1490 20G<122.5 230 954 1083>
LayerCount: 2
Fore
SplineSet
126 0 m 1,0,-1
 116 6 l 1,1,2
 512 763 512 763 624 1302 c 1,3,4
 573 1306 573 1306 517 1306 c 0,5,6
 267 1306 267 1306 16 1128 c 1,7,-1
 10 1138 l 1,8,9
 112 1346 112 1346 133 1510 c 1,10,11
 327 1450 327 1450 596 1450 c 0,12,13
 835 1450 835 1450 1073 1510 c 1,14,-1
 1083 1504 l 1,15,16
 708 815 708 815 563 132 c 1,17,18
 341 105 341 105 126 0 c 1,0,-1
EndSplineSet
Validated: 1
EndChar

StartChar: eight
Encoding: 56 56 23
Width: 1184
VWidth: 0
GlyphClass: 2
Flags: W
HStem: 0 21G<490.5 693.5> 1276 234<477.763 597>
VStem: 60 254<416 687> 157 189<978.5 1236.68> 814 188<968 1190.5> 885 239<357.025 637>
DStem2: 526 1019 409 749 0.907172 -0.420761<-58.1236 294.389 319.882 490.575>
LayerCount: 2
Fore
SplineSet
597 0 m 1,0,-1
 587 0 l 1,1,2
 394 59 394 59 262 170 c 0,3,4
 60 340 60 340 60 492 c 0,5,6
 60 715 60 715 330 792 c 1,7,8
 157 900 157 900 157 1057 c 0,9,10
 157 1236 157 1236 304 1359 c 0,11,12
 419 1454 419 1454 587 1510 c 1,13,-1
 597 1510 l 1,14,15
 765 1454 765 1454 880 1359 c 0,16,17
 1002 1257 1002 1257 1002 1124 c 0,18,19
 1002 964 1002 964 816 884 c 1,20,-1
 830 878 l 2,21,22
 1124 742 1124 742 1124 532 c 0,23,24
 1124 340 1124 340 922 170 c 0,25,26
 790 59 790 59 597 0 c 1,0,-1
793 895 m 1,27,28
 814 954 814 954 814 982 c 0,29,30
 814 1117 814 1117 672 1196 c 0,31,32
 528 1276 528 1276 358 1276 c 1,33,34
 346 1246 346 1246 346 1213 c 0,35,36
 346 1102 346 1102 526 1019 c 2,37,-1
 793 895 l 1,27,28
350 780 m 1,38,39
 314 721 314 721 314 653 c 0,40,41
 314 520 314 520 450 411 c 0,42,43
 608 286 608 286 863 252 c 1,44,45
 885 301 885 301 885 363 c 0,46,47
 885 526 885 526 637 642 c 2,48,-1
 409 749 l 2,49,50
 377 764 377 764 350 780 c 1,38,39
EndSplineSet
Validated: 1
EndChar

StartChar: nine
Encoding: 57 57 24
Width: 1317
GlyphClass: 2
Flags: W
HStem: 0 21G<480 760.5> 508 280<438.209 613.182> 1490 20G<511 760>
VStem: 80 186<805 1108.83> 1018 219<517.625 799.686>
LayerCount: 2
Fore
SplineSet
625 0 m 1,0,-1
 615 0 l 1,1,2
 345 98 345 98 195 261 c 1,3,-1
 198 272 l 1,4,5
 347 299 347 299 558 417 c 1,6,7
 751 314 751 314 962 314 c 1,8,9
 1018 435 1018 435 1018 574 c 0,10,11
 1018 903 1018 903 705 1080 c 0,12,13
 501 1196 501 1196 278 1196 c 1,14,15
 266 1150 266 1150 266 1104 c 0,16,17
 266 953 266 953 391 860 c 0,18,19
 486 788 486 788 699 788 c 1,20,-1
 705 778 l 1,21,22
 633 632 633 632 601 508 c 1,23,24
 383 515 383 515 238 612 c 0,25,26
 80 717 80 717 80 893 c 0,27,28
 80 1135 80 1135 274 1316 c 0,29,30
 407 1439 407 1439 615 1510 c 1,31,-1
 625 1510 l 1,32,33
 895 1412 895 1412 1045 1249 c 0,34,35
 1237 1040 1237 1040 1237 766 c 0,36,37
 1237 491 1237 491 1036 256 c 0,38,39
 896 92 896 92 625 0 c 1,0,-1
EndSplineSet
Validated: 1
EndChar

StartChar: colon
Encoding: 58 58 25
Width: 418
GlyphClass: 2
Flags: W
HStem: 0 21G<162 248>
VStem: 20 378<90.1985 325.802 638.198 873.802>
LayerCount: 2
Fore
SplineSet
204 964 m 1,0,-1
 214 964 l 1,1,2
 282 941 282 941 340 888 c 128,-1,3
 398 835 398 835 398 756 c 128,-1,4
 398 677 398 677 340 624 c 128,-1,5
 282 571 282 571 214 548 c 1,6,-1
 204 548 l 1,7,8
 120 579 120 579 74 623 c 0,9,10
 20 675 20 675 20 756 c 128,-1,11
 20 837 20 837 74 889 c 0,12,13
 120 933 120 933 204 964 c 1,0,-1
214 0 m 1,14,-1
 204 0 l 1,15,16
 120 31 120 31 74 75 c 0,17,18
 20 127 20 127 20 208 c 128,-1,19
 20 289 20 289 74 341 c 0,20,21
 120 385 120 385 204 416 c 1,22,-1
 214 416 l 1,23,24
 282 393 282 393 340 340 c 128,-1,25
 398 287 398 287 398 208 c 128,-1,26
 398 129 398 129 340 76 c 128,-1,27
 282 23 282 23 214 0 c 1,14,-1
EndSplineSet
Validated: 1
EndChar

StartChar: semicolon
Encoding: 59 59 26
Width: 452
GlyphClass: 2
Flags: W
HStem: -282 16<20 30.7852>
VStem: 30 402<85.0049 291.867> 30 378<638.198 873.802>
LayerCount: 2
Fore
SplineSet
214 0 m 1,0,1
 130 31 130 31 84 75 c 0,2,3
 30 127 30 127 30 208 c 128,-1,4
 30 289 30 289 84 341 c 0,5,6
 130 385 130 385 214 416 c 1,7,-1
 224 416 l 1,8,9
 288 396 288 396 334 355 c 0,10,11
 432 267 432 267 432 129 c 0,12,13
 432 -169 432 -169 20 -282 c 1,14,-1
 20 -266 l 1,15,16
 195 -140 195 -140 214 0 c 1,0,1
214 964 m 1,17,-1
 224 964 l 1,18,19
 292 941 292 941 350 888 c 128,-1,20
 408 835 408 835 408 756 c 128,-1,21
 408 677 408 677 350 624 c 128,-1,22
 292 571 292 571 224 548 c 1,23,-1
 214 548 l 1,24,25
 130 579 130 579 84 623 c 0,26,27
 30 675 30 675 30 756 c 128,-1,28
 30 837 30 837 84 889 c 0,29,30
 130 933 130 933 214 964 c 1,17,-1
EndSplineSet
Validated: 1
EndChar

StartChar: less
Encoding: 60 60 27
Width: 1357
GlyphClass: 2
Flags: W
LayerCount: 2
Fore
SplineSet
232 888 m 1,0,1
 690 1034 690 1034 1185 1358 c 1,2,-1
 1197 1356 l 1,3,4
 1113 1199 1113 1199 1082 1082 c 1,5,6
 724 988 724 988 412 769 c 1,7,8
 679 581 679 581 1191 490 c 1,9,-1
 1197 480 l 1,10,11
 1093 282 1093 282 1075 192 c 1,12,13
 669 489 669 489 116 590 c 1,14,-1
 110 600 l 1,15,16
 209 774 209 774 232 888 c 1,0,1
EndSplineSet
Validated: 1
EndChar

StartChar: equal
Encoding: 61 61 28
Width: 1234
VWidth: 0
GlyphClass: 2
Flags: W
HStem: 373 298<220.703 322.224 849.609 1010.73> 439 176<276.92 957.08> 809 298<220.703 322.224 849.609 1010.73> 875 176<276.92 957.08>
LayerCount: 2
Fore
SplineSet
232 671 m 1,0,1
 435 615 435 615 639 615 c 0,2,3
 870 615 870 615 1118 681 c 1,4,-1
 1124 671 l 1,5,6
 1020 473 1020 473 1002 383 c 1,7,8
 799 439 799 439 595 439 c 0,9,10
 364 439 364 439 116 373 c 1,11,-1
 110 383 l 1,12,13
 209 557 209 557 232 671 c 1,0,1
232 1107 m 1,14,15
 435 1051 435 1051 639 1051 c 0,16,17
 870 1051 870 1051 1118 1117 c 1,18,-1
 1124 1107 l 1,19,20
 1020 909 1020 909 1002 819 c 1,21,22
 799 875 799 875 595 875 c 0,23,24
 364 875 364 875 116 809 c 1,25,-1
 110 819 l 1,26,27
 209 993 209 993 232 1107 c 1,14,15
EndSplineSet
Validated: 1
EndChar

StartChar: greater
Encoding: 62 62 29
Width: 1357
GlyphClass: 2
Flags: W
LayerCount: 2
Fore
SplineSet
1241 960 m 1,0,-1
 1247 950 l 1,1,2
 1148 776 1148 776 1125 662 c 1,3,4
 667 516 667 516 172 192 c 1,5,-1
 160 194 l 1,6,7
 244 351 244 351 275 468 c 1,8,9
 633 562 633 562 945 781 c 1,10,11
 678 969 678 969 166 1060 c 1,12,-1
 160 1070 l 1,13,14
 264 1268 264 1268 282 1358 c 1,15,16
 688 1061 688 1061 1241 960 c 1,0,-1
EndSplineSet
Validated: 1
EndChar

StartChar: question
Encoding: 63 63 30
Width: 1239
GlyphClass: 2
Flags: W
HStem: 0 21G<563 649> 1490 20G<470.5 751.5>
VStem: 110 150<961 1200.89> 421 378<90.1985 325.802> 840 289<854.896 1081.77>
LayerCount: 2
Fore
SplineSet
615 0 m 1,0,-1
 605 0 l 1,1,2
 521 31 521 31 475 75 c 0,3,4
 421 127 421 127 421 208 c 128,-1,5
 421 289 421 289 475 341 c 0,6,7
 521 385 521 385 605 416 c 1,8,-1
 615 416 l 1,9,10
 683 393 683 393 741 340 c 128,-1,11
 799 287 799 287 799 208 c 128,-1,12
 799 129 799 129 741 76 c 128,-1,13
 683 23 683 23 615 0 c 1,0,-1
605 1510 m 1,14,-1
 615 1510 l 1,15,16
 888 1416 888 1416 1032 1257 c 0,17,18
 1129 1151 1129 1151 1129 1009 c 0,19,20
 1129 802 1129 802 937 677 c 2,21,-1
 782 576 l 2,22,23
 721 536 721 536 701 506 c 1,24,25
 612 488 612 488 529 448 c 1,26,-1
 519 454 l 1,27,28
 519 550 519 550 622 663 c 2,29,-1
 778 834 l 2,30,31
 840 902 840 902 840 978 c 0,32,33
 840 1051 840 1051 771 1104 c 0,34,35
 582 1246 582 1246 288 1246 c 1,36,37
 260 1207 260 1207 260 1160 c 0,38,39
 260 1064 260 1064 343 997 c 0,40,41
 411 942 411 942 513 908 c 1,42,43
 377 892 377 892 226 811 c 1,44,-1
 218 813 l 1,45,46
 110 891 110 891 110 1031 c 0,47,48
 110 1180 110 1180 233 1305 c 0,49,50
 336 1410 336 1410 605 1510 c 1,14,-1
EndSplineSet
Validated: 1
EndChar

StartChar: at
Encoding: 64 64 31
Width: 1307
GlyphClass: 2
Flags: W
HStem: -380 21G<560.5 811.5> 0 215<725.192 839.519> 661 10<759.464 769> 941 189<603.095 716.543>
VStem: 80 183<221.395 636.713> 421 193<314.973 533.547> 931 236<220.277 742.252>
LayerCount: 2
Fore
SplineSet
895 0 m 1,0,1
 885 6 l 1,2,3
 892 49 892 49 898 91 c 1,4,5
 838 35 838 35 758 0 c 1,6,-1
 748 0 l 1,7,8
 625 43 625 43 531 131 c 0,9,10
 421 233 421 233 421 382 c 0,11,12
 421 507 421 507 511 584 c 0,13,14
 611 671 611 671 769 671 c 1,15,-1
 769 661 l 1,16,17
 614 602 614 602 614 452 c 0,18,19
 614 350 614 350 687 285 c 0,20,21
 767 216 767 216 913 215 c 1,22,23
 931 384 931 384 931 534 c 0,24,25
 931 735 931 735 810 840 c 0,26,27
 694 941 694 941 462 941 c 1,28,29
 263 745 263 745 263 446 c 0,30,31
 263 150 263 150 505 -14 c 0,32,33
 725 -163 725 -163 1070 -182 c 1,34,35
 922 -303 922 -303 701 -380 c 1,36,-1
 691 -380 l 1,37,38
 430 -282 430 -282 272 -119 c 0,39,40
 80 79 80 79 80 372 c 0,41,42
 80 701 80 701 303 895 c 0,43,44
 493 1060 493 1060 722 1130 c 1,45,-1
 732 1130 l 1,46,47
 924 1094 924 1094 1038 955 c 0,48,49
 1167 799 1167 799 1167 565 c 0,50,51
 1167 345 1167 345 1217 123 c 1,52,53
 1098 103 1098 103 895 0 c 1,0,1
EndSplineSet
Validated: 1
EndChar

StartChar: A
Encoding: 65 65 32
Width: 1396
GlyphClass: 2
Flags: W
HStem: 0 21G<5 89 1009 1122> 499 148<451.969 828.952> 1490 20G<764 877>
LayerCount: 2
Fore
SplineSet
15 0 m 1,0,-1
 5 6 l 1,1,2
 318 646 318 646 495 1387 c 1,3,4
 661 1409 661 1409 867 1510 c 1,5,-1
 877 1504 l 1,6,7
 1057 800 1057 800 1391 123 c 1,8,9
 1225 102 1225 102 1019 0 c 1,10,-1
 1009 6 l 1,11,12
 957 252 957 252 886 481 c 1,13,14
 765 499 765 499 638 499 c 0,15,16
 520 499 520 499 399 486 c 1,17,18
 346 300 346 300 303 108 c 1,19,20
 163 73 163 73 15 0 c 1,0,-1
449 655 m 1,21,22
 544 647 544 647 641 647 c 0,23,24
 736 647 736 647 829 653 c 1,25,26
 739 910 739 910 624 1146 c 1,27,28
 528 907 528 907 449 655 c 1,21,22
EndSplineSet
Validated: 1
EndChar

StartChar: C
Encoding: 67 67 33
Width: 1277
GlyphClass: 2
Flags: W
HStem: 0 21G<556 837.5> 1490 20G<560 837>
VStem: 80 219<720.882 995.019>
LayerCount: 2
Fore
SplineSet
702 0 m 1,0,1
 692 0 l 1,2,3
 420 98 420 98 272 261 c 0,4,5
 80 472 80 472 80 746 c 128,-1,6
 80 1020 80 1020 281 1254 c 0,7,8
 428 1425 428 1425 692 1510 c 1,9,-1
 702 1510 l 1,10,11
 972 1412 972 1412 1122 1249 c 1,12,-1
 1119 1238 l 1,13,14
 970 1211 970 1211 759 1093 c 1,15,16
 566 1196 566 1196 355 1196 c 1,17,18
 299 1075 299 1075 299 936 c 0,19,20
 299 631 299 631 604 426 c 0,21,22
 771 314 771 314 953 314 c 0,23,24
 1110 314 1110 314 1206 410 c 1,25,-1
 1217 404 l 1,26,27
 1175 328 1175 328 1113 256 c 0,28,29
 973 92 973 92 702 0 c 1,0,1
EndSplineSet
Validated: 1
EndChar

StartChar: E
Encoding: 69 69 34
Width: 1169
GlyphClass: 2
Flags: W
HStem: 0 21G<140 269 939 1046.5> 60 144<512.814 893.85> 644 144<475 720.75> 1162 273<726.342 968.723> 1490 20G<409 576.5 1002.5 1086>
VStem: 186 289<221.457 644 788 1352.48>
LayerCount: 2
Fore
SplineSet
150 0 m 1,0,-1
 140 6 l 1,1,2
 186 409 186 409 186 724 c 0,3,4
 186 1017 186 1017 140 1387 c 1,5,6
 306 1409 306 1409 512 1510 c 1,7,8
 641 1435 641 1435 771 1435 c 0,9,10
 925 1435 925 1435 1080 1510 c 1,11,-1
 1086 1500 l 1,12,13
 982 1292 982 1292 963 1162 c 1,14,15
 795 1162 795 1162 681 1230 c 128,-1,16
 567 1298 567 1298 515 1450 c 1,17,18
 474 1118 474 1118 472 788 c 1,19,20
 720 788 720 788 971 966 c 1,21,-1
 977 956 l 1,22,23
 876 749 876 749 854 584 c 1,24,25
 660 644 660 644 475 644 c 1,26,27
 483 453 483 453 511 214 c 1,28,29
 569 204 569 204 632 204 c 0,30,31
 902 204 902 204 1153 382 c 1,32,-1
 1159 372 l 1,33,34
 1057 164 1057 164 1036 0 c 1,35,36
 842 60 842 60 627 60 c 0,37,38
 388 60 388 60 150 0 c 1,0,-1
EndSplineSet
Validated: 1
EndChar

StartChar: G
Encoding: 71 71 35
Width: 1411
VWidth: 0
GlyphClass: 2
Flags: W
HStem: 0 21G<556 770.5 919 1032> 1490 20G<560 837>
VStem: 80 219<720.882 995.019> 965 286<317 721.812>
LayerCount: 2
Fore
SplineSet
702 0 m 1,0,-1
 692 0 l 1,1,2
 420 98 420 98 272 261 c 0,3,4
 80 472 80 472 80 746 c 128,-1,5
 80 1020 80 1020 281 1254 c 0,6,7
 428 1425 428 1425 692 1510 c 1,8,-1
 702 1510 l 1,9,10
 972 1412 972 1412 1122 1249 c 1,11,-1
 1119 1238 l 1,12,13
 970 1211 970 1211 759 1093 c 1,14,15
 566 1196 566 1196 355 1196 c 1,16,17
 299 1075 299 1075 299 936 c 0,18,19
 299 631 299 631 604 426 c 0,20,21
 771 314 771 314 963 314 c 1,22,23
 965 353 965 353 965 394 c 0,24,25
 965 561 965 561 919 727 c 1,26,27
 1085 749 1085 749 1291 850 c 1,28,-1
 1301 844 l 1,29,30
 1251 633 1251 633 1251 448 c 0,31,32
 1251 277 1251 277 1301 123 c 1,33,34
 1135 101 1135 101 929 0 c 1,35,-1
 919 6 l 1,36,37
 933 57 933 57 942 111 c 1,38,39
 839 46 839 46 702 0 c 1,0,-1
EndSplineSet
Validated: 1
EndChar

StartChar: H
Encoding: 72 72 36
Width: 1421
GlyphClass: 2
Flags: W
HStem: 0 21G<140 253 899 1012> 656 158<476.694 941.025> 1490 20G<409 522 1168 1281>
VStem: 140 382<116.266 561 1015.61 1393.73> 899 382<116.266 579.237 1004.45 1393.73>
LayerCount: 2
Fore
SplineSet
150 0 m 1,0,-1
 140 6 l 1,1,2
 186 409 186 409 186 724 c 0,3,4
 186 1017 186 1017 140 1387 c 1,5,6
 306 1409 306 1409 512 1510 c 1,7,-1
 522 1504 l 1,8,9
 476 1164 476 1164 472 832 c 1,10,11
 578 814 578 814 729 814 c 0,12,13
 849 814 849 814 944 827 c 1,14,15
 937 1107 937 1107 899 1387 c 1,16,17
 1065 1409 1065 1409 1271 1510 c 1,18,-1
 1281 1504 l 1,19,20
 1232 1140 1232 1140 1231 778 c 0,21,22
 1231 509 1231 509 1281 123 c 1,23,24
 1115 101 1115 101 909 0 c 1,25,-1
 899 6 l 1,26,27
 940 336 940 336 945 630 c 1,28,29
 829 656 829 656 672 656 c 0,30,31
 560 656 560 656 474 644 c 1,32,33
 481 405 481 405 522 123 c 1,34,35
 356 101 356 101 150 0 c 1,0,-1
EndSplineSet
Validated: 1
EndChar

StartChar: I
Encoding: 73 73 37
Width: 662
GlyphClass: 2
Flags: W
HStem: 0 21G<140 253> 1490 20G<409 522>
VStem: 140 382<116.266 588.872 1005.34 1393.73> 186 286<170.793 1341.05>
LayerCount: 2
Fore
SplineSet
150 0 m 1,0,-1
 140 6 l 1,1,2
 186 409 186 409 186 724 c 0,3,4
 186 1017 186 1017 140 1387 c 1,5,6
 306 1409 306 1409 512 1510 c 1,7,-1
 522 1504 l 1,8,9
 473 1140 473 1140 472 778 c 0,10,11
 472 509 472 509 522 123 c 1,12,13
 356 101 356 101 150 0 c 1,0,-1
EndSplineSet
Validated: 1
EndChar

StartChar: L
Encoding: 76 76 38
Width: 1164
GlyphClass: 2
Flags: W
HStem: 0 21G<140 269 939 1046.5> 60 144<512.814 893.85> 1490 20G<409 522>
VStem: 140 371<817.442 1393.73> 186 286<224.197 1341.05>
LayerCount: 2
Fore
SplineSet
150 0 m 1,0,-1
 140 6 l 1,1,2
 186 409 186 409 186 724 c 0,3,4
 186 1017 186 1017 140 1387 c 1,5,6
 306 1409 306 1409 512 1510 c 1,7,-1
 522 1504 l 1,8,9
 473 1140 473 1140 472 778 c 0,10,11
 472 541 472 541 511 214 c 1,12,13
 569 204 569 204 632 204 c 0,14,15
 902 204 902 204 1153 382 c 1,16,-1
 1159 372 l 1,17,18
 1057 164 1057 164 1036 0 c 1,19,20
 842 60 842 60 627 60 c 0,21,22
 388 60 388 60 150 0 c 1,0,-1
EndSplineSet
Validated: 1
EndChar

StartChar: N
Encoding: 78 78 39
Width: 1434
GlyphClass: 2
Flags: W
HStem: 0 21G<160 228 909 1022> 1490 20G<339 452 1229 1294>
VStem: 202 152<195.676 953.553> 1099 150<395.302 1271.5>
LayerCount: 2
Fore
SplineSet
170 0 m 1,0,-1
 160 6 l 1,1,2
 202 352 202 352 202 682 c 0,3,4
 202 974 202 974 178 1256 c 1,5,6
 123 1335 123 1335 70 1387 c 1,7,8
 236 1409 236 1409 442 1510 c 1,9,-1
 452 1504 l 1,10,11
 719 867 719 867 1085 389 c 1,12,13
 1099 624 1099 624 1099 834 c 0,14,15
 1099 1151 1099 1151 1060 1420 c 1,16,17
 1174 1456 1174 1456 1284 1510 c 1,18,-1
 1294 1504 l 1,19,20
 1249 1153 1249 1153 1249 782 c 0,21,22
 1249 462 1249 462 1291 123 c 1,23,24
 1125 101 1125 101 919 0 c 1,25,-1
 909 6 l 1,26,27
 647 573 647 573 362 957 c 1,28,29
 354 791 354 791 354 688 c 0,30,31
 354 370 354 370 390 89 c 1,32,33
 286 57 286 57 170 0 c 1,0,-1
EndSplineSet
Validated: 19457
EndChar

StartChar: O
Encoding: 79 79 40
Width: 1394
VWidth: 0
GlyphClass: 2
Flags: W
HStem: 0 21G<556 837.5> 1490 20G<560 837>
VStem: 80 219<711.545 995.019> 1095 219<517.625 799.686>
LayerCount: 2
Fore
SplineSet
1039 314 m 1,0,1
 1095 435 1095 435 1095 574 c 0,2,3
 1095 903 1095 903 782 1080 c 0,4,5
 578 1196 578 1196 355 1196 c 1,6,7
 299 1075 299 1075 299 936 c 0,8,9
 299 608 299 608 612 430 c 0,10,11
 815 314 815 314 1039 314 c 1,0,1
702 0 m 1,12,-1
 692 0 l 1,13,14
 420 98 420 98 272 261 c 0,15,16
 80 472 80 472 80 746 c 128,-1,17
 80 1020 80 1020 281 1254 c 0,18,19
 428 1425 428 1425 692 1510 c 1,20,-1
 702 1510 l 1,21,22
 972 1412 972 1412 1122 1249 c 0,23,24
 1314 1040 1314 1040 1314 766 c 0,25,26
 1314 491 1314 491 1113 256 c 0,27,28
 973 92 973 92 702 0 c 1,12,-1
EndSplineSet
Validated: 1
EndChar

StartChar: T
Encoding: 84 84 41
Width: 1253
GlyphClass: 2
Flags: W
HStem: 0 21G<434 547> 1490 20G<117.5 245.5 1092.5 1248>
VStem: 480 286<170.793 1289.11>
LayerCount: 2
Fore
SplineSet
444 0 m 1,0,-1
 434 6 l 1,1,2
 480 409 480 409 480 724 c 0,3,4
 480 982 480 982 444 1299 c 1,5,6
 229 1263 229 1263 11 1128 c 1,7,-1
 5 1138 l 1,8,9
 107 1346 107 1346 128 1510 c 1,10,11
 363 1457 363 1457 632 1457 c 0,12,13
 943 1457 943 1457 1242 1510 c 1,14,-1
 1248 1500 l 1,15,16
 1146 1292 1146 1292 1125 1128 c 1,17,18
 980 1259 980 1259 790 1297 c 1,19,20
 766 1057 766 1057 766 778 c 0,21,22
 766 509 766 509 816 123 c 1,23,24
 650 101 650 101 444 0 c 1,0,-1
EndSplineSet
Validated: 1
EndChar

StartChar: V
Encoding: 86 86 42
Width: 1396
GlyphClass: 2
Flags: W
HStem: 0 21G<519 632> 1490 20G<274 387 1307 1391>
LayerCount: 2
Fore
SplineSet
529 0 m 1,0,1
 519 6 l 1,2,3
 339 710 339 710 5 1387 c 1,4,5
 171 1408 171 1408 377 1510 c 1,6,-1
 387 1504 l 1,7,8
 519 883 519 883 772 364 c 1,9,10
 970 857 970 857 1093 1402 c 1,11,12
 1233 1437 1233 1437 1381 1510 c 1,13,-1
 1391 1504 l 1,14,15
 1078 864 1078 864 901 123 c 1,16,17
 735 101 735 101 529 0 c 1,0,1
EndSplineSet
Validated: 1
EndChar

StartChar: W
Encoding: 87 87 43
Width: 1974
GlyphClass: 2
Flags: W
HStem: 0 21G<519 632 1097 1210> 1490 20G<274 387 831 935 1314.5 1391 1885 1969>
LayerCount: 2
Fore
SplineSet
529 0 m 1,0,-1
 519 6 l 1,1,2
 339 710 339 710 5 1387 c 1,3,4
 171 1408 171 1408 377 1510 c 1,5,-1
 387 1504 l 1,6,7
 528 844 528 844 791 338 c 1,8,9
 848 490 848 490 900 644 c 1,10,11
 763 1023 763 1023 583 1391 c 1,12,13
 737 1418 737 1418 925 1510 c 1,14,-1
 935 1504 l 1,15,16
 978 1293 978 1293 1039 1088 c 1,17,18
 1085 1248 1085 1248 1125 1410 c 1,19,20
 1248 1445 1248 1445 1381 1510 c 1,21,-1
 1391 1504 l 1,22,23
 1237 1189 1237 1189 1116 850 c 1,24,25
 1209 586 1209 586 1332 334 c 1,26,27
 1552 897 1552 897 1671 1402 c 1,28,29
 1811 1437 1811 1437 1959 1510 c 1,30,-1
 1969 1504 l 1,31,32
 1656 864 1656 864 1479 123 c 1,33,34
 1313 101 1313 101 1107 0 c 1,35,-1
 1097 6 l 1,36,37
 1043 213 1043 213 978 417 c 1,38,39
 937 272 937 272 901 123 c 1,40,41
 735 101 735 101 529 0 c 1,0,-1
EndSplineSet
Validated: 1
EndChar

StartChar: bracketleft
Encoding: 91 91 44
Width: 946
GlyphClass: 2
Flags: W
HStem: -230 144<500.478 759.395> 1454 273<658.274 811.013>
VStem: 176 286<159.278 1352.62>
LayerCount: 2
Fore
SplineSet
130 -283 m 1,0,1
 175 249 175 249 176 728 c 0,2,3
 176 1171 176 1171 130 1679 c 1,4,5
 296 1701 296 1701 502 1802 c 1,6,7
 586 1727 586 1727 711 1727 c 0,8,9
 814 1727 814 1727 920 1802 c 1,10,-1
 926 1792 l 1,11,12
 822 1584 822 1584 803 1454 c 1,13,14
 688 1454 688 1454 619 1533 c 128,-1,15
 550 1612 550 1612 507 1745 c 1,16,17
 462 1244 462 1244 462 778 c 0,18,19
 462 374 462 374 503 -77 c 1,20,21
 555 -86 555 -86 611 -86 c 0,22,23
 763 -86 763 -86 920 92 c 1,24,-1
 926 82 l 1,25,26
 824 -126 824 -126 803 -290 c 1,27,28
 650 -230 650 -230 468 -230 c 0,29,30
 296 -230 296 -230 136 -290 c 1,31,-1
 130 -283 l 1,0,1
EndSplineSet
Validated: 1
EndChar

StartChar: backslash
Encoding: 92 92 45
Width: 1245
GlyphClass: 2
Flags: W
LayerCount: 2
Fore
SplineSet
903 -150 m 1,0,1
 894 -144 l 1,2,3
 702 322 702 322 478 750 c 0,4,5
 273 1139 273 1139 10 1561 c 1,6,7
 224 1595 224 1595 342 1660 c 1,8,-1
 351 1654 l 1,9,10
 498 1250 498 1250 696 862 c 0,11,12
 945 371 945 371 1235 -51 c 1,13,14
 1021 -85 1021 -85 903 -150 c 1,0,1
EndSplineSet
Validated: 1
EndChar

StartChar: bracketright
Encoding: 93 93 46
Width: 946
GlyphClass: 2
Flags: W
HStem: -215 273<134.987 287.726> 1598 144<186.605 445.522>
VStem: 484 286<159.377 1352.72>
LayerCount: 2
Fore
SplineSet
816 1795 m 1,0,1
 771 1263 771 1263 770 784 c 0,2,3
 770 341 770 341 816 -167 c 1,4,5
 650 -189 650 -189 444 -290 c 1,6,7
 360 -215 360 -215 235 -215 c 0,8,9
 132 -215 132 -215 26 -290 c 1,10,-1
 20 -280 l 1,11,12
 124 -72 124 -72 143 58 c 1,13,14
 258 58 258 58 327 -21 c 128,-1,15
 396 -100 396 -100 439 -233 c 1,16,17
 484 268 484 268 484 734 c 0,18,19
 484 1138 484 1138 443 1589 c 1,20,21
 391 1598 391 1598 335 1598 c 0,22,23
 183 1598 183 1598 26 1420 c 1,24,-1
 20 1430 l 1,25,26
 122 1638 122 1638 143 1802 c 1,27,28
 296 1742 296 1742 478 1742 c 0,29,30
 650 1742 650 1742 810 1802 c 1,31,-1
 816 1795 l 1,0,1
EndSplineSet
Validated: 1
EndChar

StartChar: asciicircum
Encoding: 94 94 47
Width: 858
GlyphClass: 2
Flags: W
HStem: 955 595
LayerCount: 2
Fore
SplineSet
568 1550 m 1,0,1
 578 1544 l 1,2,3
 650 1235 650 1235 838 1058 c 1,4,5
 713 1021 713 1021 583 955 c 1,6,-1
 573 961 l 1,7,8
 513 1176 513 1176 394 1325 c 1,9,10
 283 1196 283 1196 231 1041 c 1,11,12
 158 1018 158 1018 30 955 c 1,13,-1
 20 961 l 1,14,15
 215 1207 215 1207 289 1441 c 1,16,17
 425 1477 425 1477 568 1550 c 1,0,1
EndSplineSet
Validated: 1
EndChar

StartChar: underscore
Encoding: 95 95 48
Width: 1487
GlyphClass: 2
Flags: W
HStem: -410 233<197.521 587.942 930.382 1289.25> -363 137<265.173 1209.95>
LayerCount: 2
Fore
SplineSet
116 -410 m 1,0,-1
 110 -400 l 1,1,2
 184 -268 184 -268 214 -177 c 1,3,4
 488 -226 488 -226 739 -226 c 0,5,6
 1064 -226 1064 -226 1371 -177 c 1,7,-1
 1377 -187 l 1,8,9
 1299 -330 1299 -330 1273 -410 c 1,10,11
 1023 -363 1023 -363 738 -363 c 0,12,13
 427 -363 427 -363 116 -410 c 1,0,-1
EndSplineSet
Validated: 1
EndChar

StartChar: grave
Encoding: 96 96 49
Width: 494
GlyphClass: 2
Flags: W
HStem: 1180 430
VStem: 20 454
LayerCount: 2
Fore
SplineSet
291 1610 m 1,0,1
 456 1443 456 1443 474 1238 c 1,2,3
 407 1217 407 1217 350 1180 c 1,4,-1
 340 1180 l 1,5,6
 251 1386 251 1386 20 1476 c 1,7,-1
 25 1486 l 1,8,9
 191 1528 191 1528 291 1610 c 1,0,1
EndSplineSet
Validated: 1
EndChar

StartChar: a
Encoding: 97 97 50
Width: 1137
GlyphClass: 2
Flags: W
HStem: 0 215<530.891 618.727> 721 10<505.501 513> 915 215<437.327 558.25>
VStem: 60 268<384.297 567.258> 731 266<220.277 742.252>
LayerCount: 2
Fore
SplineSet
502 0 m 1,0,-1
 492 0 l 1,1,2
 318 48 318 48 180 169 c 0,3,4
 60 275 60 275 60 415 c 0,5,6
 60 545 60 545 165 637 c 0,7,8
 272 731 272 731 513 731 c 1,9,-1
 513 721 l 1,10,11
 328 662 328 662 328 511 c 0,12,13
 328 403 328 403 441 315 c 0,14,15
 569 216 569 216 713 215 c 1,16,17
 731 384 731 384 731 534 c 0,18,19
 731 734 731 734 625 825 c 0,20,21
 520 915 520 915 365 915 c 0,22,23
 286 915 286 915 210 884 c 1,24,-1
 203 892 l 1,25,26
 351 1078 351 1078 552 1130 c 1,27,-1
 562 1130 l 1,28,29
 754 1094 754 1094 868 955 c 0,30,31
 997 799 997 799 997 565 c 0,32,33
 997 345 997 345 1047 123 c 1,34,35
 894 101 894 101 695 0 c 1,36,-1
 685 6 l 1,37,38
 692 49 692 49 698 91 c 1,39,40
 607 27 607 27 502 0 c 1,0,-1
EndSplineSet
Validated: 1
EndChar

StartChar: b
Encoding: 98 98 51
Width: 1196
GlyphClass: 2
Flags: W
HStem: 0 21G<545 754.5> 1110 20G<567.5 728> 1490 20G<342.5 452>
VStem: 136 266<500.534 856.158> 935 201<360.368 586.514>
LayerCount: 2
Fore
SplineSet
641 0 m 1,0,-1
 631 0 l 1,1,2
 459 46 459 46 319 169 c 0,3,4
 136 329 136 329 136 649 c 0,5,6
 136 1017 136 1017 90 1387 c 1,7,8
 243 1409 243 1409 442 1510 c 1,9,-1
 452 1504 l 1,10,11
 420 1266 420 1266 408 1025 c 1,12,13
 504 1088 504 1088 631 1130 c 1,14,-1
 641 1130 l 1,15,16
 815 1082 815 1082 953 961 c 0,17,18
 1136 801 1136 801 1136 565 c 0,19,20
 1136 373 1136 373 1001 222 c 0,21,22
 868 75 868 75 641 0 c 1,0,-1
403 858 m 1,23,24
 402 809 402 809 402 760 c 0,25,26
 402 464 402 464 553 363 c 0,27,28
 691 271 691 271 911 271 c 1,29,30
 935 339 935 339 935 399 c 0,31,32
 935 624 935 624 719 767 c 0,33,34
 595 850 595 850 403 858 c 1,23,24
EndSplineSet
Validated: 1
EndChar

StartChar: c
Encoding: 99 99 52
Width: 1057
GlyphClass: 2
Flags: W
HStem: 0 271<568.328 678.961> 1110 20G<438.5 651>
VStem: 60 201<543.486 771.201>
LayerCount: 2
Fore
SplineSet
565 0 m 1,0,-1
 555 0 l 1,1,2
 383 46 383 46 243 169 c 0,3,4
 60 329 60 329 60 565 c 0,5,6
 60 754 60 754 194 906 c 0,7,8
 322 1052 322 1052 555 1130 c 1,9,-1
 565 1130 l 1,10,11
 737 1083 737 1083 877 961 c 0,12,13
 915 928 915 928 946 891 c 1,14,15
 943 880 l 1,16,17
 797 847 797 847 643 767 c 1,18,19
 505 859 505 859 285 859 c 1,20,21
 261 791 261 791 261 731 c 0,22,23
 261 506 261 506 477 363 c 0,24,25
 615 271 615 271 805 271 c 24,26,27
 931 271 931 271 1008 367 c 1,28,-1
 1017 362 l 1,29,30
 984 288 984 288 925 222 c 0,31,32
 792 75 792 75 565 0 c 1,0,-1
EndSplineSet
Validated: 19457
EndChar

StartChar: d
Encoding: 100 100 53
Width: 1193
GlyphClass: 2
Flags: W
HStem: 0 21G<469 616 741 845> 1110 20G<438.5 628.5> 1490 20G<986 1083>
VStem: 60 201<543.486 770.932> 788 245<274.985 637.328 938 1356.21>
LayerCount: 2
Fore
SplineSet
565 0 m 1,0,-1
 555 0 l 1,1,2
 383 46 383 46 243 169 c 0,3,4
 60 329 60 329 60 565 c 0,5,6
 60 754 60 754 194 906 c 0,7,8
 322 1052 322 1052 555 1130 c 1,9,-1
 565 1130 l 1,10,11
 692 1076 692 1076 781 938 c 1,12,13
 770 1173 770 1173 741 1387 c 1,14,15
 899 1421 899 1421 1073 1510 c 1,16,-1
 1083 1504 l 1,17,18
 1034 1140 1034 1140 1033 778 c 0,19,20
 1033 509 1033 509 1083 123 c 1,21,22
 939 95 939 95 751 0 c 1,23,-1
 741 6 l 1,24,25
 745 44 745 44 749 82 c 1,26,27
 667 34 667 34 565 0 c 1,0,-1
788 411 m 0,28,29
 788 618 788 618 673 742 c 0,30,31
 555 870 555 870 285 870 c 1,32,33
 261 802 261 802 261 731 c 0,34,35
 261 506 261 506 477 363 c 0,36,37
 614 272 614 272 777 272 c 1,38,39
 788 344 788 344 788 411 c 0,28,29
EndSplineSet
Validated: 1
EndChar

StartChar: e
Encoding: 101 101 54
Width: 1077
GlyphClass: 2
Flags: W
HStem: 0 271<568.328 678.961> 399 10<544 555.812> 1110 20G<438.5 652>
VStem: 60 201<543.486 771.201> 736 261<563.97 724.079>
LayerCount: 2
Fore
SplineSet
565 0 m 1,0,-1
 555 0 l 1,1,2
 383 46 383 46 243 169 c 0,3,4
 60 329 60 329 60 565 c 0,5,6
 60 754 60 754 194 906 c 0,7,8
 322 1052 322 1052 555 1130 c 1,9,-1
 565 1130 l 1,10,11
 739 1082 739 1082 877 961 c 0,12,13
 997 855 997 855 997 715 c 0,14,15
 997 585 997 585 892 493 c 0,16,17
 785 399 785 399 544 399 c 1,18,-1
 544 409 l 1,19,20
 736 470 736 470 736 604 c 0,21,22
 736 705 736 705 643 767 c 24,23,24
 505 859 505 859 285 859 c 1,25,26
 261 791 261 791 261 731 c 0,27,28
 261 506 261 506 477 363 c 0,29,30
 615 271 615 271 805 271 c 24,31,32
 931 271 931 271 1008 367 c 1,33,-1
 1017 362 l 1,34,35
 984 288 984 288 925 222 c 0,36,37
 792 75 792 75 565 0 c 1,0,-1
EndSplineSet
Validated: 1
EndChar

StartChar: g
Encoding: 103 103 55
Width: 1167
GlyphClass: 2
Flags: W
HStem: -380 21G<368 564> 0 21G<468 628.5> 1110 20G<441.5 651>
VStem: 60 201<543.486 769.632> 794 266<275.345 629.466>
LayerCount: 2
Fore
SplineSet
565 0 m 1,0,-1
 555 0 l 1,1,2
 381 48 381 48 243 169 c 0,3,4
 60 329 60 329 60 565 c 0,5,6
 60 757 60 757 195 908 c 0,7,8
 328 1055 328 1055 555 1130 c 1,9,-1
 565 1130 l 1,10,11
 737 1084 737 1084 877 961 c 0,12,13
 1060 801 1060 801 1060 481 c 0,14,15
 1060 315 1060 315 1077 140 c 1,16,17
 973 -23 973 -23 826 -156 c 0,18,19
 663 -305 663 -305 465 -380 c 1,20,-1
 455 -380 l 1,21,22
 281 -332 281 -332 143 -211 c 1,23,-1
 146 -200 l 1,24,25
 294 -173 294 -173 482 -69 c 1,26,27
 594 -109 594 -109 735 -109 c 1,28,29
 777 -14 777 -14 788 105 c 1,30,31
 692 42 692 42 565 0 c 1,0,-1
793 272 m 1,32,33
 794 321 794 321 794 370 c 0,34,35
 794 666 794 666 643 767 c 0,36,37
 505 859 505 859 285 859 c 1,38,39
 261 791 261 791 261 731 c 0,40,41
 261 506 261 506 477 363 c 0,42,43
 601 280 601 280 793 272 c 1,32,33
EndSplineSet
Validated: 1
EndChar

StartChar: h
Encoding: 104 104 56
Width: 1225
GlyphClass: 2
Flags: W
HStem: 0 21G<110 219.5 773 882.5> 915 215<522.893 643.694> 1490 20G<362.5 472>
VStem: 110 362<115.25 588.872 1036.25 1394.75> 156 266<170.793 915 1027 1329.66> 819 266<150.742 742.252>
LayerCount: 2
Fore
SplineSet
120 0 m 1,0,-1
 110 6 l 1,1,2
 156 409 156 409 156 724 c 0,3,4
 156 1017 156 1017 110 1387 c 1,5,6
 263 1409 263 1409 462 1510 c 1,7,-1
 472 1504 l 1,8,9
 440 1265 440 1265 428 1027 c 1,10,11
 525 1100 525 1100 640 1130 c 1,12,-1
 650 1130 l 1,13,14
 842 1094 842 1094 956 955 c 0,15,16
 1085 799 1085 799 1085 565 c 0,17,18
 1085 345 1085 345 1135 123 c 1,19,20
 982 101 982 101 783 0 c 1,21,-1
 773 6 l 1,22,23
 819 295 819 295 819 534 c 0,24,25
 819 734 819 734 713 825 c 0,26,27
 608 915 608 915 424 915 c 1,28,29
 422 847 422 847 422 778 c 0,30,31
 422 509 422 509 472 123 c 1,32,33
 319 101 319 101 120 0 c 1,0,-1
EndSplineSet
Validated: 1
EndChar

StartChar: i
Encoding: 105 105 57
Width: 572
GlyphClass: 2
Flags: W
HStem: 0 21G<110 219.5> 1110 20G<352.5 462>
VStem: 97 378<117.242 249.305 907.008 1012.76 1290.2 1525.8> 156 256<150.832 999.717>
LayerCount: 2
Fore
SplineSet
281 1616 m 1,0,-1
 291 1616 l 1,1,2
 359 1593 359 1593 417 1540 c 128,-1,3
 475 1487 475 1487 475 1408 c 128,-1,4
 475 1329 475 1329 417 1276 c 128,-1,5
 359 1223 359 1223 291 1200 c 1,6,-1
 281 1200 l 1,7,8
 197 1231 197 1231 151 1275 c 0,9,10
 97 1327 97 1327 97 1408 c 128,-1,11
 97 1489 97 1489 151 1541 c 0,12,13
 197 1585 197 1585 281 1616 c 1,0,-1
120 0 m 1,14,-1
 110 6 l 1,15,16
 156 295 156 295 156 534 c 0,17,18
 156 774 156 774 110 1007 c 1,19,20
 253 1029 253 1029 452 1130 c 1,21,-1
 462 1124 l 1,22,23
 412 840 412 840 412 588 c 0,24,25
 412 345 412 345 462 123 c 1,26,27
 319 101 319 101 120 0 c 1,14,-1
EndSplineSet
Validated: 1
EndChar

StartChar: j
Encoding: 106 106 58
Width: 572
GlyphClass: 2
Flags: W
HStem: -380 21G<-28 89> 1110 20G<352.5 462>
VStem: 97 378<907.008 1012.76 1290.2 1525.8> 156 256<150.832 999.717>
LayerCount: 2
Fore
SplineSet
281 1616 m 1,0,-1
 291 1616 l 1,1,2
 359 1593 359 1593 417 1540 c 128,-1,3
 475 1487 475 1487 475 1408 c 128,-1,4
 475 1329 475 1329 417 1276 c 128,-1,5
 359 1223 359 1223 291 1200 c 1,6,-1
 281 1200 l 1,7,8
 197 1231 197 1231 151 1275 c 0,9,10
 97 1327 97 1327 97 1408 c 128,-1,11
 97 1489 97 1489 151 1541 c 0,12,13
 197 1585 197 1585 281 1616 c 1,0,-1
-19 -380 m 1,14,-1
 -28 -374 l 1,15,16
 94 -172 94 -172 128 78 c 0,17,18
 156 283 156 283 156 534 c 0,19,20
 156 774 156 774 110 1007 c 1,21,22
 253 1029 253 1029 452 1130 c 1,23,-1
 462 1124 l 1,24,25
 412 840 412 840 412 588 c 0,26,27
 412 345 412 345 462 123 c 1,28,29
 415 -15 415 -15 328 -116 c 0,30,31
 197 -268 197 -268 -19 -380 c 1,14,-1
EndSplineSet
Validated: 1
EndChar

StartChar: k
Encoding: 107 107 59
Width: 1214
GlyphClass: 2
Flags: W
HStem: 0 21G<110 219.5 847 954> 1110 20G<736 841> 1490 20G<362.5 472>
VStem: 110 362<115.25 479.805 1005.34 1394.75> 156 266<664 1329.66>
LayerCount: 2
Fore
SplineSet
1209 123 m 1,0,1
 1051 102 1051 102 857 0 c 1,2,-1
 847 6 l 1,3,4
 693 334 693 334 506 578 c 1,5,6
 472 537 472 537 434 485 c 1,7,8
 446 319 446 319 472 123 c 1,9,10
 319 101 319 101 120 0 c 1,11,-1
 110 6 l 1,12,13
 156 409 156 409 156 724 c 0,14,15
 156 1017 156 1017 110 1387 c 1,16,17
 263 1409 263 1409 462 1510 c 1,18,-1
 472 1504 l 1,19,20
 423 1140 423 1140 422 778 c 0,21,22
 422 723 422 723 424 664 c 1,23,24
 648 864 648 864 824 1130 c 1,25,-1
 841 1129 l 1,26,27
 992 1052 992 1052 1109 1023 c 1,28,29
 899 907 899 907 728 761 c 1,30,31
 881 450 881 450 1209 123 c 1,0,1
EndSplineSet
Validated: 1
EndChar

StartChar: l
Encoding: 108 108 60
Width: 582
GlyphClass: 2
Flags: W
HStem: 0 21G<110 219.5> 1490 20G<362.5 472>
VStem: 110 362<115.25 588.872 1005.34 1394.75> 156 266<170.793 1329.66>
LayerCount: 2
Fore
SplineSet
120 0 m 1,0,-1
 110 6 l 1,1,2
 156 409 156 409 156 724 c 0,3,4
 156 1017 156 1017 110 1387 c 1,5,6
 263 1409 263 1409 462 1510 c 1,7,-1
 472 1504 l 1,8,9
 423 1140 423 1140 422 778 c 0,10,11
 422 509 422 509 472 123 c 1,12,13
 319 101 319 101 120 0 c 1,0,-1
EndSplineSet
Validated: 1
EndChar

StartChar: m
Encoding: 109 109 61
Width: 1888
GlyphClass: 2
Flags: W
HStem: 0 21G<110 221.5 773 882.5 1436 1545.5> 915 215<519.667 644.311 1146.64 1313.52>
VStem: 110 352<114.724 430.792> 156 256<150.832 909.691> 819 266<150.742 745.516> 1482 266<150.742 748.555>
LayerCount: 2
Fore
SplineSet
120 0 m 1,0,-1
 110 6 l 1,1,2
 156 295 156 295 156 534 c 0,3,4
 156 774 156 774 110 1007 c 1,5,6
 249 1027 249 1027 452 1130 c 1,7,-1
 462 1124 l 1,8,9
 455 1083 455 1083 448 1042 c 1,10,11
 537 1104 537 1104 640 1130 c 1,12,-1
 650 1130 l 1,13,14
 836 1095 836 1095 949 963 c 1,15,16
 1100 1097 1100 1097 1303 1130 c 1,17,-1
 1313 1130 l 1,18,19
 1505 1094 1505 1094 1619 955 c 0,20,21
 1748 799 1748 799 1748 565 c 0,22,23
 1748 345 1748 345 1798 123 c 1,24,25
 1645 101 1645 101 1446 0 c 1,26,-1
 1436 6 l 1,27,28
 1482 295 1482 295 1482 534 c 0,29,30
 1482 734 1482 734 1378 824.5 c 128,-1,31
 1274 915 1274 915 1139 915 c 0,32,33
 1068 915 1068 915 1006 883 c 1,34,35
 1085 748 1085 748 1085 565 c 0,36,37
 1085 345 1085 345 1135 123 c 1,38,39
 982 101 982 101 783 0 c 1,40,-1
 773 6 l 1,41,42
 819 295 819 295 819 534 c 0,43,44
 819 734 819 734 713 825 c 0,45,46
 608 915 608 915 431 915 c 1,47,48
 412 745 412 745 412 588 c 0,49,50
 412 345 412 345 462 123 c 1,51,52
 323 103 323 103 120 0 c 1,0,-1
EndSplineSet
Validated: 1
EndChar

StartChar: n
Encoding: 110 110 62
Width: 1225
GlyphClass: 2
Flags: W
HStem: 0 21G<110 221.5 773 882.5> 915 215<519.667 644.311>
VStem: 110 352<114.724 430.792> 156 256<150.832 909.691> 819 266<150.742 742.252>
LayerCount: 2
Fore
SplineSet
120 0 m 1,0,-1
 110 6 l 1,1,2
 156 295 156 295 156 534 c 0,3,4
 156 774 156 774 110 1007 c 1,5,6
 249 1027 249 1027 452 1130 c 1,7,-1
 462 1124 l 1,8,9
 455 1083 455 1083 448 1042 c 1,10,11
 537 1104 537 1104 640 1130 c 1,12,-1
 650 1130 l 1,13,14
 842 1094 842 1094 956 955 c 0,15,16
 1085 799 1085 799 1085 565 c 0,17,18
 1085 345 1085 345 1135 123 c 1,19,20
 982 101 982 101 783 0 c 1,21,-1
 773 6 l 1,22,23
 819 295 819 295 819 534 c 0,24,25
 819 734 819 734 713 825 c 0,26,27
 608 915 608 915 431 915 c 1,28,29
 412 745 412 745 412 588 c 0,30,31
 412 345 412 345 462 123 c 1,32,33
 323 103 323 103 120 0 c 1,0,-1
EndSplineSet
Validated: 1
EndChar

StartChar: o
Encoding: 111 111 63
Width: 1120
GlyphClass: 2
Flags: W
HStem: 0 21G<469 678.5> 1110 20G<438.5 652>
VStem: 60 201<543.486 771.201> 859 201<360.368 586.514>
LayerCount: 2
Fore
SplineSet
835 271 m 1,0,1
 859 339 859 339 859 399 c 0,2,3
 859 624 859 624 643 767 c 0,4,5
 505 859 505 859 285 859 c 1,6,7
 261 791 261 791 261 731 c 0,8,9
 261 506 261 506 477 363 c 0,10,11
 615 271 615 271 835 271 c 1,0,1
565 0 m 1,12,-1
 555 0 l 1,13,14
 383 46 383 46 243 169 c 0,15,16
 60 329 60 329 60 565 c 0,17,18
 60 754 60 754 194 906 c 0,19,20
 322 1052 322 1052 555 1130 c 1,21,-1
 565 1130 l 1,22,23
 739 1082 739 1082 877 961 c 0,24,25
 1060 801 1060 801 1060 565 c 0,26,27
 1060 373 1060 373 925 222 c 0,28,29
 792 75 792 75 565 0 c 1,12,-1
EndSplineSet
Validated: 1
EndChar

StartChar: p
Encoding: 112 112 64
Width: 1193
GlyphClass: 2
Flags: W
HStem: -380 21G<110 210> 0 21G<564.5 754.5> 1110 20G<350 452 577 724>
VStem: 160 252<-237.57 192 478.311 855.015> 932 201<359.068 586.514>
LayerCount: 2
Fore
SplineSet
638 0 m 1,0,-1
 628 0 l 1,1,2
 501 54 501 54 412 192 c 1,3,4
 423 -43 423 -43 452 -257 c 1,5,6
 300 -288 300 -288 120 -380 c 1,7,-1
 110 -374 l 1,8,9
 159 -10 159 -10 160 352 c 0,10,11
 160 621 160 621 110 1007 c 1,12,13
 258 1036 258 1036 442 1130 c 1,14,-1
 452 1124 l 1,15,16
 448 1086 448 1086 444 1048 c 1,17,18
 526 1096 526 1096 628 1130 c 1,19,-1
 638 1130 l 1,20,21
 810 1084 810 1084 950 961 c 0,22,23
 1133 801 1133 801 1133 565 c 0,24,25
 1133 376 1133 376 999 224 c 0,26,27
 871 78 871 78 638 0 c 1,0,-1
405 719 m 0,28,29
 405 512 405 512 520 388 c 0,30,31
 638 260 638 260 908 260 c 1,32,33
 932 328 932 328 932 399 c 0,34,35
 932 624 932 624 716 767 c 0,36,37
 579 858 579 858 416 858 c 1,38,39
 405 786 405 786 405 719 c 0,28,29
EndSplineSet
Validated: 1
EndChar

StartChar: q
Encoding: 113 113 65
Width: 1196
GlyphClass: 2
Flags: W
HStem: -380 21G<744 853.5> 0 21G<468 628.5> 1110 20G<441.5 651>
VStem: 60 201<543.486 769.632> 794 266<273.842 629.466>
LayerCount: 2
Fore
SplineSet
565 0 m 1,0,-1
 555 0 l 1,1,2
 381 48 381 48 243 169 c 0,3,4
 60 329 60 329 60 565 c 0,5,6
 60 757 60 757 195 908 c 0,7,8
 328 1055 328 1055 555 1130 c 1,9,-1
 565 1130 l 1,10,11
 737 1084 737 1084 877 961 c 0,12,13
 1060 801 1060 801 1060 481 c 0,14,15
 1060 113 1060 113 1106 -257 c 1,16,17
 953 -279 953 -279 754 -380 c 1,18,-1
 744 -374 l 1,19,20
 776 -136 776 -136 788 105 c 1,21,22
 692 42 692 42 565 0 c 1,0,-1
793 272 m 1,23,24
 794 321 794 321 794 370 c 0,25,26
 794 666 794 666 643 767 c 0,27,28
 505 859 505 859 285 859 c 1,29,30
 261 791 261 791 261 731 c 0,31,32
 261 506 261 506 477 363 c 0,33,34
 601 280 601 280 793 272 c 1,23,24
EndSplineSet
Validated: 1
EndChar

StartChar: r
Encoding: 114 114 66
Width: 974
GlyphClass: 2
Flags: W
HStem: 0 21G<110 221.5> 915 215<519.667 644.311>
VStem: 110 352<114.724 430.792> 156 256<150.832 909.691>
LayerCount: 2
Fore
SplineSet
120 0 m 1,0,1
 110 6 l 1,2,3
 156 295 156 295 156 534 c 0,4,5
 156 774 156 774 110 1007 c 1,6,7
 249 1027 249 1027 452 1130 c 1,8,-1
 462 1124 l 1,9,10
 455 1083 455 1083 448 1042 c 1,11,12
 537 1104 537 1104 640 1130 c 1,13,-1
 650 1130 l 1,14,15
 833 1096 833 1096 956 955 c 0,16,17
 963 947 963 947 969 939 c 1,18,19
 967 930 l 1,20,21
 846 900 846 900 713 825 c 1,22,23
 608 915 608 915 431 915 c 1,24,25
 412 745 412 745 412 588 c 0,26,27
 412 345 412 345 462 123 c 1,28,29
 323 103 323 103 120 0 c 1,0,1
EndSplineSet
Validated: 1
EndChar

StartChar: s
Encoding: 115 115 67
Width: 928
VWidth: 0
GlyphClass: 2
Flags: W
HStem: 0 21G<376.5 562.5> 939 191<339.25 428.123>
VStem: 96 162<699 935.047> 696 192<245.18 495.5>
DStem2: 634 697 313 511 0.925471 -0.37882<-416.398 189.898>
LayerCount: 2
Fore
SplineSet
470 0 m 1,0,-1
 459 0 l 1,1,2
 294 44 294 44 148 169 c 0,3,4
 82 225 82 225 40 294 c 1,5,-1
 43 305 l 1,6,7
 165 339 165 339 300 408 c 1,8,9
 444 257 444 257 687 222 c 1,10,11
 696 247 696 247 696 273 c 0,12,13
 696 354 696 354 506 432 c 2,14,-1
 313 511 l 2,15,16
 96 600 96 600 96 798 c 0,17,18
 96 929 96 929 238 1028 c 0,19,20
 330 1093 330 1093 459 1130 c 1,21,-1
 469 1130 l 1,22,23
 668 1085 668 1085 814 917 c 1,24,-1
 811 907 l 1,25,26
 691 875 691 875 546 802 c 1,27,28
 442 925 442 925 265 939 c 1,29,30
 258 920 258 920 258 901 c 0,31,32
 258 851 258 851 458 769 c 2,33,-1
 634 697 l 2,34,35
 888 593 888 593 888 398 c 0,36,37
 888 250 888 250 742 136 c 0,38,39
 655 68 655 68 470 0 c 1,0,-1
EndSplineSet
Validated: 1
EndChar

StartChar: t
Encoding: 116 116 68
Width: 810
GlyphClass: 2
Flags: W
HStem: 0 21G<234 332.5> 934 196<74 260.343 540.032 736.75> 1490 20G<472.5 576>
VStem: 234 342<112.592 588.872 1108.75 1396.2> 280 246<194.347 967>
LayerCount: 2
Fore
SplineSet
244 0 m 1,0,-1
 234 6 l 1,1,2
 280 409 280 409 280 724 c 0,3,4
 280 841 280 841 273 970 c 1,5,6
 150 961 150 961 11 934 c 1,7,-1
 5 944 l 1,8,9
 63 1047 63 1047 89 1130 c 1,10,11
 178 1113 178 1113 263 1104 c 1,12,13
 252 1240 252 1240 234 1387 c 1,14,15
 379 1415 379 1415 566 1510 c 1,16,-1
 576 1504 l 1,17,18
 548 1300 548 1300 536 1096 c 1,19,20
 665 1103 665 1103 799 1130 c 1,21,-1
 805 1120 l 1,22,23
 749 1016 749 1016 721 934 c 1,24,25
 627 957 627 957 530 967 c 1,26,27
 526 872 526 872 526 778 c 0,28,29
 526 509 526 509 576 123 c 1,30,31
 421 90 421 90 244 0 c 1,0,-1
EndSplineSet
Validated: 1
EndChar

StartChar: u
Encoding: 117 117 69
Width: 1225
GlyphClass: 2
Flags: W
HStem: 0 215<580.689 705.333> 1110 20G<342.5 452 1003.5 1115>
VStem: 140 266<387.748 979.258> 763 352<699.208 1015.28> 813 256<220.309 979.168>
LayerCount: 2
Fore
SplineSet
585 0 m 1,0,-1
 575 0 l 1,1,2
 383 36 383 36 269 175 c 0,3,4
 140 331 140 331 140 565 c 0,5,6
 140 785 140 785 90 1007 c 1,7,8
 243 1029 243 1029 442 1130 c 1,9,-1
 452 1124 l 1,10,11
 406 835 406 835 406 596 c 0,12,13
 406 396 406 396 512 305 c 0,14,15
 617 215 617 215 794 215 c 1,16,17
 813 385 813 385 813 542 c 0,18,19
 813 785 813 785 763 1007 c 1,20,21
 902 1027 902 1027 1105 1130 c 1,22,-1
 1115 1124 l 1,23,24
 1069 835 1069 835 1069 596 c 0,25,26
 1069 356 1069 356 1115 123 c 1,27,28
 976 103 976 103 773 0 c 1,29,-1
 763 6 l 1,30,31
 770 47 770 47 777 88 c 1,32,33
 688 26 688 26 585 0 c 1,0,-1
EndSplineSet
Validated: 1
EndChar

StartChar: v
Encoding: 118 118 70
Width: 1167
GlyphClass: 2
Flags: W
HStem: 0 21G<395 504.5> 1110 20G<263.5 367>
LayerCount: 2
Fore
SplineSet
405 0 m 1,0,-1
 395 6 l 1,1,2
 271 559 271 559 5 1011 c 1,3,4
 170 1033 170 1033 357 1130 c 1,5,-1
 367 1124 l 1,6,7
 462 662 462 662 639 295 c 1,8,9
 789 607 789 607 873 1026 c 1,10,11
 997 1055 997 1055 1152 1134 c 1,12,-1
 1162 1128 l 1,13,14
 856 520 856 520 757 123 c 1,15,16
 604 101 604 101 405 0 c 1,0,-1
EndSplineSet
Validated: 1
EndChar

StartChar: w
Encoding: 119 119 71
Width: 1888
GlyphClass: 2
Flags: W
HStem: 0 215<574.482 741.355 1243.69 1368.33> 1110 20G<342.5 452 1005.5 1115 1666.5 1778>
VStem: 140 266<381.445 979.258> 803 266<384.484 979.258> 1426 352<699.208 1015.28> 1476 256<220.309 979.168>
LayerCount: 2
Fore
SplineSet
585 0 m 1,0,-1
 575 0 l 1,1,2
 383 36 383 36 269 175 c 0,3,4
 140 331 140 331 140 565 c 0,5,6
 140 785 140 785 90 1007 c 1,7,8
 243 1029 243 1029 442 1130 c 1,9,-1
 452 1124 l 1,10,11
 406 835 406 835 406 596 c 0,12,13
 406 396 406 396 510 305.5 c 128,-1,14
 614 215 614 215 749 215 c 0,15,16
 820 215 820 215 882 247 c 1,17,18
 803 382 803 382 803 565 c 0,19,20
 803 785 803 785 753 1007 c 1,21,22
 906 1029 906 1029 1105 1130 c 1,23,-1
 1115 1124 l 1,24,25
 1069 835 1069 835 1069 596 c 0,26,27
 1069 396 1069 396 1175 305 c 0,28,29
 1280 215 1280 215 1457 215 c 1,30,31
 1476 385 1476 385 1476 542 c 0,32,33
 1476 785 1476 785 1426 1007 c 1,34,35
 1565 1027 1565 1027 1768 1130 c 1,36,-1
 1778 1124 l 1,37,38
 1732 835 1732 835 1732 596 c 0,39,40
 1732 356 1732 356 1778 123 c 1,41,42
 1639 103 1639 103 1436 0 c 1,43,-1
 1426 6 l 1,44,45
 1433 47 1433 47 1440 88 c 1,46,47
 1351 26 1351 26 1248 0 c 1,48,-1
 1238 0 l 1,49,50
 1052 35 1052 35 939 167 c 1,51,52
 788 33 788 33 585 0 c 1,0,-1
EndSplineSet
Validated: 1
EndChar

StartChar: x
Encoding: 120 120 72
Width: 1083
GlyphClass: 2
Flags: W
HStem: 0 21G<5 109 716 826> 1110 20G<268.5 378 969 1073>
LayerCount: 2
Fore
SplineSet
15 0 m 1,0,-1
 5 6 l 1,1,2
 241 271 241 271 420 517 c 1,3,4
 263 755 263 755 16 1007 c 1,5,6
 169 1029 169 1029 368 1130 c 1,7,-1
 378 1124 l 1,8,9
 478 892 478 892 575 743 c 1,10,11
 669 891 669 891 731 1010 c 1,12,13
 875 1035 875 1035 1063 1130 c 1,14,-1
 1073 1124 l 1,15,16
 846 869 846 869 661 615 c 1,17,18
 832 370 832 370 1078 123 c 1,19,20
 926 102 926 102 726 0 c 1,21,-1
 716 6 l 1,22,23
 601 242 601 242 506 389 c 1,24,25
 416 250 416 250 347 120 c 1,26,27
 203 95 203 95 15 0 c 1,0,-1
EndSplineSet
Validated: 1
EndChar

StartChar: y
Encoding: 121 121 73
Width: 1225
GlyphClass: 2
Flags: W
HStem: -380 21G<753 862.5> 0 215<581.306 702.107> 1110 20G<342.5 452 1005.5 1115>
VStem: 140 266<387.748 979.258> 753 362<-264.75 93.75 541.128 1014.75> 803 266<-199.657 103 215 959.207>
LayerCount: 2
Fore
SplineSet
585 0 m 1,0,-1
 575 0 l 1,1,2
 383 36 383 36 269 175 c 0,3,4
 140 331 140 331 140 565 c 0,5,6
 140 785 140 785 90 1007 c 1,7,8
 243 1029 243 1029 442 1130 c 1,9,-1
 452 1124 l 1,10,11
 406 835 406 835 406 596 c 0,12,13
 406 396 406 396 512 305 c 0,14,15
 617 215 617 215 801 215 c 1,16,17
 803 283 803 283 803 352 c 0,18,19
 803 621 803 621 753 1007 c 1,20,21
 906 1029 906 1029 1105 1130 c 1,22,-1
 1115 1124 l 1,23,24
 1069 721 1069 721 1069 406 c 0,25,26
 1069 113 1069 113 1115 -257 c 1,27,28
 962 -279 962 -279 763 -380 c 1,29,-1
 753 -374 l 1,30,31
 785 -135 785 -135 797 103 c 1,32,33
 700 30 700 30 585 0 c 1,0,-1
EndSplineSet
Validated: 1
EndChar

StartChar: z
Encoding: 122 122 74
Width: 1009
GlyphClass: 2
Flags: W
HStem: 0 21G<10 135 789 896.5> 60 124<449.066 730.75> 1110 20G<160.5 269.5 851 978>
LayerCount: 2
Fore
SplineSet
16 0 m 1,0,1
 10 10 l 1,2,3
 375 541 375 541 541 945 c 1,4,5
 292 930 292 930 64 768 c 1,6,-1
 58 778 l 1,7,8
 150 959 150 959 171 1130 c 1,9,10
 368 1069 368 1069 549 1069 c 128,-1,11
 730 1069 730 1069 972 1130 c 1,12,13
 978 1120 l 1,14,15
 631 637 631 637 446 184 c 1,16,17
 742 184 742 184 993 362 c 1,18,-1
 999 352 l 1,19,20
 907 171 907 171 886 0 c 1,21,22
 692 60 692 60 477 60 c 0,23,24
 254 60 254 60 16 0 c 1,0,1
EndSplineSet
Validated: 1
EndChar

StartChar: braceleft
Encoding: 123 123 75
Width: 1197
GlyphClass: 2
Flags: W
HStem: 642 212<144.411 314>
VStem: 314 280<461.468 642 854 1224.79>
LayerCount: 2
Fore
SplineSet
823 -345 m 1,0,1
 605 -214 605 -214 447 81 c 0,2,3
 314 328 314 328 314 642 c 1,4,5
 129 642 129 642 26 612 c 1,6,-1
 20 622 l 1,7,8
 120 761 120 761 142 884 c 1,9,10
 219 854 219 854 314 854 c 1,11,12
 314 1209 314 1209 459 1505.5 c 128,-1,13
 604 1802 604 1802 883 1927 c 1,14,15
 1008 1872 1008 1872 1081 1783 c 0,16,17
 1146 1704 1146 1704 1177 1595 c 1,18,19
 1046 1544 1046 1544 967 1450 c 1,20,-1
 957 1450 l 1,21,22
 937 1548 937 1548 882 1631 c 128,-1,23
 827 1714 827 1714 761 1741 c 1,24,25
 705 1643 705 1643 667 1501 c 0,26,27
 594 1226 594 1226 594 832 c 0,28,29
 594 445 594 445 773 121 c 0,30,31
 862 -41 862 -41 995 -93 c 1,32,33
 1003 -44 1003 -44 1003 11 c 0,34,35
 1003 84 1003 84 963 135 c 1,36,-1
 969 141 l 1,37,38
 1046 82 1046 82 1160 53 c 1,39,40
 1123 -53 1123 -53 1061 -139 c 0,41,42
 970 -266 970 -266 823 -345 c 1,0,1
EndSplineSet
Validated: 1
EndChar

StartChar: bar
Encoding: 124 124 76
Width: 682
GlyphClass: 2
Flags: W
VStem: 160 362<-34.7498 506.584 1084.84 1544.75> 206 266<180.391 1323.1>
LayerCount: 2
Fore
SplineSet
170 -150 m 1,0,-1
 160 -144 l 1,1,2
 206 259 206 259 206 724 c 0,3,4
 206 1167 206 1167 160 1537 c 1,5,6
 313 1559 313 1559 512 1660 c 1,7,-1
 522 1654 l 1,8,9
 473 1293 473 1293 472 778 c 0,10,11
 472 359 472 359 522 -27 c 1,12,13
 369 -49 369 -49 170 -150 c 1,0,-1
EndSplineSet
Validated: 1
EndChar

StartChar: braceright
Encoding: 125 125 77
Width: 1197
GlyphClass: 2
Flags: W
HStem: 728 212<883 1052.59>
VStem: 603 280<357.214 728 940 1120.53>
LayerCount: 2
Fore
SplineSet
314 -345 m 1,0,1
 189 -290 189 -290 116 -201 c 0,2,3
 51 -122 51 -122 20 -13 c 1,4,5
 151 38 151 38 230 132 c 1,6,-1
 240 132 l 1,7,8
 260 34 260 34 315 -49 c 128,-1,9
 370 -132 370 -132 436 -159 c 1,10,11
 492 -61 492 -61 530 81 c 0,12,13
 603 356 603 356 603 750 c 0,14,15
 603 1137 603 1137 424 1461 c 0,16,17
 335 1623 335 1623 202 1675 c 1,18,19
 194 1626 194 1626 194 1571 c 0,20,21
 194 1498 194 1498 234 1447 c 1,22,-1
 228 1441 l 1,23,24
 151 1500 151 1500 37 1529 c 1,25,26
 74 1635 74 1635 136 1721 c 0,27,28
 227 1848 227 1848 374 1927 c 1,29,30
 592 1796 592 1796 750 1501 c 0,31,32
 883 1254 883 1254 883 940 c 1,33,34
 1068 940 1068 940 1171 970 c 1,35,-1
 1177 960 l 1,36,37
 1077 821 1077 821 1055 698 c 1,38,39
 978 728 978 728 883 728 c 1,40,41
 883 373 883 373 738 76.5 c 128,-1,42
 593 -220 593 -220 314 -345 c 1,0,1
EndSplineSet
Validated: 1
EndChar

StartChar: asciitilde
Encoding: 126 126 78
Width: 1215
GlyphClass: 2
Flags: W
HStem: 548 234<690.152 944.89> 711 234<270.11 524.848>
LayerCount: 2
Fore
SplineSet
399 945 m 0,0,1
 489 945 489 945 559 870 c 0,2,3
 642 782 642 782 769 782 c 0,4,5
 953 782 953 782 1099 936 c 1,6,-1
 1105 926 l 1,7,8
 999 737 999 737 969 611 c 1,9,10
 897 548 897 548 816 548 c 0,11,12
 726 548 726 548 656 623 c 0,13,14
 573 711 573 711 446 711 c 0,15,16
 262 711 262 711 116 557 c 1,17,-1
 110 567 l 1,18,19
 220 754 220 754 246 882 c 1,20,21
 318 945 318 945 399 945 c 0,0,1
EndSplineSet
Validated: 1
EndChar

StartChar: exclamdown
Encoding: 161 161 80
Width: 662
GlyphClass: 2
Flags: W
HStem: -380 21G<130 243> 1110 20G<292 378>
VStem: 142 378<804.198 1039.8> 240 182<156.142 633.812>
LayerCount: 2
Fore
SplineSet
140 -380 m 1,0,1
 130 -374 l 1,2,3
 188 -169 188 -169 214 85 c 128,-1,4
 240 339 240 339 240 623 c 1,5,6
 329 642 329 642 412 682 c 1,7,-1
 422 676 l 1,8,9
 422 392 422 392 448 170 c 128,-1,10
 474 -52 474 -52 532 -257 c 1,11,12
 346 -279 346 -279 140 -380 c 1,0,1
326 1130 m 1,13,-1
 336 1130 l 1,14,15
 420 1099 420 1099 466 1055 c 0,16,17
 520 1003 520 1003 520 922 c 128,-1,18
 520 841 520 841 466 789 c 0,19,20
 420 745 420 745 336 714 c 1,21,-1
 326 714 l 1,22,23
 258 737 258 737 200 790 c 128,-1,24
 142 843 142 843 142 922 c 128,-1,25
 142 1001 142 1001 200 1054 c 128,-1,26
 258 1107 258 1107 326 1130 c 1,13,-1
EndSplineSet
Validated: 1
EndChar

StartChar: sterling
Encoding: 163 163 81
Width: 1239
GlyphClass: 2
Flags: W
HStem: 0 21G<160 289 959 1066.5> 60 144<518.817 913.85> 590 196<129 193.846 495.436 831.75> 631 118<489 810.998> 1490 20G<695 912>
VStem: 210 276<220.346 613>
LayerCount: 2
Fore
SplineSet
170 0 m 1,0,-1
 160 6 l 1,1,2
 210 290 210 290 210 542 c 0,3,4
 210 578 210 578 209 613 c 1,5,6
 140 604 140 604 66 590 c 1,7,-1
 60 600 l 1,8,9
 118 703 118 703 144 786 c 1,10,11
 170 781 170 781 195 777 c 1,12,13
 183 871 183 871 160 957 c 1,14,15
 301 1162 301 1162 434 1286 c 0,16,17
 575 1416 575 1416 815 1510 c 1,18,-1
 825 1510 l 1,19,20
 999 1462 999 1462 1137 1341 c 1,21,-1
 1134 1330 l 1,22,23
 986 1303 986 1303 798 1199 c 1,24,25
 686 1239 686 1239 545 1239 c 1,26,27
 526 1150 526 1150 514 1052 c 0,28,29
 496 900 496 900 489 749 c 1,30,31
 695 749 695 749 894 786 c 1,32,-1
 900 776 l 1,33,34
 844 672 844 672 816 590 c 1,35,36
 656 630 656 630 486 631 c 1,37,38
 486 417 486 417 517 214 c 1,39,40
 575 204 575 204 652 204 c 0,41,42
 922 204 922 204 1173 382 c 1,43,-1
 1179 372 l 1,44,45
 1077 164 1077 164 1056 0 c 1,46,47
 862 60 862 60 647 60 c 0,48,49
 408 60 408 60 170 0 c 1,0,-1
EndSplineSet
Validated: 1
EndChar

StartChar: currency
Encoding: 164 164 82
Width: 1304
GlyphClass: 2
Flags: W
VStem: 202 206<725.898 942.958> 896 206<550.368 775.719>
LayerCount: 2
Fore
SplineSet
427 1002 m 1,0,1
 408 954 408 954 408 889 c 0,2,3
 408 701 408 701 597 590 c 0,4,5
 704 528 704 528 877 499 c 1,6,7
 896 546 896 546 896 609 c 0,8,9
 896 800 896 800 707 911 c 0,10,11
 600 973 600 973 427 1002 c 1,0,1
645 1259 m 1,12,-1
 659 1259 l 1,13,14
 821 1197 821 1197 918 1118 c 1,15,16
 961 1172 961 1172 1001 1226 c 1,17,18
 1078 1188 1078 1188 1192 1154 c 1,19,-1
 1194 1143 l 1,20,21
 1106 1076 1106 1076 1021 1006 c 1,22,23
 1101 889 1101 889 1102 745 c 0,24,25
 1102 598 1102 598 1017 484 c 1,26,27
 1079 434 1079 434 1139 390 c 1,28,29
 1099 313 1099 313 1067 199 c 1,30,-1
 1056 197 l 1,31,32
 988 288 988 288 912 379 c 1,33,34
 808 299 808 299 659 242 c 1,35,-1
 645 242 l 1,36,37
 499 294 499 294 397 374 c 1,38,39
 347 312 347 312 303 252 c 1,40,41
 226 292 226 292 112 324 c 1,42,-1
 110 335 l 1,43,44
 202 404 202 404 292 480 c 1,45,46
 202 599 202 599 202 745 c 0,47,48
 202 885 202 885 279 1001 c 1,49,50
 223 1046 223 1046 165 1088 c 1,51,52
 203 1166 203 1166 237 1279 c 1,53,-1
 248 1281 l 1,54,55
 312 1195 312 1195 380 1114 c 1,56,57
 478 1197 478 1197 645 1259 c 1,12,-1
EndSplineSet
Validated: 1
EndChar

StartChar: yen
Encoding: 165 165 83
Width: 1406
GlyphClass: 2
Flags: W
HStem: 0 21G<524 637> 343 196<229 533.591 884.471 1177.75> 594 196<229 397.348 990.876 1177.75> 1490 20G<279.5 392 1312 1396>
LayerCount: 2
Fore
SplineSet
534 0 m 1,0,1
 524 6 l 1,2,3
 558 204 558 204 565 380 c 1,4,5
 389 371 389 371 166 343 c 1,6,-1
 160 353 l 1,7,8
 218 456 218 456 244 539 c 1,9,10
 397 518 397 518 538 509 c 1,11,12
 510 568 510 568 480 626 c 1,13,14
 337 616 337 616 166 594 c 1,15,-1
 160 604 l 1,16,17
 218 707 218 707 244 790 c 1,18,19
 324 779 324 779 402 771 c 1,20,21
 233 1075 233 1075 10 1387 c 1,22,23
 177 1408 177 1408 382 1510 c 1,24,-1
 392 1504 l 1,25,26
 531 1088 531 1088 734 753 c 1,27,28
 776 753 776 753 804 754 c 1,29,30
 979 1045 979 1045 1098 1402 c 1,31,32
 1238 1437 1238 1437 1386 1510 c 1,33,-1
 1396 1504 l 1,34,35
 1153 1124 1153 1124 987 762 c 1,36,37
 1111 771 1111 771 1240 790 c 1,38,-1
 1246 780 l 1,39,40
 1190 676 1190 676 1162 594 c 1,41,42
 1044 615 1044 615 927 625 c 1,43,44
 902 565 902 565 879 505 c 1,45,46
 1054 512 1054 512 1240 539 c 1,47,-1
 1246 529 l 1,48,49
 1190 425 1190 425 1162 343 c 1,50,51
 1015 369 1015 369 872 379 c 1,52,53
 880 259 880 259 906 123 c 1,54,55
 740 101 740 101 534 0 c 1,0,1
EndSplineSet
Validated: 1
EndChar

StartChar: brokenbar
Encoding: 166 166 84
Width: 682
GlyphClass: 2
Flags: W
VStem: 206 256<-7.20703 600.917 957.637 1530.92>
LayerCount: 2
Fore
SplineSet
512 1660 m 1,0,-1
 522 1654 l 1,1,2
 472 1424 472 1424 472 1230 c 0,3,4
 472 1061 472 1061 522 903 c 1,5,6
 379 881 379 881 180 780 c 1,7,-1
 170 786 l 1,8,9
 216 1018 216 1018 216 1189 c 0,10,11
 216 1342 216 1342 170 1537 c 1,12,13
 313 1559 313 1559 512 1660 c 1,0,-1
170 -150 m 1,14,-1
 160 -144 l 1,15,16
 206 88 206 88 206 259 c 0,17,18
 206 412 206 412 160 607 c 1,19,20
 303 629 303 629 502 730 c 1,21,-1
 512 724 l 1,22,23
 462 494 462 494 462 300 c 0,24,25
 462 131 462 131 512 -27 c 1,26,27
 369 -49 369 -49 170 -150 c 1,14,-1
EndSplineSet
Validated: 1
EndChar

StartChar: section
Encoding: 167 167 85
Width: 1068
VWidth: 0
GlyphClass: 2
Flags: W
HStem: 0 21G<429.5 603.5> 1319 191<409.25 498.123>
VStem: 110 123<682.894 890.628> 166 162<1085 1315.05> 740 162<194.953 425> 835 123<619.372 827.106>
DStem2: 487 688 369 443 0.925471 -0.37882<-245.061 396.238> 699 1067 388 901 0.925471 -0.37882<-412.633 228.667>
LayerCount: 2
Fore
SplineSet
539 0 m 1,0,-1
 529 0 l 1,1,2
 330 45 330 45 184 213 c 1,3,-1
 187 223 l 1,4,5
 307 255 307 255 452 328 c 1,6,7
 556 205 556 205 733 191 c 1,8,9
 740 210 740 210 740 229 c 0,10,11
 740 291 740 291 545 371 c 2,12,-1
 369 443 l 2,13,14
 110 549 110 549 110 732 c 0,15,16
 110 856 110 856 229 944 c 1,17,-1
 238 940 l 1,18,19
 233 927 233 927 233 911 c 0,20,21
 233 792 233 792 487 688 c 2,22,-1
 680 609 l 2,23,24
 902 518 902 518 902 332 c 0,25,26
 902 201 902 201 760 102 c 0,27,28
 668 37 668 37 539 0 c 1,0,-1
529 1510 m 1,29,-1
 539 1510 l 1,30,31
 738 1465 738 1465 884 1297 c 1,32,-1
 881 1287 l 1,33,34
 761 1255 761 1255 616 1182 c 1,35,36
 512 1305 512 1305 335 1319 c 1,37,38
 328 1300 328 1300 328 1281 c 0,39,40
 328 1219 328 1219 523 1139 c 2,41,-1
 699 1067 l 2,42,43
 958 961 958 961 958 778 c 0,44,45
 958 654 958 654 839 566 c 1,46,-1
 830 570 l 1,47,48
 835 583 835 583 835 599 c 0,49,50
 835 718 835 718 581 822 c 2,51,-1
 388 901 l 2,52,53
 166 992 166 992 166 1178 c 0,54,55
 166 1309 166 1309 308 1408 c 0,56,57
 400 1473 400 1473 529 1510 c 1,29,-1
EndSplineSet
Validated: 1
EndChar

StartChar: dieresis
Encoding: 168 168 86
Width: 647
GlyphClass: 2
Flags: W
HStem: 1248 318<75.4844 247.879 393.484 565.549>
VStem: 20 290<1307.52 1506.48> 337 290<1306.51 1507.49>
LayerCount: 2
Fore
SplineSet
479 1566 m 1,0,-1
 486 1566 l 1,1,2
 538 1548 538 1548 582.5 1507.5 c 128,-1,3
 627 1467 627 1467 627 1407 c 128,-1,4
 627 1347 627 1347 582.5 1306.5 c 128,-1,5
 538 1266 538 1266 486 1248 c 1,6,-1
 479 1248 l 1,7,8
 415 1271 415 1271 379 1305 c 0,9,10
 337 1345 337 1345 337 1407 c 128,-1,11
 337 1469 337 1469 379 1509 c 0,12,13
 415 1543 415 1543 479 1566 c 1,0,-1
161 1566 m 1,14,-1
 168 1566 l 1,15,16
 220 1548 220 1548 265 1507.5 c 128,-1,17
 310 1467 310 1467 310 1407 c 128,-1,18
 310 1347 310 1347 265 1306.5 c 128,-1,19
 220 1266 220 1266 168 1248 c 1,20,-1
 161 1248 l 1,21,22
 97 1271 97 1271 61 1305 c 0,23,24
 20 1345 20 1345 20 1407 c 128,-1,25
 20 1469 20 1469 61 1509 c 0,26,27
 97 1543 97 1543 161 1566 c 1,14,-1
EndSplineSet
Validated: 1
EndChar

StartChar: copyright
Encoding: 169 169 87
Width: 1321
GlyphClass: 2
Flags: W
HStem: 386 73<474.363 838.202> 588 193<660.437 782.98> 1080 240<655 769.013> 1453 77<476.855 844.866>
VStem: 110 74<768.815 1151.31> 346 174<912.347 1115.42> 1136 75<757.376 1158.43>
LayerCount: 2
Fore
SplineSet
698 1078 m 1,0,1
 685 1080 l 1,2,3
 618 1122 618 1122 526 1134 c 1,4,5
 520 1102 520 1102 520 1068 c 0,6,7
 520 912 520 912 653 830 c 0,8,9
 732 781 732 781 825 781 c 0,10,11
 911 781 911 781 960 825 c 1,12,-1
 970 820 l 1,13,14
 942 761 942 761 888 708 c 8,15,16
 815 637 815 637 690 588 c 1,17,-1
 681 588 l 1,18,19
 566 618 566 618 477 692 c 0,20,21
 346 800 346 800 346 955 c 0,22,23
 346 1090 346 1090 457 1200 c 0,24,25
 526 1270 526 1270 655 1320 c 1,26,-1
 664 1320 l 1,27,28
 773 1291 773 1291 868 1216 c 0,29,30
 887 1201 887 1201 903 1185 c 1,31,32
 809 1157 809 1157 698 1078 c 1,0,1
661 1530 m 0,33,34
 903 1530 903 1530 1059 1357 c 0,35,36
 1211 1188 1211 1188 1211 953 c 0,37,38
 1211 701 1211 701 1050 549 c 0,39,40
 879 386 879 386 659 386 c 0,41,42
 436 386 436 386 271 549 c 0,43,44
 110 708 110 708 110 953 c 0,45,46
 110 1197 110 1197 268 1362 c 0,47,48
 429 1530 429 1530 661 1530 c 0,33,34
659 1453 m 0,49,50
 469 1453 469 1453 327 1312 c 0,51,52
 184 1170 184 1170 184 953 c 0,53,54
 184 760 184 760 324 605 c 0,55,56
 455 459 455 459 661 459 c 0,57,58
 852 459 852 459 997 605 c 0,59,60
 1136 745 1136 745 1136 953 c 0,61,62
 1136 1174 1136 1174 999 1309 c 0,63,64
 853 1453 853 1453 659 1453 c 0,49,50
EndSplineSet
Validated: 1
EndChar

StartChar: ordfeminine
Encoding: 170 170 88
Width: 687
GlyphClass: 2
Flags: W
HStem: 704 196<89 309.831 319.164 370.381 379.623 598.75> 745 118<107.85 579.274>
VStem: 62 174<1117.34 1245.7> 460 157<1060.78 1273.82>
LayerCount: 2
Fore
SplineSet
328 1550 m 1,0,1
 336 1550 l 1,2,3
 427 1514 427 1514 499 1458 c 0,4,5
 617 1367 617 1367 617 1221 c 8,6,7
 617 1078 617 1078 645 935 c 1,8,9
 557 926 557 926 451 893 c 1,10,-1
 444 897 l 1,11,12
 447 925 447 925 449 951 c 1,13,14
 376 898 376 898 359 893 c 1,15,-1
 351 893 l 1,16,17
 242 920 242 920 162 970 c 0,18,19
 62 1032 62 1032 62 1133 c 0,20,21
 62 1298 62 1298 296 1298 c 1,22,-1
 296 1288 l 1,23,24
 236 1255 236 1255 236 1196 c 0,25,26
 236 1139 236 1139 306 1101 c 0,27,28
 360 1072 360 1072 455 1060 c 1,29,30
 460 1085 460 1085 460 1106 c 0,31,32
 460 1258 460 1258 360 1337 c 0,33,34
 274 1405 274 1405 150 1443 c 1,35,36
 212 1505 212 1505 328 1550 c 1,0,1
104 900 m 1,37,38
 227 863 227 863 375 863 c 128,-1,39
 523 863 523 863 661 900 c 1,40,-1
 667 890 l 1,41,42
 611 786 611 786 583 704 c 1,43,44
 464 745 464 745 314.5 745 c 128,-1,45
 165 745 165 745 26 704 c 1,46,-1
 20 714 l 1,47,48
 78 817 78 817 104 900 c 1,37,38
EndSplineSet
Validated: 1
EndChar

StartChar: guillemotleft
Encoding: 171 171 89
Width: 1471
GlyphClass: 2
Flags: W
LayerCount: 2
Fore
SplineSet
661 612 m 1,0,1
 734 755 734 755 770 891 c 1,2,3
 1051 1023 1051 1023 1305 1301 c 1,4,-1
 1311 1291 l 1,5,6
 1225 1120 1225 1120 1194 997 c 1,7,8
 1018 931 1018 931 886 786 c 1,9,10
 1043 586 1043 586 1305 467 c 1,11,-1
 1311 457 l 1,12,13
 1245 327 1245 327 1208 202 c 1,14,15
 963 489 963 489 667 602 c 1,16,-1
 661 612 l 1,0,1
110 612 m 1,17,18
 183 755 183 755 219 891 c 1,19,20
 500 1023 500 1023 754 1301 c 1,21,-1
 760 1291 l 1,22,23
 674 1120 674 1120 643 997 c 1,24,25
 467 931 467 931 335 786 c 1,26,27
 492 586 492 586 754 467 c 1,28,-1
 760 457 l 1,29,30
 694 327 694 327 657 202 c 1,31,32
 412 489 412 489 116 602 c 1,33,-1
 110 612 l 1,17,18
EndSplineSet
Validated: 1
EndChar

StartChar: logicalnot
Encoding: 172 172 90
Width: 1234
GlyphClass: 2
Flags: W
HStem: 656 176<276.92 902.125>
LayerCount: 2
Fore
SplineSet
232 888 m 1,0,1
 435 832 435 832 639 832 c 0,2,3
 870 832 870 832 1118 898 c 1,4,-1
 1124 888 l 1,5,6
 1012 652 1012 652 977 404 c 1,7,8
 872 370 872 370 749 295 c 1,9,-1
 739 301 l 1,10,11
 860 444 860 444 907 623 c 1,12,13
 751 656 751 656 595 656 c 0,14,15
 364 656 364 656 116 590 c 1,16,-1
 110 600 l 1,17,18
 209 774 209 774 232 888 c 1,0,1
EndSplineSet
Validated: 1
EndChar

StartChar: uni00AD
Encoding: 173 173 91
Width: 1234
VWidth: 0
GlyphClass: 2
Flags: W
HStem: 590 298<220.703 322.224 849.609 1010.73> 656 176<276.92 957.08>
LayerCount: 2
Fore
SplineSet
232 888 m 1,0,1
 435 832 435 832 639 832 c 0,2,3
 870 832 870 832 1118 898 c 1,4,-1
 1124 888 l 1,5,6
 1020 690 1020 690 1002 600 c 1,7,8
 799 656 799 656 595 656 c 0,9,10
 364 656 364 656 116 590 c 1,11,-1
 110 600 l 1,12,13
 209 774 209 774 232 888 c 1,0,1
EndSplineSet
Validated: 1
EndChar

StartChar: registered
Encoding: 174 174 92
Width: 1321
GlyphClass: 2
Flags: W
HStem: 386 73<474.363 838.202> 770 85<564.034 680> 1158 192<440.085 724.201> 1453 77<476.855 844.866>
VStem: 110 74<768.815 1151.31> 396 167<644.771 776 855.269 1052.24> 763 196<910.704 1114.04> 1136 75<757.376 1158.43>
LayerCount: 2
Fore
SplineSet
1002 656 m 1,0,1
 914 645 914 645 805 601 c 1,2,-1
 794 606 l 1,3,4
 743 710 743 710 680 774 c 1,5,-1
 639 770 l 0,6,7
 596 770 596 770 563 776 c 1,8,9
 566 731 566 731 589 642 c 1,10,11
 501 633 501 633 395 600 c 1,12,-1
 381 608 l 1,13,14
 396 778 396 778 396 842 c 0,15,16
 396 967 396 967 382 1055 c 1,17,18
 502 1062 502 1062 572 1095 c 1,19,-1
 580 1087 l 1,20,21
 560 929 560 929 560 866 c 1,22,23
 576 855 576 855 621 855 c 0,24,25
 695 855 695 855 736 916 c 0,26,27
 763 956 763 956 763 1012 c 0,28,29
 763 1073 763 1073 727 1111 c 0,30,31
 682 1158 682 1158 606 1158 c 0,32,33
 490 1158 490 1158 340 1054 c 1,34,-1
 333 1061 l 1,35,36
 378 1198 378 1198 385 1294 c 1,37,38
 497 1350 497 1350 610 1350 c 0,39,40
 763 1350 763 1350 855 1274 c 0,41,42
 959 1188 959 1188 959 1061 c 0,43,44
 959 990 959 990 931 933 c 0,45,46
 899 869 899 869 835 826 c 1,47,48
 888 759 888 759 1002 656 c 1,0,1
661 1530 m 0,49,50
 903 1530 903 1530 1059 1357 c 0,51,52
 1211 1188 1211 1188 1211 953 c 0,53,54
 1211 701 1211 701 1050 549 c 0,55,56
 879 386 879 386 659 386 c 0,57,58
 436 386 436 386 271 549 c 0,59,60
 110 708 110 708 110 953 c 0,61,62
 110 1197 110 1197 268 1362 c 0,63,64
 429 1530 429 1530 661 1530 c 0,49,50
659 1453 m 0,65,66
 469 1453 469 1453 327 1312 c 0,67,68
 184 1170 184 1170 184 953 c 0,69,70
 184 760 184 760 324 605 c 0,71,72
 455 459 455 459 661 459 c 0,73,74
 852 459 852 459 997 605 c 0,75,76
 1136 745 1136 745 1136 953 c 0,77,78
 1136 1174 1136 1174 999 1309 c 0,79,80
 853 1453 853 1453 659 1453 c 0,65,66
EndSplineSet
Validated: 1
EndChar

StartChar: macron
Encoding: 175 175 93
Width: 686
GlyphClass: 2
Flags: W
HStem: 1310 196<89 309.346 318.649 369.897 379.107 597.75> 1351 118<107.85 578.274>
VStem: 26 634
LayerCount: 2
Fore
SplineSet
104 1506 m 1,0,1
 227 1469 227 1469 374.5 1469 c 128,-1,2
 522 1469 522 1469 660 1506 c 1,3,-1
 666 1496 l 1,4,5
 610 1392 610 1392 582 1310 c 1,6,7
 463 1351 463 1351 314 1351 c 128,-1,8
 165 1351 165 1351 26 1310 c 1,9,-1
 20 1320 l 1,10,11
 78 1423 78 1423 104 1506 c 1,0,1
EndSplineSet
Validated: 1
EndChar

StartChar: degree
Encoding: 176 176 94
Width: 732
GlyphClass: 2
Flags: W
VStem: 20 158<1124.63 1326.58> 554 158<985.387 1192.05>
LayerCount: 2
Fore
SplineSet
193 1352 m 1,0,1
 178 1314 178 1314 178 1265 c 0,2,3
 178 1120 178 1120 324 1035 c 0,4,5
 406 987 406 987 539 965 c 1,6,7
 554 1002 554 1002 554 1050 c 0,8,9
 554 1197 554 1197 408 1282 c 0,10,11
 326 1330 326 1330 193 1352 c 1,0,1
361 1550 m 1,12,-1
 371 1550 l 1,13,14
 516 1495 516 1495 594 1421 c 0,15,16
 712 1308 712 1308 712 1154 c 0,17,18
 712 990 712 990 575 880 c 0,19,20
 492 814 492 814 371 767 c 1,21,-1
 361 767 l 1,22,23
 239 810 239 810 157 880 c 0,24,25
 20 997 20 997 20 1154 c 0,26,27
 20 1307 20 1307 138 1421 c 0,28,29
 216 1496 216 1496 361 1550 c 1,12,-1
EndSplineSet
Validated: 1
EndChar

StartChar: plusminus
Encoding: 177 177 95
Width: 1234
GlyphClass: 2
Flags: W
HStem: 158 298<220.703 322.224 849.609 1010.73> 224 176<276.92 957.08> 780 298<220.703 323.348 846.593 1010.73>
VStem: 463 298<537.01 642 1163.59 1326.97>
LayerCount: 2
Fore
SplineSet
232 456 m 1,0,1
 435 400 435 400 639 400 c 0,2,3
 870 400 870 400 1118 466 c 1,4,-1
 1124 456 l 1,5,6
 1020 258 1020 258 1002 168 c 1,7,8
 799 224 799 224 595 224 c 0,9,10
 364 224 364 224 116 158 c 1,11,-1
 110 168 l 1,12,13
 209 342 209 342 232 456 c 1,0,1
473 1319 m 1,14,15
 587 1342 587 1342 761 1441 c 1,16,-1
 771 1435 l 1,17,18
 715 1223 715 1223 706 1023 c 1,19,20
 906 1031 906 1031 1118 1088 c 1,21,-1
 1124 1078 l 1,22,23
 1020 880 1020 880 1002 790 c 1,24,25
 856 830 856 830 709 842 c 1,26,27
 720 695 720 695 761 549 c 1,28,29
 671 531 671 531 473 427 c 1,30,-1
 463 433 l 1,31,32
 519 645 519 645 528 845 c 1,33,34
 328 837 328 837 116 780 c 1,35,-1
 110 790 l 1,36,37
 209 964 209 964 232 1078 c 1,38,39
 378 1038 378 1038 525 1026 c 1,40,41
 513 1173 513 1173 473 1319 c 1,14,15
EndSplineSet
Validated: 1
EndChar

StartChar: uni00B2
Encoding: 178 178 96
Width: 640
GlyphClass: 2
Flags: W
HStem: 818 142<236.484 579.594>
VStem: 31 136<1212.58 1380.56> 382 223<1209.74 1324.02>
LayerCount: 2
Fore
SplineSet
301 1550 m 1,0,-1
 312 1550 l 1,1,2
 443 1511 443 1511 510 1462 c 0,3,4
 605 1391 605 1391 605 1279 c 0,5,6
 605 1161 605 1161 456 1087 c 2,7,-1
 234 977 l 1,8,9
 286 960 286 960 344 960 c 0,10,11
 476 960 476 960 614 1017 c 1,12,-1
 620 1011 l 1,13,14
 591 909 591 909 589 790 c 1,15,16
 442 818 442 818 320 818 c 0,17,18
 192 818 192 818 28 794 c 1,19,-1
 20 800 l 1,20,21
 30 946 30 946 117 1034 c 0,22,23
 164 1081 164 1081 280 1164 c 0,24,25
 382 1237 382 1237 382 1274 c 0,26,27
 382 1315 382 1315 280 1350 c 2,28,-1
 186 1382 l 1,29,30
 167 1354 167 1354 167 1320 c 0,31,32
 167 1254 167 1254 243 1234 c 1,33,-1
 110 1159 l 1,34,35
 31 1193 31 1193 31 1279 c 0,36,37
 31 1388 31 1388 139 1465 c 0,38,39
 221 1524 221 1524 301 1550 c 1,0,-1
EndSplineSet
Validated: 1
EndChar

StartChar: uni00B3
Encoding: 179 179 97
Width: 653
GlyphClass: 2
Flags: W
VStem: 52 126<1247.92 1398.38> 356 192<1218.51 1392> 442 191<926.144 1100.84>
LayerCount: 2
Fore
SplineSet
301 1550 m 1,0,1
 314 1550 l 1,2,3
 387 1530 387 1530 465 1482 c 0,4,5
 548 1431 548 1431 548 1353 c 0,6,7
 548 1274 548 1274 467 1231 c 1,8,9
 525 1221 525 1221 572 1184 c 0,10,11
 633 1136 633 1136 633 1051 c 0,12,13
 633 941 633 941 520 856 c 0,14,15
 450 803 450 803 336 784 c 1,16,-1
 323 784 l 1,17,18
 212 800 212 800 134 855 c 0,19,20
 65 903 65 903 20 984 c 1,21,-1
 171 1072 l 1,22,23
 208 1018 208 1018 271 981 c 0,24,25
 333 945 333 945 430 925 c 1,26,27
 442 959 442 959 442 1009 c 0,28,29
 442 1119 442 1119 280 1149 c 1,30,-1
 280 1159 l 1,31,32
 356 1200 356 1200 356 1285 c 0,33,34
 356 1337 356 1337 289 1361 c 2,35,-1
 182 1400 l 1,36,37
 178 1374 178 1374 178 1353 c 0,38,39
 178 1303 178 1303 241 1277 c 1,40,-1
 125 1197 l 1,41,42
 53 1220 53 1220 52 1307 c 0,43,44
 52 1408 52 1408 151 1478 c 0,45,46
 230 1534 230 1534 301 1550 c 1,0,1
EndSplineSet
Validated: 1
EndChar

StartChar: acute
Encoding: 180 180 98
Width: 494
GlyphClass: 2
Flags: W
HStem: 1180 430
VStem: 20 449
LayerCount: 2
Fore
SplineSet
203 1610 m 1,0,1
 303 1528 303 1528 469 1486 c 1,2,-1
 474 1476 l 1,3,4
 243 1386 243 1386 154 1180 c 1,5,6
 144 1180 l 1,7,8
 87 1217 87 1217 20 1238 c 1,9,10
 38 1443 38 1443 203 1610 c 1,0,1
EndSplineSet
Validated: 1
EndChar

StartChar: periodcentered
Encoding: 183 183 99
Width: 418
GlyphClass: 2
Flags: W
HStem: 548 416<111.97 300.861>
VStem: 20 378<638.198 873.802>
LayerCount: 2
Fore
SplineSet
204 964 m 1,0,-1
 214 964 l 1,1,2
 282 941 282 941 340 888 c 128,-1,3
 398 835 398 835 398 756 c 128,-1,4
 398 677 398 677 340 624 c 128,-1,5
 282 571 282 571 214 548 c 1,6,-1
 204 548 l 1,7,8
 120 579 120 579 74 623 c 0,9,10
 20 675 20 675 20 756 c 128,-1,11
 20 837 20 837 74 889 c 0,12,13
 120 933 120 933 204 964 c 1,0,-1
EndSplineSet
Validated: 1
EndChar

StartChar: cedilla
Encoding: 184 184 100
Width: 466
GlyphClass: 2
Flags: W
HStem: -380 204<73.1152 168.734> 0 68<72 148.562>
VStem: 184 262<-166.377 -50.2343>
LayerCount: 2
Fore
SplineSet
72 68 m 1,0,-1
 289 68 l 1,1,-1
 289 0 l 1,2,3
 446 -31 446 -31 446 -159 c 0,4,5
 446 -380 446 -380 26 -380 c 1,6,-1
 20 -370 l 1,7,8
 70 -264 70 -264 80 -176 c 1,9,10
 184 -176 184 -176 184 -99 c 0,11,12
 184 -28 184 -28 72 0 c 1,13,-1
 72 68 l 1,0,-1
EndSplineSet
Validated: 1
EndChar

StartChar: uni00B9
Encoding: 185 185 101
Width: 522
GlyphClass: 2
Flags: W
VStem: 227 199<829.322 1345.27>
LayerCount: 2
Fore
SplineSet
450 1550 m 1,0,-1
 459 1545 l 1,1,2
 426 1393 426 1393 426 1202 c 0,3,4
 426 994 426 994 462 824 c 1,5,6
 381 819 381 819 207 758 c 1,7,-1
 198 764 l 1,8,9
 227 927 227 927 227 1156 c 0,10,11
 227 1283 227 1283 219 1348 c 1,12,13
 170 1298 170 1298 124 1214 c 1,14,15
 95 1252 95 1252 20 1302 c 1,16,17
 113 1373 113 1373 195 1487 c 1,18,19
 308 1500 308 1500 450 1550 c 1,0,-1
EndSplineSet
Validated: 1
EndChar

StartChar: ordmasculine
Encoding: 186 186 102
Width: 687
GlyphClass: 2
Flags: W
HStem: 704 196<89 309.831 319.164 370.381 379.623 598.75> 745 118<107.85 579.274>
VStem: 50 157<1174.89 1373.6> 480 157<1067.58 1268.69>
LayerCount: 2
Fore
SplineSet
212 1384 m 1,0,1
 207 1362 207 1362 207 1338 c 0,2,3
 207 1177 207 1177 319 1113 c 0,4,5
 393 1071 393 1071 475 1060 c 1,6,7
 480 1085 480 1085 480 1106 c 0,8,9
 480 1260 480 1260 372 1331 c 0,10,11
 314 1370 314 1370 212 1384 c 1,0,1
328 1550 m 1,12,-1
 336 1550 l 1,13,14
 439 1523 439 1523 519 1458 c 0,15,16
 637 1362 637 1362 637 1221 c 0,17,18
 637 1095 637 1095 537 1000 c 24,19,20
 471 937 471 937 359 893 c 1,21,-1
 351 893 l 1,22,23
 247 920 247 920 168 985 c 0,24,25
 50 1082 50 1082 50 1222 c 0,26,27
 50 1344 50 1344 150 1443 c 0,28,29
 212 1505 212 1505 328 1550 c 1,12,-1
104 900 m 1,30,31
 227 863 227 863 375 863 c 128,-1,32
 523 863 523 863 661 900 c 1,33,-1
 667 890 l 1,34,35
 611 786 611 786 583 704 c 1,36,37
 464 745 464 745 314.5 745 c 128,-1,38
 165 745 165 745 26 704 c 1,39,-1
 20 714 l 1,40,41
 78 817 78 817 104 900 c 1,30,31
EndSplineSet
Validated: 1
EndChar

StartChar: guillemotright
Encoding: 187 187 103
Width: 1471
GlyphClass: 2
Flags: W
LayerCount: 2
Fore
SplineSet
810 891 m 1,0,1
 737 748 737 748 701 612 c 1,2,3
 420 480 420 480 166 202 c 1,4,-1
 160 212 l 1,5,6
 246 383 246 383 277 506 c 1,7,8
 453 572 453 572 585 717 c 1,9,10
 428 917 428 917 166 1036 c 1,11,-1
 160 1046 l 1,12,13
 226 1176 226 1176 263 1301 c 1,14,15
 508 1014 508 1014 804 901 c 1,16,-1
 810 891 l 1,0,1
1361 891 m 1,17,18
 1288 748 1288 748 1252 612 c 1,19,20
 971 480 971 480 717 202 c 1,21,-1
 711 212 l 1,22,23
 797 383 797 383 828 506 c 1,24,25
 1004 572 1004 572 1136 717 c 1,26,27
 979 917 979 917 717 1036 c 1,28,-1
 711 1046 l 1,29,30
 777 1176 777 1176 814 1301 c 1,31,32
 1059 1014 1059 1014 1355 901 c 1,33,-1
 1361 891 l 1,17,18
EndSplineSet
Validated: 1
EndChar

StartChar: onequarter
Encoding: 188 188 104
Width: 1635
GlyphClass: 2
Flags: W
HStem: 0 21G<493 561 1213 1296.5> 161 86<1054.12 1241.46> 1490 20G<469 549 1074 1142>
VStem: 317 199<789.322 1305.27> 1249 190<260.287 570.772>
LayerCount: 2
Fore
SplineSet
552 0 m 1,0,1
 434 65 434 65 220 99 c 1,2,3
 704 731 704 731 1074 1504 c 1,4,-1
 1083 1510 l 1,5,6
 1201 1445 1201 1445 1415 1411 c 1,7,8
 930 778 930 778 561 6 c 1,9,-1
 552 0 l 1,0,1
540 1510 m 1,10,-1
 549 1505 l 1,11,12
 516 1353 516 1353 516 1162 c 0,13,14
 516 954 516 954 552 784 c 1,15,16
 471 779 471 779 297 718 c 1,17,-1
 288 724 l 1,18,19
 317 887 317 887 317 1116 c 0,20,21
 317 1243 317 1243 309 1308 c 1,22,23
 260 1258 260 1258 214 1174 c 1,24,25
 185 1212 185 1212 110 1262 c 1,26,27
 203 1333 203 1333 285 1447 c 1,28,29
 398 1460 398 1460 540 1510 c 1,10,-1
1222 0 m 1,30,-1
 1213 5 l 1,31,32
 1237 96 1237 96 1242 161 c 1,33,34
 1104 161 1104 161 1000 147 c 1,35,36
 957 220 957 220 908 265 c 1,37,38
 1071 468 1071 468 1210 724 c 1,39,40
 1306 734 1306 734 1465 793 c 1,41,-1
 1474 787 l 1,42,43
 1439 614 1439 614 1439 426.5 c 128,-1,44
 1439 239 1439 239 1475 72 c 1,45,46
 1371 62 1371 62 1222 0 c 1,30,-1
1051 247 m 1,47,48
 1200 251 1200 251 1246 259 c 1,49,50
 1249 300 1249 300 1249 363 c 0,51,52
 1249 472 1249 472 1231 575 c 1,53,54
 1128 422 1128 422 1051 247 c 1,47,48
EndSplineSet
Validated: 1
EndChar

StartChar: onehalf
Encoding: 189 189 105
Width: 1758
GlyphClass: 2
Flags: W
HStem: 0 21G<493 561 998 1088> 24 142<1214.48 1557.59> 1490 20G<469 549 1074 1142>
VStem: 317 199<789.322 1305.27> 1009 136<418.576 586.562> 1360 223<415.74 530.018>
LayerCount: 2
Fore
SplineSet
1279 756 m 1,0,-1
 1290 756 l 1,1,2
 1421 717 1421 717 1488 668 c 0,3,4
 1583 597 1583 597 1583 485 c 0,5,6
 1583 367 1583 367 1434 293 c 2,7,-1
 1212 183 l 1,8,9
 1264 166 1264 166 1322 166 c 0,10,11
 1454 166 1454 166 1592 223 c 1,12,-1
 1598 217 l 1,13,14
 1569 115 1569 115 1567 -4 c 1,15,16
 1420 24 1420 24 1298 24 c 0,17,18
 1170 24 1170 24 1006 0 c 1,19,-1
 998 6 l 1,20,21
 1008 152 1008 152 1095 240 c 0,22,23
 1142 287 1142 287 1258 370 c 0,24,25
 1360 443 1360 443 1360 480 c 0,26,27
 1360 521 1360 521 1258 556 c 2,28,-1
 1164 588 l 1,29,30
 1145 560 1145 560 1145 526 c 0,31,32
 1145 460 1145 460 1221 440 c 1,33,-1
 1088 365 l 1,34,35
 1009 399 1009 399 1009 485 c 0,36,37
 1009 594 1009 594 1117 671 c 0,38,39
 1199 730 1199 730 1279 756 c 1,0,-1
552 0 m 1,40,41
 434 65 434 65 220 99 c 1,42,43
 704 731 704 731 1074 1504 c 1,44,-1
 1083 1510 l 1,45,46
 1201 1445 1201 1445 1415 1411 c 1,47,48
 930 778 930 778 561 6 c 1,49,-1
 552 0 l 1,40,41
540 1510 m 1,50,-1
 549 1505 l 1,51,52
 516 1353 516 1353 516 1162 c 0,53,54
 516 954 516 954 552 784 c 1,55,56
 471 779 471 779 297 718 c 1,57,-1
 288 724 l 1,58,59
 317 887 317 887 317 1116 c 0,60,61
 317 1243 317 1243 309 1308 c 1,62,63
 260 1258 260 1258 214 1174 c 1,64,65
 185 1212 185 1212 110 1262 c 1,66,67
 203 1333 203 1333 285 1447 c 1,68,69
 398 1460 398 1460 540 1510 c 1,50,-1
EndSplineSet
Validated: 1
EndChar

StartChar: threequarters
Encoding: 190 190 106
Width: 1737
GlyphClass: 2
Flags: W
HStem: 0 21G<595 663 1315 1398.5> 161 86<1156.12 1343.46> 1490 20G<355.5 440.5 1176 1244>
VStem: 142 126<1207.92 1358.38> 446 192<1178.51 1352> 532 191<886.144 1060.84> 1351 190<260.287 570.772>
LayerCount: 2
Fore
SplineSet
391 1510 m 1,0,1
 404 1510 l 1,2,3
 477 1490 477 1490 555 1442 c 0,4,5
 638 1391 638 1391 638 1313 c 0,6,7
 638 1234 638 1234 557 1191 c 1,8,9
 615 1181 615 1181 662 1144 c 0,10,11
 723 1096 723 1096 723 1011 c 0,12,13
 723 901 723 901 610 816 c 0,14,15
 540 763 540 763 426 744 c 1,16,-1
 413 744 l 1,17,18
 302 760 302 760 224 815 c 0,19,20
 155 863 155 863 110 944 c 1,21,-1
 261 1032 l 1,22,23
 298 978 298 978 361 941 c 0,24,25
 423 905 423 905 520 885 c 1,26,27
 532 919 532 919 532 969 c 0,28,29
 532 1079 532 1079 370 1109 c 1,30,-1
 370 1119 l 1,31,32
 446 1160 446 1160 446 1245 c 0,33,34
 446 1297 446 1297 379 1321 c 2,35,-1
 272 1360 l 1,36,37
 268 1334 268 1334 268 1313 c 0,38,39
 268 1263 268 1263 331 1237 c 1,40,-1
 215 1157 l 1,41,42
 143 1180 143 1180 142 1267 c 0,43,44
 142 1368 142 1368 241 1438 c 0,45,46
 320 1494 320 1494 391 1510 c 1,0,1
654 0 m 1,47,48
 536 65 536 65 322 99 c 1,49,50
 806 731 806 731 1176 1504 c 1,51,-1
 1185 1510 l 1,52,53
 1303 1445 1303 1445 1517 1411 c 1,54,55
 1032 778 1032 778 663 6 c 1,56,-1
 654 0 l 1,47,48
1324 0 m 1,57,-1
 1315 5 l 1,58,59
 1339 96 1339 96 1344 161 c 1,60,61
 1206 161 1206 161 1102 147 c 1,62,63
 1059 220 1059 220 1010 265 c 1,64,65
 1173 468 1173 468 1312 724 c 1,66,67
 1408 734 1408 734 1567 793 c 1,68,-1
 1576 787 l 1,69,70
 1541 614 1541 614 1541 426.5 c 128,-1,71
 1541 239 1541 239 1577 72 c 1,72,73
 1473 62 1473 62 1324 0 c 1,57,-1
1153 247 m 1,74,75
 1302 251 1302 251 1348 259 c 1,76,77
 1351 300 1351 300 1351 363 c 0,78,79
 1351 472 1351 472 1333 575 c 1,80,81
 1230 422 1230 422 1153 247 c 1,74,75
EndSplineSet
Validated: 1
EndChar

StartChar: questiondown
Encoding: 191 191 107
Width: 1239
GlyphClass: 2
Flags: W
HStem: -380 21G<487.5 768.5> 1110 20G<590 676>
VStem: 110 289<48.2295 275.104> 440 378<804.198 1039.8> 979 150<-70.8906 169>
LayerCount: 2
Fore
SplineSet
624 1130 m 1,0,-1
 634 1130 l 1,1,2
 718 1099 718 1099 764 1055 c 0,3,4
 818 1003 818 1003 818 922 c 128,-1,5
 818 841 818 841 764 789 c 0,6,7
 718 745 718 745 634 714 c 1,8,-1
 624 714 l 1,9,10
 556 737 556 737 498 790 c 128,-1,11
 440 843 440 843 440 922 c 128,-1,12
 440 1001 440 1001 498 1054 c 128,-1,13
 556 1107 556 1107 624 1130 c 1,0,-1
634 -380 m 1,14,-1
 624 -380 l 1,15,16
 351 -286 351 -286 207 -127 c 0,17,18
 110 -21 110 -21 110 121 c 0,19,20
 110 328 110 328 302 453 c 2,21,-1
 457 554 l 2,22,23
 518 594 518 594 538 624 c 1,24,25
 627 642 627 642 710 682 c 1,26,-1
 720 676 l 1,27,28
 720 580 720 580 617 467 c 2,29,-1
 461 296 l 2,30,31
 399 228 399 228 399 152 c 0,32,33
 399 79 399 79 468 26 c 0,34,35
 657 -116 657 -116 951 -116 c 1,36,37
 979 -77 979 -77 979 -30 c 0,38,39
 979 66 979 66 896 133 c 0,40,41
 828 188 828 188 726 222 c 1,42,43
 862 238 862 238 1013 319 c 1,44,-1
 1021 317 l 1,45,46
 1129 239 1129 239 1129 99 c 0,47,48
 1129 -50 1129 -50 1006 -175 c 0,49,50
 903 -280 903 -280 634 -380 c 1,14,-1
EndSplineSet
Validated: 1
EndChar

StartChar: multiply
Encoding: 215 215 108
Width: 1146
VWidth: 0
GlyphClass: 2
Flags: W
LayerCount: 2
Fore
SplineSet
743 1118 m 1,0,1
 840 1054 840 1054 1033 1001 c 1,2,-1
 1036 989 l 1,3,4
 846 879 846 879 699 744 c 1,5,6
 846 608 846 608 1036 499 c 1,7,-1
 1033 487 l 1,8,9
 819 421 819 421 743 370 c 1,10,11
 668 502 668 502 573 614 c 1,12,13
 477 502 477 502 403 370 c 1,14,15
 327 421 327 421 113 487 c 1,16,-1
 110 499 l 1,17,18
 300 609 300 609 447 744 c 1,19,20
 300 880 300 880 110 989 c 1,21,-1
 113 1001 l 1,22,23
 306 1054 306 1054 403 1118 c 1,24,25
 478 986 478 986 573 874 c 1,26,27
 668 986 668 986 743 1118 c 1,0,1
EndSplineSet
Validated: 1
EndChar

StartChar: divide
Encoding: 247 247 109
Width: 1234
VWidth: 0
GlyphClass: 2
Flags: W
HStem: 590 298<220.703 322.224 849.609 1010.73> 656 176<276.92 957.08>
VStem: 428 378<248.198 483.802 1004.2 1239.8>
LayerCount: 2
Fore
SplineSet
622 158 m 1,0,-1
 612 158 l 1,1,2
 544 181 544 181 486 234 c 128,-1,3
 428 287 428 287 428 366 c 128,-1,4
 428 445 428 445 486 498 c 128,-1,5
 544 551 544 551 612 574 c 1,6,-1
 622 574 l 1,7,8
 706 543 706 543 752 499 c 0,9,10
 806 447 806 447 806 366 c 128,-1,11
 806 285 806 285 752 233 c 0,12,13
 706 189 706 189 622 158 c 1,0,-1
232 888 m 1,14,15
 435 832 435 832 639 832 c 0,16,17
 870 832 870 832 1118 898 c 1,18,-1
 1124 888 l 1,19,20
 1020 690 1020 690 1002 600 c 1,21,22
 799 656 799 656 595 656 c 0,23,24
 364 656 364 656 116 590 c 1,25,-1
 110 600 l 1,26,27
 209 774 209 774 232 888 c 1,14,15
612 1330 m 1,28,-1
 622 1330 l 1,29,30
 690 1307 690 1307 748 1254 c 128,-1,31
 806 1201 806 1201 806 1122 c 128,-1,32
 806 1043 806 1043 748 990 c 128,-1,33
 690 937 690 937 622 914 c 1,34,-1
 612 914 l 1,35,36
 528 945 528 945 482 989 c 0,37,38
 428 1041 428 1041 428 1122 c 128,-1,39
 428 1203 428 1203 482 1255 c 0,40,41
 528 1299 528 1299 612 1330 c 1,28,-1
EndSplineSet
Validated: 1
EndChar

StartChar: endash
Encoding: 8211 8211 110
Width: 1234
VWidth: 0
GlyphClass: 2
Flags: W
HStem: 590 298<220.703 322.224 849.609 1010.73> 656 176<276.92 957.08>
LayerCount: 2
Fore
SplineSet
232 888 m 1,0,1
 435 832 435 832 639 832 c 0,2,3
 870 832 870 832 1118 898 c 1,4,-1
 1124 888 l 1,5,6
 1020 690 1020 690 1002 600 c 1,7,8
 799 656 799 656 595 656 c 0,9,10
 364 656 364 656 116 590 c 1,11,-1
 110 600 l 1,12,13
 209 774 209 774 232 888 c 1,0,1
EndSplineSet
Validated: 1
EndChar

StartChar: emdash
Encoding: 8212 8212 111
Width: 1634
GlyphClass: 2
Flags: W
HStem: 590 298<220.703 422.697 1166.17 1410.73> 656 176<325.657 1302.54>
LayerCount: 2
Fore
SplineSet
232 888 m 1,0,1
 531 832 531 832 839 832 c 0,2,3
 1161 832 1161 832 1518 898 c 1,4,-1
 1524 888 l 1,5,6
 1420 690 1420 690 1402 600 c 1,7,8
 1081 656 1081 656 795 656 c 0,9,10
 497 656 497 656 116 590 c 1,11,-1
 110 600 l 1,12,13
 209 774 209 774 232 888 c 1,0,1
EndSplineSet
Validated: 1
EndChar

StartChar: afii00208
Encoding: 8213 8213 112
Width: 1634
GlyphClass: 2
Flags: W
HStem: 590 298<220.703 422.697 1166.17 1410.73> 656 176<325.657 1302.54>
LayerCount: 2
Fore
SplineSet
232 888 m 1,0,1
 531 832 531 832 839 832 c 0,2,3
 1161 832 1161 832 1518 898 c 1,4,-1
 1524 888 l 1,5,6
 1420 690 1420 690 1402 600 c 1,7,8
 1081 656 1081 656 795 656 c 0,9,10
 497 656 497 656 116 590 c 1,11,-1
 110 600 l 1,12,13
 209 774 209 774 232 888 c 1,0,1
EndSplineSet
Validated: 1
EndChar

StartChar: quoteleft
Encoding: 8216 8216 113
Width: 452
GlyphClass: 2
Flags: W
HStem: 1534 16<421.215 432>
VStem: 20 412<976.133 1170.68>
LayerCount: 2
Fore
SplineSet
432 1550 m 1,0,-1
 432 1534 l 1,1,2
 257 1408 257 1408 238 1268 c 1,3,4
 322 1237 322 1237 368 1193 c 0,5,6
 422 1141 422 1141 422 1060 c 128,-1,7
 422 979 422 979 368 927 c 0,8,9
 322 883 322 883 238 852 c 1,10,-1
 228 852 l 1,11,12
 164 872 164 872 118 913 c 0,13,14
 20 1001 20 1001 20 1139 c 0,15,16
 20 1437 20 1437 432 1550 c 1,0,-1
EndSplineSet
Validated: 1
EndChar

StartChar: quoteright
Encoding: 8217 8217 114
Width: 452
GlyphClass: 2
Flags: W
HStem: 852 16<20 30.7852>
VStem: 20 412<1231.32 1425.87>
LayerCount: 2
Fore
SplineSet
214 1550 m 1,0,-1
 224 1550 l 1,1,2
 288 1530 288 1530 334 1489 c 0,3,4
 432 1401 432 1401 432 1263 c 0,5,6
 432 965 432 965 20 852 c 1,7,-1
 20 868 l 1,8,9
 195 994 195 994 214 1134 c 1,10,11
 130 1165 130 1165 84 1209 c 0,12,13
 30 1261 30 1261 30 1342 c 128,-1,14
 30 1423 30 1423 84 1475 c 0,15,16
 130 1519 130 1519 214 1550 c 1,0,-1
EndSplineSet
Validated: 1
EndChar

StartChar: quotesinglbase
Encoding: 8218 8218 115
Width: 452
GlyphClass: 2
Flags: W
HStem: -282 16<20 30.7852>
VStem: 20 412<97.3215 291.867>
LayerCount: 2
Fore
SplineSet
214 0 m 1,0,1
 130 31 130 31 84 75 c 0,2,3
 30 127 30 127 30 208 c 128,-1,4
 30 289 30 289 84 341 c 0,5,6
 130 385 130 385 214 416 c 1,7,-1
 224 416 l 1,8,9
 288 396 288 396 334 355 c 0,10,11
 432 267 432 267 432 129 c 0,12,13
 432 -169 432 -169 20 -282 c 1,14,-1
 20 -266 l 1,15,16
 195 -140 195 -140 214 0 c 1,0,1
EndSplineSet
Validated: 1
EndChar

StartChar: quotereversed
Encoding: 8219 8219 116
Width: 452
GlyphClass: 2
Flags: W
HStem: 852 16<421.215 432>
VStem: 20 412<1231.32 1425.87>
LayerCount: 2
Fore
SplineSet
238 1550 m 1,0,1
 322 1519 322 1519 368 1475 c 0,2,3
 422 1423 422 1423 422 1342 c 128,-1,4
 422 1261 422 1261 368 1209 c 0,5,6
 322 1165 322 1165 238 1134 c 1,7,8
 257 994 257 994 432 868 c 1,9,-1
 432 852 l 1,10,11
 20 965 20 965 20 1263 c 0,12,13
 20 1401 20 1401 118 1489 c 0,14,15
 164 1530 164 1530 228 1550 c 1,16,-1
 238 1550 l 1,0,1
EndSplineSet
Validated: 1
EndChar

StartChar: quotedblleft
Encoding: 8220 8220 117
Width: 916
GlyphClass: 2
Flags: W
HStem: 1534 16<421.215 432 885.215 896>
VStem: 20 412<976.133 1170.68> 484 412<976.133 1170.68>
LayerCount: 2
Fore
SplineSet
432 1550 m 1,0,-1
 432 1534 l 1,1,2
 257 1408 257 1408 238 1268 c 1,3,4
 322 1237 322 1237 368 1193 c 0,5,6
 422 1141 422 1141 422 1060 c 128,-1,7
 422 979 422 979 368 927 c 0,8,9
 322 883 322 883 238 852 c 1,10,-1
 228 852 l 1,11,12
 164 872 164 872 118 913 c 0,13,14
 20 1001 20 1001 20 1139 c 0,15,16
 20 1437 20 1437 432 1550 c 1,0,-1
896 1550 m 1,17,-1
 896 1534 l 1,18,19
 721 1408 721 1408 702 1268 c 1,20,21
 786 1237 786 1237 832 1193 c 0,22,23
 886 1141 886 1141 886 1060 c 128,-1,24
 886 979 886 979 832 927 c 0,25,26
 786 883 786 883 702 852 c 1,27,-1
 692 852 l 1,28,29
 628 872 628 872 582 913 c 0,30,31
 484 1001 484 1001 484 1139 c 0,32,33
 484 1437 484 1437 896 1550 c 1,17,-1
EndSplineSet
Validated: 1
EndChar

StartChar: quotedblright
Encoding: 8221 8221 118
Width: 916
GlyphClass: 2
Flags: W
HStem: 852 16<20 30.7852 484 494.785>
VStem: 20 412<1231.32 1425.87> 484 412<1231.32 1425.87>
LayerCount: 2
Fore
SplineSet
678 1134 m 1,0,1
 594 1165 594 1165 548 1209 c 0,2,3
 494 1261 494 1261 494 1342 c 128,-1,4
 494 1423 494 1423 548 1475 c 0,5,6
 594 1519 594 1519 678 1550 c 1,7,-1
 688 1550 l 1,8,9
 752 1530 752 1530 798 1489 c 0,10,11
 896 1401 896 1401 896 1263 c 0,12,13
 896 965 896 965 484 852 c 1,14,-1
 484 868 l 1,15,16
 659 994 659 994 678 1134 c 1,0,1
214 1134 m 1,17,18
 130 1165 130 1165 84 1209 c 0,19,20
 30 1261 30 1261 30 1342 c 128,-1,21
 30 1423 30 1423 84 1475 c 0,22,23
 130 1519 130 1519 214 1550 c 1,24,-1
 224 1550 l 1,25,26
 288 1530 288 1530 334 1489 c 0,27,28
 432 1401 432 1401 432 1263 c 0,29,30
 432 965 432 965 20 852 c 1,31,-1
 20 868 l 1,32,33
 195 994 195 994 214 1134 c 1,17,18
EndSplineSet
Validated: 1
EndChar

StartChar: quotedblbase
Encoding: 8222 8222 119
Width: 916
GlyphClass: 2
Flags: W
HStem: -282 16<20 30.7852 484 494.785>
VStem: 20 412<97.3215 291.867> 484 412<97.3215 291.867>
LayerCount: 2
Fore
SplineSet
678 0 m 1,0,1
 594 31 594 31 548 75 c 0,2,3
 494 127 494 127 494 208 c 128,-1,4
 494 289 494 289 548 341 c 0,5,6
 594 385 594 385 678 416 c 1,7,-1
 688 416 l 1,8,9
 752 396 752 396 798 355 c 0,10,11
 896 267 896 267 896 129 c 0,12,13
 896 -169 896 -169 484 -282 c 1,14,-1
 484 -266 l 1,15,16
 659 -140 659 -140 678 0 c 1,0,1
214 0 m 1,17,18
 130 31 130 31 84 75 c 0,19,20
 30 127 30 127 30 208 c 128,-1,21
 30 289 30 289 84 341 c 0,22,23
 130 385 130 385 214 416 c 1,24,-1
 224 416 l 1,25,26
 288 396 288 396 334 355 c 0,27,28
 432 267 432 267 432 129 c 0,29,30
 432 -169 432 -169 20 -282 c 1,31,-1
 20 -266 l 1,32,33
 195 -140 195 -140 214 0 c 1,17,18
EndSplineSet
Validated: 1
EndChar

StartChar: dagger
Encoding: 8224 8224 120
Width: 1020
GlyphClass: 2
Flags: W
HStem: 0 21G<339 437.5> 934 196<179 365.343 645.032 841.75> 1490 20G<577.5 681>
VStem: 339 342<112.592 588.872 1108.75 1396.2> 385 246<194.347 967>
LayerCount: 2
Fore
SplineSet
349 0 m 1,0,-1
 339 6 l 1,1,2
 385 409 385 409 385 724 c 0,3,4
 385 841 385 841 378 970 c 1,5,6
 255 961 255 961 116 934 c 1,7,-1
 110 944 l 1,8,9
 168 1047 168 1047 194 1130 c 1,10,11
 283 1113 283 1113 368 1104 c 1,12,13
 357 1240 357 1240 339 1387 c 1,14,15
 484 1415 484 1415 671 1510 c 1,16,-1
 681 1504 l 1,17,18
 653 1300 653 1300 641 1096 c 1,19,20
 770 1103 770 1103 904 1130 c 1,21,-1
 910 1120 l 1,22,23
 854 1016 854 1016 826 934 c 1,24,25
 732 957 732 957 635 967 c 1,26,27
 631 872 631 872 631 778 c 0,28,29
 631 509 631 509 681 123 c 1,30,31
 526 90 526 90 349 0 c 1,0,-1
EndSplineSet
Validated: 1
EndChar

StartChar: daggerdbl
Encoding: 8225 8225 121
Width: 1020
GlyphClass: 2
Flags: W
HStem: 0 21G<339 437.5> 380 196<178.25 371.03 652.965 841> 934 196<179 365.343 645.032 841.75> 1490 20G<577.5 681>
VStem: 339 342<112.592 401.87 1108.75 1396.2> 385 246<543 967>
LayerCount: 2
Fore
SplineSet
349 0 m 1,0,-1
 339 6 l 1,1,2
 364 223 364 223 375 414 c 1,3,4
 248 407 248 407 116 380 c 1,5,-1
 110 390 l 1,6,7
 166 494 166 494 194 576 c 1,8,9
 286 553 286 553 381 543 c 1,10,11
 385 637 385 637 385 724 c 0,12,13
 385 841 385 841 378 970 c 1,14,15
 255 961 255 961 116 934 c 1,16,-1
 110 944 l 1,17,18
 168 1047 168 1047 194 1130 c 1,19,20
 283 1113 283 1113 368 1104 c 1,21,22
 357 1240 357 1240 339 1387 c 1,23,24
 484 1415 484 1415 671 1510 c 1,25,-1
 681 1504 l 1,26,27
 653 1300 653 1300 641 1096 c 1,28,29
 770 1103 770 1103 904 1130 c 1,30,-1
 910 1120 l 1,31,32
 854 1016 854 1016 826 934 c 1,33,34
 732 957 732 957 635 967 c 1,35,36
 631 872 631 872 631 778 c 0,37,38
 631 669 631 669 639 540 c 1,39,40
 773 549 773 549 904 576 c 1,41,-1
 910 566 l 1,42,43
 852 463 852 463 826 380 c 1,44,45
 745 397 745 397 650 406 c 1,46,47
 662 274 662 274 681 123 c 1,48,49
 526 90 526 90 349 0 c 1,0,-1
EndSplineSet
Validated: 1
EndChar

StartChar: bullet
Encoding: 8226 8226 122
Width: 912
VWidth: 0
GlyphClass: 2
Flags: W
VStem: 110 692<578.775 913.987>
LayerCount: 2
Fore
SplineSet
451 1138 m 1,0,-1
 461 1138 l 1,1,2
 606 1083 606 1083 684 1009 c 0,3,4
 802 896 802 896 802 742 c 0,5,6
 802 578 802 578 665 468 c 0,7,8
 582 402 582 402 461 355 c 1,9,-1
 451 355 l 1,10,11
 329 398 329 398 247 468 c 0,12,13
 110 585 110 585 110 742 c 0,14,15
 110 895 110 895 228 1009 c 0,16,17
 306 1084 306 1084 451 1138 c 1,0,-1
EndSplineSet
Validated: 1
EndChar

StartChar: ellipsis
Encoding: 8230 8230 123
Width: 1302
GlyphClass: 2
Flags: W
HStem: 0 416<111.97 300.861 553.97 742.861 995.97 1184.86>
VStem: 20 378<90.1985 325.802> 462 378<90.1985 325.802> 904 378<90.1985 325.802>
CounterMasks: 1 70
LayerCount: 2
Fore
SplineSet
1098 0 m 1,0,-1
 1088 0 l 1,1,2
 1004 31 1004 31 958 75 c 0,3,4
 904 127 904 127 904 208 c 128,-1,5
 904 289 904 289 958 341 c 0,6,7
 1004 385 1004 385 1088 416 c 1,8,-1
 1098 416 l 1,9,10
 1166 393 1166 393 1224 340 c 128,-1,11
 1282 287 1282 287 1282 208 c 128,-1,12
 1282 129 1282 129 1224 76 c 128,-1,13
 1166 23 1166 23 1098 0 c 1,0,-1
656 0 m 1,14,-1
 646 0 l 1,15,16
 562 31 562 31 516 75 c 0,17,18
 462 127 462 127 462 208 c 128,-1,19
 462 289 462 289 516 341 c 0,20,21
 562 385 562 385 646 416 c 1,22,-1
 656 416 l 1,23,24
 724 393 724 393 782 340 c 128,-1,25
 840 287 840 287 840 208 c 128,-1,26
 840 129 840 129 782 76 c 128,-1,27
 724 23 724 23 656 0 c 1,14,-1
214 0 m 1,28,-1
 204 0 l 1,29,30
 120 31 120 31 74 75 c 0,31,32
 20 127 20 127 20 208 c 128,-1,33
 20 289 20 289 74 341 c 0,34,35
 120 385 120 385 204 416 c 1,36,-1
 214 416 l 1,37,38
 282 393 282 393 340 340 c 128,-1,39
 398 287 398 287 398 208 c 128,-1,40
 398 129 398 129 340 76 c 128,-1,41
 282 23 282 23 214 0 c 1,28,-1
EndSplineSet
Validated: 1
EndChar

StartChar: perthousand
Encoding: 8240 8240 124
Width: 2560
GlyphClass: 2
Flags: W
HStem: 0 21G<590 658 1295.5 1450.5 2026.5 2181.5> 1490 20G<378.5 533.5 1171 1239>
VStem: 110 158<1084.63 1286.58> 644 158<945.387 1152.05> 1027 158<357.951 564.613> 1561 158<223.419 425.368> 1758 158<357.951 564.613> 2292 158<223.419 425.368>
LayerCount: 2
Fore
SplineSet
2277 198 m 1,0,1
 2292 236 2292 236 2292 285 c 0,2,3
 2292 430 2292 430 2146 515 c 0,4,5
 2064 563 2064 563 1931 585 c 1,6,7
 1916 548 1916 548 1916 500 c 0,8,9
 1916 353 1916 353 2062 268 c 0,10,11
 2144 220 2144 220 2277 198 c 1,0,1
2109 0 m 1,12,-1
 2099 0 l 1,13,14
 1954 55 1954 55 1876 129 c 0,15,16
 1758 242 1758 242 1758 396 c 0,17,18
 1758 560 1758 560 1895 670 c 0,19,20
 1978 736 1978 736 2099 783 c 1,21,-1
 2109 783 l 1,22,23
 2231 740 2231 740 2313 670 c 0,24,25
 2450 553 2450 553 2450 396 c 0,26,27
 2450 243 2450 243 2332 129 c 0,28,29
 2254 54 2254 54 2109 0 c 1,12,-1
1546 198 m 1,30,31
 1561 236 1561 236 1561 285 c 0,32,33
 1561 430 1561 430 1415 515 c 0,34,35
 1333 563 1333 563 1200 585 c 1,36,37
 1185 548 1185 548 1185 500 c 0,38,39
 1185 353 1185 353 1331 268 c 0,40,41
 1413 220 1413 220 1546 198 c 1,30,31
1378 0 m 1,42,-1
 1368 0 l 1,43,44
 1223 55 1223 55 1145 129 c 0,45,46
 1027 242 1027 242 1027 396 c 0,47,48
 1027 560 1027 560 1164 670 c 0,49,50
 1247 736 1247 736 1368 783 c 1,51,-1
 1378 783 l 1,52,53
 1500 740 1500 740 1582 670 c 0,54,55
 1719 553 1719 553 1719 396 c 0,56,57
 1719 243 1719 243 1601 129 c 0,58,59
 1523 54 1523 54 1378 0 c 1,42,-1
283 1312 m 1,60,61
 268 1274 268 1274 268 1225 c 0,62,63
 268 1080 268 1080 414 995 c 0,64,65
 496 947 496 947 629 925 c 1,66,67
 644 962 644 962 644 1010 c 0,68,69
 644 1157 644 1157 498 1242 c 0,70,71
 416 1290 416 1290 283 1312 c 1,60,61
451 1510 m 1,72,-1
 461 1510 l 1,73,74
 606 1455 606 1455 684 1381 c 0,75,76
 802 1268 802 1268 802 1114 c 0,77,78
 802 950 802 950 665 840 c 0,79,80
 582 774 582 774 461 727 c 1,81,-1
 451 727 l 1,82,83
 329 770 329 770 247 840 c 0,84,85
 110 957 110 957 110 1114 c 0,86,87
 110 1267 110 1267 228 1381 c 0,88,89
 306 1456 306 1456 451 1510 c 1,72,-1
649 0 m 1,90,91
 531 65 531 65 317 99 c 1,92,93
 801 731 801 731 1171 1504 c 1,94,-1
 1180 1510 l 1,95,96
 1298 1445 1298 1445 1512 1411 c 1,97,98
 1027 778 1027 778 658 6 c 1,99,-1
 649 0 l 1,90,91
EndSplineSet
Validated: 1
EndChar

StartChar: minute
Encoding: 8242 8242 125
Width: 407
GlyphClass: 2
Flags: W
HStem: 1147 403
VStem: 153 234<1415.96 1524>
LayerCount: 2
Fore
SplineSet
153 1524 m 1,0,1
 295 1524 295 1524 382 1550 c 1,2,-1
 387 1544 l 1,3,4
 323 1319 323 1319 199 1157 c 1,5,6
 77 1157 77 1157 25 1147 c 1,7,-1
 20 1154 l 1,8,9
 137 1362 137 1362 153 1524 c 1,0,1
EndSplineSet
Validated: 1
EndChar

StartChar: second
Encoding: 8243 8243 126
Width: 744
GlyphClass: 2
Flags: W
HStem: 1147 403
VStem: 153 234<1415.96 1524> 490 234<1415.96 1524>
LayerCount: 2
Fore
SplineSet
490 1524 m 1,0,1
 632 1524 632 1524 719 1550 c 1,2,-1
 724 1544 l 1,3,4
 660 1319 660 1319 536 1157 c 1,5,6
 414 1157 414 1157 362 1147 c 1,7,-1
 357 1154 l 1,8,9
 474 1362 474 1362 490 1524 c 1,0,1
153 1524 m 1,10,11
 295 1524 295 1524 382 1550 c 1,12,-1
 387 1544 l 1,13,14
 323 1319 323 1319 199 1157 c 1,15,16
 77 1157 77 1157 25 1147 c 1,17,-1
 20 1154 l 1,18,19
 137 1362 137 1362 153 1524 c 1,10,11
EndSplineSet
Validated: 1
EndChar

StartChar: guilsinglleft
Encoding: 8249 8249 127
Width: 920
GlyphClass: 2
Flags: W
VStem: 110 644
LayerCount: 2
Fore
SplineSet
110 612 m 1,0,1
 183 755 183 755 219 891 c 1,2,3
 500 1023 500 1023 754 1301 c 1,4,-1
 760 1291 l 1,5,6
 674 1120 674 1120 643 997 c 1,7,8
 467 931 467 931 335 786 c 1,9,10
 492 586 492 586 754 467 c 1,11,-1
 760 457 l 1,12,13
 694 327 694 327 657 202 c 1,14,15
 412 489 412 489 116 602 c 1,16,-1
 110 612 l 1,0,1
EndSplineSet
Validated: 1
EndChar

StartChar: guilsinglright
Encoding: 8250 8250 128
Width: 920
GlyphClass: 2
Flags: W
VStem: 166 644
LayerCount: 2
Fore
SplineSet
810 891 m 1,0,1
 737 748 737 748 701 612 c 1,2,3
 420 480 420 480 166 202 c 1,4,-1
 160 212 l 1,5,6
 246 383 246 383 277 506 c 1,7,8
 453 572 453 572 585 717 c 1,9,10
 428 917 428 917 166 1036 c 1,11,-1
 160 1046 l 1,12,13
 226 1176 226 1176 263 1301 c 1,14,15
 508 1014 508 1014 804 901 c 1,16,-1
 810 891 l 1,0,1
EndSplineSet
Validated: 1
EndChar

StartChar: fraction
Encoding: 8260 8260 129
Width: 1215
GlyphClass: 2
Flags: W
HStem: 0 21G<283 351> 1490 20G<864 932>
LayerCount: 2
Fore
SplineSet
342 0 m 1,0,1
 224 65 224 65 10 99 c 1,2,3
 494 731 494 731 864 1504 c 1,4,-1
 873 1510 l 1,5,6
 991 1445 991 1445 1205 1411 c 1,7,8
 720 778 720 778 351 6 c 1,9,-1
 342 0 l 1,0,1
EndSplineSet
Validated: 1
EndChar

StartChar: Euro
Encoding: 8364 8364 130
Width: 1483
GlyphClass: 2
Flags: W
HStem: 0 21G<712 993.5> 516 196<129 235.562 655.349 1077.75> 557 118<605 1054.78> 767 196<129 234.436 655.349 1077.75> 808 118<470 1054.78> 1490 20G<716 993>
LayerCount: 2
Fore
SplineSet
858 0 m 1,0,-1
 848 0 l 1,1,2
 576 98 576 98 428 261 c 0,3,4
 312 388 312 388 266 539 c 1,5,6
 171 530 171 530 66 516 c 1,7,-1
 60 526 l 1,8,9
 118 629 118 629 144 712 c 1,10,11
 191 706 191 706 237 700 c 1,12,13
 236 723 236 723 236 746 c 0,14,15
 236 767 236 767 237 787 c 1,16,17
 155 779 155 779 66 767 c 1,18,-1
 60 777 l 1,19,20
 118 880 118 880 144 963 c 1,21,22
 205 955 205 955 265 948 c 1,23,24
 312 1109 312 1109 437 1254 c 0,25,26
 584 1425 584 1425 848 1510 c 1,27,-1
 858 1510 l 1,28,29
 1128 1412 1128 1412 1278 1249 c 1,30,-1
 1275 1238 l 1,31,32
 1126 1211 1126 1211 915 1093 c 1,33,34
 722 1196 722 1196 511 1196 c 1,35,36
 455 1075 455 1075 455 932 c 1,37,38
 554 926 554 926 648 926 c 0,39,40
 883 926 883 926 1140 963 c 1,41,-1
 1146 953 l 1,42,43
 1090 849 1090 849 1062 767 c 1,44,45
 831 808 831 808 607 808 c 0,46,47
 542 808 542 808 470 805 c 1,48,49
 486 739 486 739 519 678 c 1,50,51
 585 675 585 675 648 675 c 0,52,53
 883 675 883 675 1140 712 c 1,54,-1
 1146 702 l 1,55,56
 1090 598 1090 598 1062 516 c 1,57,58
 831 557 831 557 605 557 c 1,59,60
 669 487 669 487 760 426 c 0,61,62
 927 314 927 314 1109 314 c 0,63,64
 1266 314 1266 314 1362 410 c 1,65,-1
 1373 404 l 1,66,67
 1331 328 1331 328 1269 256 c 0,68,69
 1129 92 1129 92 858 0 c 1,0,-1
EndSplineSet
Validated: 1
EndChar

StartChar: afii61248
Encoding: 8453 8453 131
Width: 1619
GlyphClass: 2
Flags: W
HStem: 0 21G<476 544 1133.5 1262> 778 193<424.437 546.98> 1270 240<419 533.013>
VStem: 110 175<1105.76 1303.78> 856 175<319.611 526.66> 1334 175<202.116 409.695>
LayerCount: 2
Fore
SplineSet
535 0 m 1,0,1
 417 65 417 65 203 99 c 1,2,3
 687 731 687 731 1057 1504 c 1,4,-1
 1066 1510 l 1,5,6
 1184 1445 1184 1445 1398 1411 c 1,7,8
 913 778 913 778 544 6 c 1,9,-1
 535 0 l 1,0,1
419 1510 m 1,10,-1
 428 1510 l 1,11,12
 537 1481 537 1481 632 1406 c 0,13,14
 651 1391 651 1391 667 1375 c 1,15,16
 573 1347 573 1347 462 1268 c 1,17,-1
 449 1270 l 1,18,19
 382 1312 382 1312 290 1324 c 1,20,21
 285 1297 285 1297 285 1273 c 0,22,23
 285 1101 285 1101 417 1020 c 0,24,25
 496 971 496 971 589 971 c 0,26,27
 675 971 675 971 724 1015 c 1,28,-1
 734 1010 l 1,29,30
 706 951 706 951 652 898 c 8,31,32
 579 827 579 827 454 778 c 1,33,-1
 445 778 l 1,34,35
 330 808 330 808 241 882 c 0,36,37
 110 990 110 990 110 1145 c 0,38,39
 110 1277 110 1277 221 1390 c 0,40,41
 290 1460 290 1460 419 1510 c 1,10,-1
1036 546 m 1,42,43
 1031 537 1031 537 1031 495 c 0,44,45
 1031 316 1031 316 1155 245 c 0,46,47
 1237 198 1237 198 1329 186 c 1,48,49
 1334 213 1334 213 1334 237 c 0,50,51
 1334 408 1334 408 1214 487 c 0,52,53
 1149 530 1149 530 1036 546 c 1,42,43
1200 0 m 1,54,-1
 1191 0 l 1,55,56
 1076 30 1076 30 987 103 c 0,57,58
 857 211 857 211 856 366 c 0,59,60
 856 501 856 501 967 612 c 0,61,62
 1036 681 1036 681 1165 731 c 1,63,-1
 1174 731 l 1,64,65
 1288 701 1288 701 1378 628 c 0,66,67
 1508 522 1508 522 1509 365 c 0,68,69
 1509 225 1509 225 1398 119 c 24,70,71
 1324 49 1324 49 1200 0 c 1,54,-1
EndSplineSet
Validated: 1
EndChar

StartChar: afii61289
Encoding: 8467 8467 132
Width: 1096
GlyphClass: 2
Flags: W
HStem: 1 21G<533 642.5> 1490 20G<703 794>
LayerCount: 2
Fore
SplineSet
588 1 m 0,0,1
 478 1 478 1 400 64 c 1,2,-1
 372 21 l 1,3,-1
 10 21 l 1,4,5
 180 214 180 214 268 337 c 1,6,7
 259 403 259 403 259 471 c 0,8,9
 259 602 259 602 290 741 c 0,10,11
 395 1210 395 1210 559 1401 c 1,12,13
 648 1510 648 1510 758 1510 c 0,14,15
 830 1510 830 1510 893 1458 c 128,-1,16
 956 1406 956 1406 956 1258 c 0,17,18
 956 1168 956 1168 925 1023 c 0,19,20
 857 704 857 704 573 291 c 1,21,22
 579 237 579 237 596 237 c 0,23,24
 632 237 632 237 669 336 c 1,25,-1
 986 336 l 1,26,27
 914 197 914 197 805.5 99 c 128,-1,28
 697 1 697 1 588 1 c 0,0,1
EndSplineSet
Validated: 1
EndChar

StartChar: trademark
Encoding: 8482 8482 133
Width: 1690
GlyphClass: 2
Flags: W
VStem: 286 162<907.373 1399.78>
LayerCount: 2
Fore
SplineSet
263 847 m 1,0,-1
 254 852 l 1,1,2
 286 999 286 999 286 1156 c 0,3,4
 286 1282 286 1282 273 1405 c 1,5,6
 170 1382 170 1382 69 1304 c 1,7,-1
 60 1310 l 1,8,9
 84 1380 84 1380 109 1550 c 1,10,11
 240 1518 240 1518 375.5 1518 c 128,-1,12
 511 1518 511 1518 670 1548 c 1,13,-1
 679 1543 l 1,14,15
 655 1473 655 1473 629 1302 c 1,16,17
 552 1381 552 1381 462 1403 c 1,18,19
 448 1300 448 1300 448 1174 c 0,20,21
 448 1043 448 1043 469 903 c 1,22,23
 370 893 370 893 263 847 c 1,0,-1
721 847 m 1,24,-1
 711 852 l 1,25,26
 779 1109 779 1109 808 1415 c 1,27,28
 791 1452 791 1452 757 1487 c 1,29,30
 909 1514 909 1514 998 1550 c 1,31,-1
 1007 1545 l 1,32,33
 1065 1273 1065 1273 1176 1051 c 1,34,35
 1254 1237 1254 1237 1292 1462 c 1,36,37
 1287 1476 1287 1476 1279 1488 c 1,38,39
 1391 1510 1391 1510 1472 1550 c 1,40,-1
 1481 1545 l 1,41,42
 1502 1198 1502 1198 1580 906 c 1,43,44
 1490 893 1490 893 1381 847 c 1,45,-1
 1372 852 l 1,46,47
 1372 1014 1372 1014 1332 1210 c 1,48,49
 1286 1089 1286 1089 1239 898 c 1,50,51
 1160 893 1160 893 1052 847 c 1,52,-1
 1043 852 l 1,53,54
 979 1090 979 1090 903 1268 c 1,55,56
 850 1087 850 1087 849 889 c 1,57,58
 785 881 785 881 721 847 c 1,24,-1
EndSplineSet
Validated: 1
EndChar

StartChar: uni2126
Encoding: 8486 8486 134
Width: 1446
VWidth: 0
GlyphClass: 2
Flags: W
HStem: 0 21G<10 99.5 572.5 640.095 803.905 871.5 1252.5 1332> 1490 20G<586 863>
VStem: 106 246<602.476 995.438> 531 110<121 190.735> 803 110<121 190.238> 1105 235<518.139 830.141>
LayerCount: 2
Fore
SplineSet
640 0 m 1,0,1
 505 28 505 28 344 28 c 128,-1,2
 183 28 183 28 16 0 c 1,3,-1
 10 10 l 1,4,5
 100 175 100 175 135 312 c 1,6,7
 292 171 292 171 531 121 c 1,8,-1
 531 175 l 1,9,10
 106 337 106 337 106 748 c 0,11,12
 106 1020 106 1020 307 1254 c 0,13,14
 454 1425 454 1425 718 1510 c 1,15,-1
 728 1510 l 1,16,17
 998 1412 998 1412 1148 1249 c 0,18,19
 1340 1040 1340 1040 1340 766 c 0,20,21
 1340 331 1340 331 913 175 c 1,22,-1
 913 121 l 1,23,24
 1159 160 1159 160 1430 312 c 1,25,-1
 1436 302 l 1,26,27
 1351 131 1351 131 1313 0 c 1,28,29
 1192 28 1192 28 1065.5 28 c 128,-1,30
 939 28 939 28 804 0 c 1,31,-1
 803 210 l 1,32,33
 1105 361 1105 361 1105 625 c 0,34,35
 1105 919 1105 919 808 1080 c 0,36,37
 595 1196 595 1196 381 1196 c 1,38,39
 352 1082 352 1082 352 946 c 0,40,41
 352 460 352 460 641 210 c 1,42,-1
 640 0 l 1,0,1
EndSplineSet
Validated: 1
EndChar

StartChar: estimated
Encoding: 8494 8494 135
Width: 1241
GlyphClass: 2
Flags: W
HStem: 0 183<441.95 798.867> 506 184<393 845> 945 185<439.039 799.176>
VStem: 60 333<335.728 506 690 802.979>
LayerCount: 2
Fore
SplineSet
619 0 m 0,0,1
 368 0 368 0 214 165 c 128,-1,2
 60 330 60 330 60 568 c 0,3,4
 60 812 60 812 216 970 c 0,5,6
 374 1130 374 1130 616 1130 c 0,7,8
 859 1130 859 1130 1007 984 c 0,9,10
 1181 812 1181 812 1181 506 c 1,11,-1
 393 506 l 1,12,-1
 393 259 l 1,13,14
 488 183 488 183 619 183 c 0,15,16
 827 183 827 183 945 371 c 1,17,-1
 1109 275 l 1,18,19
 985 105 985 105 866 52.5 c 128,-1,20
 747 0 747 0 619 0 c 0,0,1
845 690 m 1,21,-1
 845 872 l 1,22,23
 747 945 747 945 617 945 c 0,24,25
 485 945 485 945 393 871 c 1,26,-1
 393 690 l 1,27,-1
 845 690 l 1,21,-1
EndSplineSet
Validated: 1
EndChar

StartChar: partialdiff
Encoding: 8706 8706 136
Width: 1275
GlyphClass: 2
Flags: W
HStem: 0 236<398.495 626.612> 810 264<534.501 771.129> 1257 253<465.471 783.189>
VStem: 60 308<265.753 607.019>
LayerCount: 2
Fore
SplineSet
482 0 m 0,0,1
 226 0 226 0 122 171 c 0,2,3
 60 273 60 273 60 422 c 0,4,5
 60 662 60 662 208 844 c 0,6,7
 395 1074 395 1074 642 1074 c 0,8,9
 767 1074 767 1074 856 1034 c 1,10,11
 846 1113 846 1113 822 1163 c 0,12,13
 776 1257 776 1257 641 1257 c 0,14,15
 505 1257 505 1257 330 1132 c 1,16,-1
 330 1433 l 1,17,18
 482 1510 482 1510 673 1510 c 0,19,20
 981 1510 981 1510 1099 1263 c 0,21,22
 1165 1125 1165 1125 1165 921 c 0,23,24
 1165 563 1165 563 983 281 c 0,25,26
 801 0 801 0 482 0 c 0,0,1
498 236 m 0,27,28
 618 236 618 236 706 358 c 0,29,30
 793 479 793 479 829 677 c 1,31,32
 810 735 810 735 764 772 c 0,33,34
 718 810 718 810 665 810 c 0,35,36
 538 810 538 810 453 681 c 0,37,38
 368 551 368 551 368 405 c 0,39,40
 368 236 368 236 498 236 c 0,27,28
EndSplineSet
Validated: 1
EndChar

StartChar: uni2206
Encoding: 8710 8710 137
Width: 1441
GlyphClass: 2
Flags: W
HStem: 0 21G<5 182.5 1248 1436> 54 133<328.829 955.931> 1490 20G<764 877>
LayerCount: 2
Fore
SplineSet
1436 5 m 1,0,-1
 1428 0 l 1,1,2
 1068 54 1068 54 709 54 c 128,-1,3
 350 54 350 54 15 0 c 1,4,-1
 5 6 l 1,5,6
 318 646 318 646 495 1387 c 1,7,8
 661 1409 661 1409 867 1510 c 1,9,-1
 877 1504 l 1,10,11
 1085 755 1085 755 1436 5 c 1,0,-1
961 212 m 1,12,13
 835 713 835 713 624 1146 c 1,14,15
 438 683 438 683 323 203 c 1,16,17
 510 187 510 187 637 187 c 0,18,19
 813 187 813 187 961 212 c 1,12,13
EndSplineSet
Validated: 1
EndChar

StartChar: product
Encoding: 8719 8719 138
Width: 1421
GlyphClass: 2
Flags: W
HStem: -380 21G<140 253 899 1012> 1305 152<502.324 905.656> 1490 20G<140 264.5 1125.5 1281>
VStem: 186 286<-34.1006 1150.88> 899 382<-263.734 294.641> 945 286<-34.1006 1152.26>
LayerCount: 2
Fore
SplineSet
150 -380 m 1,0,-1
 140 -374 l 1,1,2
 186 29 186 29 186 534 c 0,3,4
 186 1134 186 1134 140 1504 c 1,5,-1
 147 1510 l 1,6,7
 382 1457 382 1457 696 1457 c 0,8,9
 976 1457 976 1457 1275 1510 c 1,10,-1
 1281 1500 l 1,11,12
 1231 1125 1231 1125 1231 588 c 0,13,14
 1231 129 1231 129 1281 -257 c 1,15,16
 1115 -279 1115 -279 909 -380 c 1,17,-1
 899 -374 l 1,18,19
 945 29 945 29 945 534 c 0,20,21
 945 936 945 936 909 1285 c 1,22,23
 802 1305 802 1305 695 1305 c 0,24,25
 574 1305 574 1305 500 1297 c 1,26,27
 472 978 472 978 472 588 c 0,28,29
 472 129 472 129 522 -257 c 1,30,31
 356 -279 356 -279 150 -380 c 1,0,-1
EndSplineSet
Validated: 1
EndChar

StartChar: summation
Encoding: 8721 8721 139
Width: 1289
GlyphClass: 2
Flags: W
HStem: -380 21G<10 139 1009 1116.5> -320 144<493.528 942.25> 1490 20G<290 483.5 1054.5 1167>
LayerCount: 2
Fore
SplineSet
20 -380 m 1,0,1
 10 -374 l 1,2,3
 377 124 377 124 558 553 c 1,4,5
 425 840 425 840 21 1387 c 1,6,7
 187 1409 187 1409 393 1510 c 1,8,9
 574 1435 574 1435 752 1435 c 0,10,11
 948 1435 948 1435 1161 1510 c 1,12,-1
 1167 1500 l 1,13,14
 1063 1292 1063 1292 1044 1162 c 1,15,16
 872 1174 872 1174 737 1230 c 0,17,18
 569 1300 569 1300 416 1424 c 1,19,20
 601 987 601 987 945 560 c 1,21,22
 679 224 679 224 491 -171 c 1,23,24
 535 -176 535 -176 602 -176 c 0,25,26
 972 -176 972 -176 1223 2 c 1,27,-1
 1229 -8 l 1,28,29
 1127 -216 1127 -216 1106 -380 c 1,30,31
 912 -320 912 -320 597 -320 c 0,32,33
 258 -320 258 -320 20 -380 c 1,0,1
EndSplineSet
Validated: 1
EndChar

StartChar: minus
Encoding: 8722 8722 140
Width: 1234
VWidth: 0
GlyphClass: 2
Flags: W
HStem: 590 298<220.703 322.224 849.609 1010.73> 656 176<276.92 957.08>
LayerCount: 2
Fore
SplineSet
232 888 m 1,0,1
 435 832 435 832 639 832 c 0,2,3
 870 832 870 832 1118 898 c 1,4,-1
 1124 888 l 1,5,6
 1020 690 1020 690 1002 600 c 1,7,8
 799 656 799 656 595 656 c 0,9,10
 364 656 364 656 116 590 c 1,11,-1
 110 600 l 1,12,13
 209 774 209 774 232 888 c 1,0,1
EndSplineSet
Validated: 1
EndChar

StartChar: uni2215
Encoding: 8725 8725 141
Width: 1215
GlyphClass: 2
Flags: W
HStem: 0 21G<283 351> 1490 20G<864 932>
LayerCount: 2
Fore
SplineSet
342 0 m 1,0,1
 224 65 224 65 10 99 c 1,2,3
 494 731 494 731 864 1504 c 1,4,-1
 873 1510 l 1,5,6
 991 1445 991 1445 1205 1411 c 1,7,8
 720 778 720 778 351 6 c 1,9,-1
 342 0 l 1,0,1
EndSplineSet
Validated: 1
EndChar

StartChar: uni2219
Encoding: 8729 8729 142
Width: 418
GlyphClass: 2
Flags: W
HStem: 548 416<111.97 300.861>
VStem: 20 378<638.198 873.802>
LayerCount: 2
Fore
SplineSet
204 964 m 1,0,-1
 214 964 l 1,1,2
 282 941 282 941 340 888 c 128,-1,3
 398 835 398 835 398 756 c 128,-1,4
 398 677 398 677 340 624 c 128,-1,5
 282 571 282 571 214 548 c 1,6,-1
 204 548 l 1,7,8
 120 579 120 579 74 623 c 0,9,10
 20 675 20 675 20 756 c 128,-1,11
 20 837 20 837 74 889 c 0,12,13
 120 933 120 933 204 964 c 1,0,-1
EndSplineSet
Validated: 1
EndChar

StartChar: radical
Encoding: 8730 8730 143
Width: 1326
GlyphClass: 2
Flags: W
HStem: 0 21G<353 462.5> 1490 20G<1178.5 1266>
LayerCount: 2
Fore
SplineSet
363 0 m 1,0,-1
 353 6 l 1,1,2
 265 449 265 449 60 779 c 1,3,4
 213 801 213 801 412 902 c 1,5,-1
 422 896 l 1,6,7
 470 526 470 526 597 295 c 1,8,9
 868 864 868 864 977 1402 c 1,10,11
 1101 1431 1101 1431 1256 1510 c 1,12,-1
 1266 1504 l 1,13,14
 908 818 908 818 715 123 c 1,15,16
 562 101 562 101 363 0 c 1,0,-1
EndSplineSet
Validated: 1
EndChar

StartChar: infinity
Encoding: 8734 8734 144
Width: 1446
VWidth: 0
GlyphClass: 2
Flags: W
HStem: 355 198<988.708 1093.6> 940 198<351.672 457.292>
VStem: 110 158<698.805 914.581> 1178 158<574.941 794.195>
LayerCount: 2
Fore
SplineSet
461 1138 m 1,0,1
 575 1106 575 1106 665 1025 c 0,2,3
 766 934 766 934 824 805 c 0,4,5
 884 672 884 672 948 623 c 0,6,7
 1037 555 1037 555 1163 553 c 1,8,9
 1178 590 1178 590 1178 640 c 0,10,11
 1178 792 1178 792 1044 879 c 0,12,13
 921 958 921 958 752 1002 c 1,14,15
 852 1085 852 1085 985 1138 c 1,16,-1
 995 1138 l 1,17,18
 1117 1095 1117 1095 1199 1025 c 0,19,20
 1336 908 1336 908 1336 751 c 0,21,22
 1336 578 1336 578 1199 468 c 0,23,24
 1116 402 1116 402 995 355 c 1,25,-1
 985 355 l 1,26,27
 871 387 871 387 781 468 c 0,28,29
 680 559 680 559 622 688 c 0,30,31
 562 821 562 821 498 870 c 0,32,33
 409 938 409 938 283 940 c 1,34,35
 268 902 268 902 268 853 c 0,36,37
 268 701 268 701 402 614 c 0,38,39
 525 535 525 535 694 491 c 1,40,41
 594 408 594 408 461 355 c 1,42,-1
 451 355 l 1,43,44
 329 398 329 398 247 468 c 0,45,46
 110 585 110 585 110 742 c 0,47,48
 110 895 110 895 228 1009 c 0,49,50
 306 1084 306 1084 451 1138 c 1,51,-1
 461 1138 l 1,0,1
EndSplineSet
Validated: 1
EndChar

StartChar: approxequal
Encoding: 8776 8776 145
Width: 1215
GlyphClass: 2
Flags: W
HStem: 349 234<690.152 944.89> 512 234<270.11 524.848> 751 234<690.152 944.89> 914 234<270.11 524.848>
LayerCount: 2
Fore
SplineSet
399 746 m 0,0,1
 489 746 489 746 559 671 c 0,2,3
 642 583 642 583 769 583 c 0,4,5
 953 583 953 583 1099 737 c 1,6,-1
 1105 727 l 1,7,8
 999 538 999 538 969 412 c 1,9,10
 897 349 897 349 816 349 c 0,11,12
 726 349 726 349 656 424 c 0,13,14
 573 512 573 512 446 512 c 0,15,16
 262 512 262 512 116 358 c 1,17,-1
 110 368 l 1,18,19
 220 555 220 555 246 683 c 1,20,21
 318 746 318 746 399 746 c 0,0,1
399 1148 m 0,22,23
 489 1148 489 1148 559 1073 c 0,24,25
 642 985 642 985 769 985 c 0,26,27
 953 985 953 985 1099 1139 c 1,28,-1
 1105 1129 l 1,29,30
 999 940 999 940 969 814 c 1,31,32
 897 751 897 751 816 751 c 0,33,34
 726 751 726 751 656 826 c 0,35,36
 573 914 573 914 446 914 c 0,37,38
 262 914 262 914 116 760 c 1,39,-1
 110 770 l 1,40,41
 220 957 220 957 246 1085 c 1,42,43
 318 1148 318 1148 399 1148 c 0,22,23
EndSplineSet
Validated: 1
EndChar

StartChar: notequal
Encoding: 8800 8800 146
Width: 1234
VWidth: 0
GlyphClass: 2
Flags: W
HStem: 373 298<220.703 327.805 851.031 1010.73> 439 176<633 957.316> 809 298<220.703 323.872 848.482 1010.73> 875 176<277.771 607>
DStem2: 515 620 633 615 0.339373 0.940652<35.3427 271.089>
LayerCount: 2
Fore
SplineSet
729 1332 m 1,0,1
 818 1332 818 1332 933 1347 c 1,2,-1
 940 1338 l 1,3,4
 866 1200 866 1200 803 1059 c 1,5,6
 957 1074 957 1074 1118 1117 c 1,7,-1
 1124 1107 l 1,8,9
 1020 909 1020 909 1002 819 c 1,10,11
 860 858 860 858 724 870 c 1,12,13
 707 826 707 826 691 783 c 0,14,15
 660 697 660 697 633 615 c 1,16,17
 872 615 872 615 1118 681 c 1,18,-1
 1124 671 l 1,19,20
 1020 473 1020 473 1002 383 c 1,21,22
 799 439 799 439 595 439 c 0,23,24
 587 439 587 439 578 439 c 1,25,26
 535 289 535 289 509 154 c 1,27,28
 412 154 412 154 305 139 c 1,29,-1
 298 148 l 1,30,31
 371 284 371 284 436 431 c 1,32,33
 280 416 280 416 116 373 c 1,34,-1
 110 383 l 1,35,36
 209 557 209 557 232 671 c 1,37,38
 375 631 375 631 515 620 c 1,39,40
 539 681 539 681 561 743 c 0,41,42
 585 809 585 809 607 875 c 1,43,44
 363 875 363 875 116 809 c 1,45,-1
 110 819 l 1,46,47
 209 993 209 993 232 1107 c 1,48,49
 435 1051 435 1051 639 1051 c 0,50,51
 650 1051 650 1051 661 1051 c 1,52,53
 701 1192 701 1192 729 1332 c 1,0,1
EndSplineSet
Validated: 1
EndChar

StartChar: lessequal
Encoding: 8804 8804 147
Width: 1357
GlyphClass: 2
Flags: W
HStem: 0 298<220.703 327.386 924.193 1086.99> 66 176<280.67 993.027> 1490 20G<937.5 1197>
LayerCount: 2
Fore
SplineSet
116 0 m 1,0,-1
 110 10 l 1,1,2
 209 184 209 184 232 298 c 1,3,4
 454 242 454 242 685 242 c 0,5,6
 958 242 958 242 1191 298 c 1,7,-1
 1197 288 l 1,8,9
 1093 90 1093 90 1075 0 c 1,10,11
 858 66 858 66 624 66 c 0,12,13
 364 66 364 66 116 0 c 1,0,-1
232 1040 m 1,14,15
 690 1186 690 1186 1185 1510 c 1,16,-1
 1197 1508 l 1,17,18
 1113 1351 1113 1351 1082 1234 c 1,19,20
 724 1140 724 1140 412 921 c 1,21,22
 679 733 679 733 1191 642 c 1,23,-1
 1197 632 l 1,24,25
 1093 434 1093 434 1075 344 c 1,26,27
 669 641 669 641 116 742 c 1,28,-1
 110 752 l 1,29,30
 209 926 209 926 232 1040 c 1,14,15
EndSplineSet
Validated: 1
EndChar

StartChar: greaterequal
Encoding: 8805 8805 148
Width: 1357
GlyphClass: 2
Flags: W
HStem: 0 298<270.703 377.386 974.193 1136.99> 66 176<330.67 1043.03> 1490 20G<273 485>
LayerCount: 2
Fore
SplineSet
166 0 m 1,0,-1
 160 10 l 1,1,2
 259 184 259 184 282 298 c 1,3,4
 504 242 504 242 735 242 c 0,5,6
 1008 242 1008 242 1241 298 c 1,7,-1
 1247 288 l 1,8,9
 1143 90 1143 90 1125 0 c 1,10,11
 908 66 908 66 674 66 c 0,12,13
 414 66 414 66 166 0 c 1,0,-1
1125 814 m 1,14,15
 667 668 667 668 172 344 c 1,16,-1
 160 346 l 1,17,18
 244 503 244 503 275 620 c 1,19,20
 633 714 633 714 945 933 c 1,21,22
 678 1121 678 1121 166 1212 c 1,23,-1
 160 1222 l 1,24,25
 264 1420 264 1420 282 1510 c 1,26,27
 688 1213 688 1213 1241 1112 c 1,28,-1
 1247 1102 l 1,29,30
 1148 928 1148 928 1125 814 c 1,14,15
EndSplineSet
Validated: 1
EndChar

StartChar: lozenge
Encoding: 9674 9674 149
Width: 1178
GlyphClass: 2
Flags: W
DStem2: 60 738 354 801 0.555427 0.831565<215.684 555.993> 354 801 60 738 0.5723 -0.820044<0 496.043> 589 1530 543 1084 0.556885 -0.83059<344.826 844.071> 639 395 589 -20 0.57078 0.821103<0 333.611>
LayerCount: 2
Fore
SplineSet
639 395 m 1,0,-1
 825 672 l 1,1,-1
 543 1084 l 1,2,-1
 354 801 l 1,3,-1
 639 395 l 1,0,-1
589 -20 m 1,4,-1
 60 738 l 1,5,-1
 589 1530 l 1,6,-1
 1118 741 l 1,7,-1
 589 -20 l 1,4,-1
EndSplineSet
Validated: 1
EndChar

StartChar: Y
Encoding: 89 89 150
Width: 1396
Flags: W
HStem: 0 21G<519 632> 1490 20G<274.5 387 1307 1391>
VStem: 561 302<128.993 537.221>
LayerCount: 2
Fore
SplineSet
529 0 m 1,0,1
 519 6 l 1,2,3
 560 244 560 244 561 451 c 1,4,5
 346 910 346 910 5 1387 c 1,6,7
 172 1408 172 1408 377 1510 c 1,8,-1
 387 1504 l 1,9,10
 538 1053 538 1053 764 697 c 1,11,12
 962 1010 962 1010 1093 1402 c 1,13,14
 1233 1437 1233 1437 1381 1510 c 1,15,-1
 1391 1504 l 1,16,17
 1051 973 1051 973 863 477 c 1,18,19
 864 315 864 315 901 123 c 1,20,21
 735 101 735 101 529 0 c 1,0,1
EndSplineSet
Validated: 1
EndChar

StartChar: X
Encoding: 88 88 151
Width: 1275
Flags: W
HStem: 0 21G<15 128 888 1001> 1490 20G<274 387 1145 1258>
LayerCount: 2
Fore
SplineSet
25 0 m 1,0,-1
 15 6 l 1,1,2
 298 364 298 364 505 689 c 1,3,4
 279 1046 279 1046 5 1387 c 1,5,6
 171 1409 171 1409 377 1510 c 1,7,-1
 387 1504 l 1,8,9
 506 1241 506 1241 671 968 c 1,10,11
 792 1185 792 1185 876 1387 c 1,12,13
 1042 1409 1042 1409 1248 1510 c 1,14,-1
 1258 1504 l 1,15,16
 976 1157 976 1157 764 820 c 1,17,18
 982 479 982 479 1270 123 c 1,19,20
 1104 101 1104 101 898 0 c 1,21,-1
 888 6 l 1,22,23
 756 276 756 276 598 538 c 1,24,25
 483 328 483 328 397 123 c 1,26,27
 231 101 231 101 25 0 c 1,0,-1
EndSplineSet
Validated: 1
EndChar

StartChar: Z
Encoding: 90 90 152
Width: 1239
Flags: W
HStem: 0 21G<40 191 963 1086.5> 60 144<525.891 938.5> 1306 144<333.387 682.806> 1490 20G<187.5 295 1019 1148>
LayerCount: 2
Fore
SplineSet
50 0 m 1,0,-1
 40 6 l 1,1,2
 503 803 503 803 684 1302 c 1,3,4
 646 1306 646 1306 582 1306 c 0,5,6
 332 1306 332 1306 81 1128 c 1,7,-1
 75 1138 l 1,8,9
 177 1346 177 1346 198 1510 c 1,10,11
 392 1450 392 1450 661 1450 c 0,12,13
 900 1450 900 1450 1138 1510 c 1,14,-1
 1148 1504 l 1,15,16
 714 742 714 742 519 214 c 1,17,18
 577 204 577 204 677 204 c 0,19,20
 942 204 942 204 1193 382 c 1,21,-1
 1199 372 l 1,22,23
 1097 164 1097 164 1076 0 c 1,24,25
 850 60 850 60 591 60 c 128,-1,26
 332 60 332 60 50 0 c 1,0,-1
EndSplineSet
Validated: 1
EndChar

StartChar: J
Encoding: 74 74 153
Width: 662
Flags: W
HStem: -380 21G<2 133> 1490 20G<409 522>
VStem: 140 382<1004.45 1393.73> 186 286<170.793 1247.55>
LayerCount: 2
Fore
SplineSet
11 -380 m 1,0,1
 2 -374 l 1,2,3
 131 -160 131 -160 158 78 c 0,4,5
 186 328 186 328 186 627 c 0,6,7
 186 1017 186 1017 140 1387 c 1,8,9
 306 1409 306 1409 512 1510 c 1,10,-1
 522 1504 l 1,11,12
 473 1140 473 1140 472 778 c 0,13,14
 472 509 472 509 522 123 c 1,15,16
 474 -19 474 -19 388 -116 c 0,17,18
 255 -268 255 -268 11 -380 c 1,0,1
EndSplineSet
Validated: 1
EndChar

StartChar: U
Encoding: 85 85 154
Width: 1459
VWidth: 0
Flags: W
HStem: 0 21G<580.5 775.5 937 1050> 1490 20G<409 522 1206 1319>
VStem: 186 286<533.461 1363.97> 937 382<1005.34 1393.73> 983 286<270.08 1341.05>
LayerCount: 2
Fore
SplineSet
947 0 m 1,0,-1
 937 6 l 1,1,2
 943 60 943 60 948 112 c 1,3,4
 844 47 844 47 707 0 c 1,5,-1
 697 0 l 1,6,7
 464 43 464 43 331 202 c 0,8,9
 186 375 186 375 186 746 c 0,10,11
 186 1017 186 1017 140 1387 c 1,12,13
 306 1409 306 1409 512 1510 c 1,14,-1
 522 1504 l 1,15,16
 472 1139 472 1139 472 860 c 0,17,18
 472 475 472 475 641 352 c 0,19,20
 764 262 764 262 963 262 c 1,21,22
 983 521 983 521 983 724 c 0,23,24
 983 1017 983 1017 937 1387 c 1,25,26
 1103 1409 1103 1409 1309 1510 c 1,27,-1
 1319 1504 l 1,28,29
 1270 1140 1270 1140 1269 778 c 0,30,31
 1269 509 1269 509 1319 123 c 1,32,33
 1153 101 1153 101 947 0 c 1,0,-1
EndSplineSet
Validated: 1
EndChar

StartChar: K
Encoding: 75 75 155
Width: 1341
Flags: W
HStem: 0 21G<140 253 899 1012.5> 1490 20G<409 522 1149 1262>
VStem: 140 382<116.266 397.902 1005.34 1393.73> 186 286<667 1341.05>
LayerCount: 2
Fore
SplineSet
150 0 m 1,0,-1
 140 6 l 1,1,2
 186 409 186 409 186 724 c 0,3,4
 186 1017 186 1017 140 1387 c 1,5,6
 306 1409 306 1409 512 1510 c 1,7,-1
 522 1504 l 1,8,9
 473 1140 473 1140 472 778 c 0,10,11
 472 725 472 725 474 667 c 1,12,13
 734 1020 734 1020 880 1387 c 1,14,15
 1046 1409 1046 1409 1252 1510 c 1,16,-1
 1262 1504 l 1,17,18
 977 1198 977 1198 810 896 c 1,19,20
 947 536 947 536 1281 123 c 1,21,22
 1116 101 1116 101 909 0 c 1,23,-1
 899 6 l 1,24,25
 782 352 782 352 605 593 c 1,26,27
 551 513 551 513 491 402 c 1,28,29
 503 271 503 271 522 123 c 1,30,31
 356 101 356 101 150 0 c 1,0,-1
EndSplineSet
Validated: 1
EndChar

StartChar: Q
Encoding: 81 81 156
Width: 1394
VWidth: 0
Flags: W
HStem: 0 21G<556 762 950 1023> 1490 20G<560 837>
VStem: 80 219<711.545 995.019> 1095 219<521.051 799.627>
LayerCount: 2
Fore
SplineSet
702 0 m 1,0,-1
 692 0 l 1,1,2
 420 98 420 98 272 261 c 0,3,4
 80 472 80 472 80 746 c 128,-1,5
 80 1020 80 1020 281 1254 c 0,6,7
 428 1425 428 1425 692 1510 c 1,8,-1
 702 1510 l 1,9,10
 972 1412 972 1412 1122 1249 c 0,11,12
 1314 1039 1314 1039 1314 766 c 0,13,14
 1314 492 1314 492 1107 249 c 1,15,16
 1153 172 1153 172 1209 97 c 1,17,18
 1086 62 1086 62 960 0 c 1,19,-1
 950 6 l 1,20,21
 934 52 934 52 917 96 c 1,22,23
 822 41 822 41 702 0 c 1,0,-1
1053 346 m 1,24,25
 1095 453 1095 453 1095 574 c 0,26,27
 1095 903 1095 903 782 1080 c 0,28,29
 578 1196 578 1196 355 1196 c 1,30,31
 299 1075 299 1075 299 936 c 0,32,33
 299 608 299 608 612 430 c 0,34,35
 701 379 701 379 795 350 c 1,36,37
 745 438 745 438 686 517 c 1,38,39
 810 553 810 553 934 614 c 1,40,-1
 944 608 l 1,41,42
 986 475 986 475 1053 346 c 1,24,25
EndSplineSet
Validated: 1
EndChar

StartChar: P
Encoding: 80 80 157
Width: 1371
VWidth: 0
Flags: W
HStem: 0 21G<188 301> 360 170<529.019 843.309> 1182 328<343.876 812.139>
VStem: 234 293<126.969 376 540.26 881.177> 992 299<708.679 1014.78>
LayerCount: 2
Fore
SplineSet
198 0 m 1,0,-1
 188 6 l 1,1,2
 234 231 234 231 234 474 c 0,3,4
 234 701 234 701 188 887 c 1,5,6
 354 909 354 909 560 1010 c 1,7,-1
 570 1004 l 1,8,9
 523 799 523 799 520 555 c 1,10,11
 590 530 590 530 670 530 c 0,12,13
 840 530 840 530 932 657 c 0,14,15
 992 741 992 741 992 856 c 0,16,17
 992 982 992 982 903 1074 c 0,18,19
 799 1182 799 1182 590 1182 c 0,20,21
 309 1182 309 1182 86 976 c 1,22,-1
 80 985 l 1,23,24
 167 1228 167 1228 177 1402 c 1,25,26
 395 1510 395 1510 613 1510 c 0,27,28
 907 1510 907 1510 1087 1358 c 0,29,30
 1291 1185 1291 1185 1291 927 c 0,31,32
 1291 690 1291 690 1112 524 c 0,33,34
 936 361 936 361 670 360 c 0,35,36
 599 360 599 360 527 376 c 1,37,38
 539 250 539 250 570 123 c 1,39,40
 404 101 404 101 198 0 c 1,0,-1
EndSplineSet
Validated: 1
EndChar

StartChar: D
Encoding: 68 68 158
Width: 1459
VWidth: 0
Flags: W
HStem: 0 164<550.654 860.364> 1182 328<343.876 818.217>
VStem: 234 286<193.851 881.177> 1065 314<471.938 919.658>
LayerCount: 2
Fore
SplineSet
198 0 m 1,0,-1
 188 6 l 1,1,2
 234 231 234 231 234 474 c 0,3,4
 234 701 234 701 188 887 c 1,5,6
 354 909 354 909 560 1010 c 1,7,-1
 570 1004 l 1,8,9
 520 788 520 788 520 528 c 0,10,11
 520 344 520 344 550 189 c 1,12,13
 638 164 638 164 708 164 c 0,14,15
 892 164 892 164 993 358 c 0,16,17
 1065 497 1065 497 1065 687 c 0,18,19
 1065 894 1065 894 954 1034 c 0,20,21
 836 1182 836 1182 590 1182 c 0,22,23
 309 1182 309 1182 86 976 c 1,24,-1
 80 985 l 1,25,26
 167 1228 167 1228 177 1402 c 1,27,28
 395 1510 395 1510 613 1510 c 0,29,30
 941 1510 941 1510 1152 1319 c 0,31,32
 1379 1113 1379 1113 1379 764 c 0,33,34
 1379 483 1379 483 1243 286 c 0,35,36
 1047 0 1047 0 707 0 c 0,37,38
 645 0 645 0 535 19 c 0,39,40
 442 35 442 35 397 35 c 0,41,42
 300 35 300 35 198 0 c 1,0,-1
EndSplineSet
Validated: 1
EndChar

StartChar: R
Encoding: 82 82 159
Width: 1452
VWidth: 0
Flags: W
HStem: 0 21G<188 301 1010 1123> 360 170<529.257 745.641> 1182 328<343.876 812.139>
VStem: 234 293<126.969 376 540.26 881.177> 992 299<708.679 1014.78>
LayerCount: 2
Fore
SplineSet
198 0 m 1,0,1
 188 6 l 1,2,3
 234 231 234 231 234 474 c 0,4,5
 234 701 234 701 188 887 c 1,6,7
 354 909 354 909 560 1010 c 1,8,-1
 570 1004 l 1,9,10
 523 799 523 799 520 555 c 1,11,12
 590 530 590 530 670 530 c 0,13,14
 840 530 840 530 932 657 c 0,15,16
 992 741 992 741 992 856 c 0,17,18
 992 982 992 982 903 1074 c 0,19,20
 799 1182 799 1182 590 1182 c 0,21,22
 309 1182 309 1182 86 976 c 1,23,-1
 80 985 l 1,24,25
 167 1228 167 1228 177 1402 c 1,26,27
 395 1510 395 1510 613 1510 c 0,28,29
 907 1510 907 1510 1087 1358 c 0,30,31
 1291 1185 1291 1185 1291 927 c 0,32,33
 1291 690 1291 690 1112 524 c 0,34,35
 1067 482 1067 482 1015 451 c 1,36,37
 1126 305 1126 305 1392 123 c 1,38,39
 1226 101 1226 101 1020 0 c 1,40,-1
 1010 6 l 1,41,42
 890 201 890 201 699 360 c 1,43,44
 599 360 599 360 527 376 c 1,45,46
 539 250 539 250 570 123 c 1,47,48
 404 101 404 101 198 0 c 1,0,1
EndSplineSet
Validated: 1
EndChar

StartChar: S
Encoding: 83 83 160
Width: 1200
VWidth: 0
Flags: W
HStem: 0 21G<439 709.5> 1276 234<493.763 590.27>
VStem: 173 189<950.5 1236.68> 901 239<357.025 649.5>
DStem2: 551 1040 419 729 0.907172 -0.420761<-203.495 510.394>
LayerCount: 2
Fore
SplineSet
613 0 m 1,0,-1
 603 0 l 1,1,2
 275 102 275 102 60 419 c 1,3,-1
 64 429 l 1,4,5
 205 448 205 448 363 518 c 1,6,7
 555 294 555 294 879 252 c 1,8,9
 901 301 901 301 901 363 c 0,10,11
 901 503 901 503 647 622 c 2,12,-1
 419 729 l 2,13,14
 173 844 173 844 173 1057 c 0,15,16
 173 1236 173 1236 320 1359 c 0,17,18
 435 1454 435 1454 603 1510 c 1,19,-1
 613 1510 l 1,20,21
 783 1450 783 1450 876 1378 c 0,22,23
 964 1310 964 1310 1003 1214 c 1,24,-1
 1000 1204 l 1,25,26
 862 1186 862 1186 712 1119 c 1,27,28
 672 1189 672 1189 603 1225 c 0,29,30
 502 1276 502 1276 374 1276 c 1,31,32
 362 1246 362 1246 362 1213 c 0,33,34
 362 1128 362 1128 551 1040 c 2,35,-1
 855 899 l 2,36,37
 1140 767 1140 767 1140 532 c 0,38,39
 1140 340 1140 340 938 170 c 0,40,41
 806 59 806 59 613 0 c 1,0,-1
EndSplineSet
Validated: 1
EndChar

StartChar: two
Encoding: 50 50 161
Width: 1244
VWidth: 0
Flags: W
HStem: 71 227<357.176 962.644> 1490 20G<463.5 739>
VStem: 103 145<961 1200.71> 787 335<842.825 1052.05>
LayerCount: 2
Fore
SplineSet
162 10 m 1,0,1
 90 59 90 59 90 135 c 0,2,3
 90 269 90 269 507 628 c 2,4,-1
 680 778 l 2,5,6
 787 869 787 869 787 947 c 0,7,8
 787 1021 787 1021 718 1074 c 0,9,10
 533 1216 533 1216 265 1216 c 1,11,12
 248 1190 248 1190 248 1147 c 0,13,14
 248 1069 248 1069 336 997 c 0,15,16
 404 941 404 941 506 908 c 1,17,18
 370 892 370 892 219 811 c 1,19,-1
 211 813 l 1,20,21
 103 891 103 891 103 1031 c 0,22,23
 103 1180 103 1180 226 1305 c 0,24,25
 329 1410 329 1410 598 1510 c 1,26,-1
 608 1510 l 1,27,28
 870 1426 870 1426 1025 1257 c 0,29,30
 1122 1151 1122 1151 1122 1009 c 0,31,32
 1122 761 1122 761 853 615 c 2,33,-1
 590 472 l 2,34,35
 418 379 418 379 354 312 c 1,36,37
 455 298 455 298 637 298 c 0,38,39
 871 298 871 298 1148 392 c 1,40,-1
 1154 382 l 1,41,42
 1052 174 1052 174 1031 10 c 1,43,44
 799 71 799 71 605 71 c 0,45,46
 380 71 380 71 162 10 c 1,0,1
EndSplineSet
Validated: 1
EndChar

StartChar: three
Encoding: 51 51 162
Width: 1263
Flags: W
HStem: 0 21G<459 745> 741 10<508 514.446> 1490 20G<542 711.5>
VStem: 193 154<1036 1251.2> 756 276<928 1213> 917 256<333 684.5>
LayerCount: 2
Fore
SplineSet
633 0 m 1,0,-1
 623 0 l 1,1,2
 295 102 295 102 80 419 c 1,3,-1
 84 429 l 1,4,5
 225 448 225 448 383 518 c 1,6,7
 575 294 575 294 899 252 c 1,8,9
 917 306 917 306 917 360 c 0,10,11
 917 527 917 527 828 618 c 24,12,13
 715 734 715 734 508 741 c 9,14,-1
 508 751 l 1,15,16
 756 846 756 846 756 1010 c 0,17,18
 756 1113 756 1113 659 1183 c 0,19,20
 535 1274 535 1274 361 1274 c 1,21,22
 347 1242 347 1242 347 1204 c 0,23,24
 347 1066 347 1066 595 1001 c 1,25,26
 460 985 460 985 308 904 c 1,27,-1
 300 906 l 1,28,29
 193 973 193 973 193 1099 c 0,30,31
 193 1248 193 1248 350 1375 c 0,32,33
 461 1465 461 1465 623 1510 c 1,34,-1
 633 1510 l 1,35,36
 790 1465 790 1465 911 1371 c 128,-1,37
 1032 1277 1032 1277 1032 1149 c 0,38,39
 1032 1009 1032 1009 886 933 c 1,40,41
 959 920 959 920 1015 883 c 0,42,43
 1173 779 1173 779 1173 590 c 0,44,45
 1173 357 1173 357 967 178 c 0,46,47
 857 82 857 82 633 0 c 1,0,-1
EndSplineSet
Validated: 1
EndChar

StartChar: five
Encoding: 53 53 163
Width: 1253
VWidth: 0
Flags: W
HStem: 0 21G<459 745> 754 233<420 829.5> 1162 273<726.342 968.723> 1490 20G<442 576.5 1002.5 1086>
VStem: 231 263<940.389 1411.68> 917 256<333 687.5>
LayerCount: 2
Fore
SplineSet
633 0 m 1,0,1
 623 0 l 1,2,3
 295 102 295 102 80 419 c 1,4,-1
 84 429 l 1,5,6
 225 448 225 448 383 518 c 1,7,8
 575 294 575 294 899 252 c 1,9,10
 917 306 917 306 917 360 c 0,11,12
 917 527 917 527 828 618 c 0,13,14
 695 754 695 754 496 754 c 0,15,16
 344 754 344 754 208 686 c 1,17,-1
 201 694 l 1,18,19
 231 835 231 835 231 1060 c 0,20,21
 231 1247 231 1247 201 1417 c 1,22,23
 372 1431 372 1431 512 1510 c 1,24,25
 641 1435 641 1435 771 1435 c 0,26,27
 925 1435 925 1435 1080 1510 c 1,28,-1
 1086 1500 l 1,29,30
 982 1292 982 1292 963 1162 c 1,31,32
 795 1162 795 1162 681 1230 c 128,-1,33
 567 1298 567 1298 515 1450 c 1,34,35
 494 1340 494 1340 494 1212 c 0,36,37
 494 1045 494 1045 520 937 c 1,38,39
 604 987 604 987 746 987 c 0,40,41
 913 987 913 987 1025 900 c 0,42,43
 1173 785 1173 785 1173 590 c 0,44,45
 1173 357 1173 357 967 178 c 0,46,47
 857 82 857 82 633 0 c 1,0,1
EndSplineSet
Validated: 1
EndChar

StartChar: paragraph
Encoding: 182 182 164
Width: 1098
Flags: W
HStem: 0 21G<606 655.5> 663 847<303.539 649.749>
VStem: 60 709<889.248 1278.83> 652 117<237.172 688> 829 159<121.196 588.872> 829 109<330.87 1219.93>
LayerCount: 2
Fore
SplineSet
616 0 m 1,0,-1
 606 6 l 1,1,2
 650 389 650 389 652 688 c 1,3,4
 580 663 580 663 502 663 c 0,5,6
 323 663 323 663 184 787 c 0,7,8
 60 897 60 897 60 1085 c 0,9,10
 60 1272 60 1272 190 1392 c 0,11,12
 318 1510 318 1510 500 1510 c 0,13,14
 644 1510 644 1510 766 1424 c 1,15,16
 868 1456 868 1456 978 1510 c 1,17,-1
 988 1504 l 1,18,19
 939 1140 939 1140 938 778 c 0,20,21
 938 509 938 509 988 123 c 1,22,23
 910 112 910 112 829 87 c 1,24,-1
 829 1313 l 1,25,-1
 769 1313 l 1,26,-1
 769 66 l 1,27,28
 695 39 695 39 616 0 c 1,0,-1
EndSplineSet
Validated: 1
EndChar

StartChar: uni00B5
Encoding: 181 181 165
Width: 1245
Flags: W
HStem: -380 21G<110 219.5> 0 215<600.689 725.333> 1110 20G<362.5 472 1023.5 1135>
VStem: 110 362<-264.75 48.4946 666.628 1014.75> 156 270<383.636 949.657> 783 352<699.208 1015.28> 833 256<220.309 979.168>
LayerCount: 2
Fore
SplineSet
605 0 m 1,0,-1
 595 0 l 1,1,2
 509 16 509 16 438 53 c 1,3,4
 450 -91 450 -91 472 -257 c 1,5,6
 319 -279 319 -279 120 -380 c 1,7,-1
 110 -374 l 1,8,9
 156 29 156 29 156 344 c 0,10,11
 156 637 156 637 110 1007 c 1,12,13
 263 1029 263 1029 462 1130 c 1,14,-1
 472 1124 l 1,15,16
 426 816 426 816 426 593 c 0,17,18
 426 395 426 395 532 305 c 0,19,20
 637 215 637 215 814 215 c 1,21,22
 833 385 833 385 833 542 c 0,23,24
 833 785 833 785 783 1007 c 1,25,26
 922 1027 922 1027 1125 1130 c 1,27,-1
 1135 1124 l 1,28,29
 1089 835 1089 835 1089 596 c 0,30,31
 1089 356 1089 356 1135 123 c 1,32,33
 996 103 996 103 793 0 c 1,34,-1
 783 6 l 1,35,36
 790 47 790 47 797 88 c 1,37,38
 708 26 708 26 605 0 c 1,0,-1
EndSplineSet
Validated: 1
EndChar

StartChar: M
Encoding: 77 77 166
Width: 1745
Flags: W
HStem: 0 21G<10 78 611 723.5 1353 1466> 1490 20G<387 500 1403 1516>
LayerCount: 2
Fore
SplineSet
20 0 m 1,0,1
 10 6 l 1,2,3
 168 673 168 673 211 1237 c 1,4,5
 173 1317 173 1317 118 1387 c 1,6,7
 284 1409 284 1409 490 1510 c 1,8,-1
 500 1504 l 1,9,10
 658 815 658 815 875 339 c 1,11,12
 1062 781 1062 781 1186 1292 c 1,13,14
 1168 1350 1168 1350 1134 1387 c 1,15,16
 1300 1409 1300 1409 1506 1510 c 1,17,-1
 1516 1504 l 1,18,19
 1551 768 1551 768 1735 123 c 1,20,21
 1569 101 1569 101 1363 0 c 1,22,-1
 1353 6 l 1,23,24
 1336 560 1336 560 1271 944 c 1,25,26
 1112 568 1112 568 993 123 c 1,27,28
 826 101 826 101 621 0 c 1,29,-1
 611 6 l 1,30,31
 496 530 496 530 344 918 c 1,32,33
 259 533 259 533 243 90 c 1,34,35
 136 57 136 57 20 0 c 1,0,1
EndSplineSet
Validated: 1
EndChar

StartChar: B
Encoding: 66 66 167
Width: 1385
VWidth: 0
Flags: W
HStem: 0 164<550.693 891.85> 1182 328<363.511 779.525>
VStem: 234 286<193.851 881.177> 869 260<930.5 1208.5> 1019 286<304.536 580.177>
LayerCount: 2
Fore
SplineSet
198 0 m 1,0,-1
 188 6 l 1,1,2
 234 231 234 231 234 474 c 0,3,4
 234 701 234 701 188 887 c 1,5,6
 354 909 354 909 560 1010 c 1,7,-1
 570 1004 l 1,8,9
 520 788 520 788 520 528 c 0,10,11
 520 344 520 344 550 189 c 1,12,13
 638 164 638 164 727 164 c 0,14,15
 874 164 874 164 959 268 c 0,16,17
 1019 341 1019 341 1019 443 c 0,18,19
 1019 550 1019 550 942 617 c 0,20,21
 881 670 881 670 773 670 c 0,22,23
 718 670 718 670 669 662 c 1,24,-1
 663 670 l 1,25,26
 757 730 757 730 814 812 c 0,27,28
 869 891 869 891 869 970 c 0,29,30
 869 1071 869 1071 797 1126 c 0,31,32
 725 1182 725 1182 590 1182 c 0,33,34
 347 1182 347 1182 86 976 c 1,35,-1
 80 985 l 1,36,37
 167 1228 167 1228 177 1402 c 1,38,39
 395 1510 395 1510 613 1510 c 0,40,41
 864 1510 864 1510 1000 1394 c 0,42,43
 1129 1283 1129 1283 1129 1134 c 0,44,45
 1129 1031 1129 1031 1061 946 c 0,46,47
 1048 930 1048 930 1031 914 c 1,48,49
 1096 889 1096 889 1154 843 c 0,50,51
 1305 726 1305 726 1305 516 c 0,52,53
 1305 298 1305 298 1148 154 c 0,54,55
 980 0 980 0 726 0 c 16,56,57
 645 0 645 0 535 19 c 0,58,59
 442 35 442 35 397 35 c 0,60,61
 300 35 300 35 198 0 c 1,0,-1
EndSplineSet
Validated: 1
EndChar

StartChar: F
Encoding: 70 70 168
Width: 1096
Flags: W
HStem: 0 21G<140 253> 644 144<475 720.75> 1162 273<726.342 968.723> 1490 20G<409 576.5 1002.5 1086>
LayerCount: 2
Fore
SplineSet
150 0 m 1,0,1
 140 6 l 1,2,3
 186 409 186 409 186 724 c 0,4,5
 186 1017 186 1017 140 1387 c 1,6,7
 306 1409 306 1409 512 1510 c 1,8,9
 641 1435 641 1435 771 1435 c 0,10,11
 925 1435 925 1435 1080 1510 c 1,12,-1
 1086 1500 l 1,13,14
 982 1292 982 1292 963 1162 c 1,15,16
 795 1162 795 1162 681 1230 c 128,-1,17
 567 1298 567 1298 515 1450 c 1,18,19
 474 1118 474 1118 472 788 c 1,20,21
 720 788 720 788 971 966 c 1,22,-1
 977 956 l 1,23,24
 876 749 876 749 854 584 c 1,25,26
 660 644 660 644 475 644 c 1,27,28
 484 414 484 414 522 123 c 1,29,30
 356 101 356 101 150 0 c 1,0,1
EndSplineSet
Validated: 1
EndChar

StartChar: AE
Encoding: 198 198 169
Width: 1886
Flags: W
HStem: 0 21G<5 89 857 986 1656 1763.5> 60 144<1229.81 1610.85> 644 144<568.982 902 1192 1437.75> 1162 273<1443.34 1685.72> 1490 20G<1040.5 1293.5 1719.5 1803>
VStem: 902 290<221.457 644 788 1344.77>
LayerCount: 2
Fore
SplineSet
15 0 m 1,0,-1
 5 6 l 1,1,2
 318 646 318 646 495 1387 c 1,3,4
 852 1395 852 1395 1229 1510 c 1,5,6
 1358 1435 1358 1435 1488 1435 c 0,7,8
 1642 1435 1642 1435 1797 1510 c 1,9,-1
 1803 1500 l 1,10,11
 1699 1292 1699 1292 1680 1162 c 1,12,13
 1512 1162 1512 1162 1398 1230 c 128,-1,14
 1284 1298 1284 1298 1232 1450 c 1,15,16
 1191 1118 1191 1118 1189 788 c 1,17,18
 1437 788 1437 788 1688 966 c 1,19,-1
 1694 956 l 1,20,21
 1593 749 1593 749 1571 584 c 1,22,23
 1377 644 1377 644 1192 644 c 1,24,25
 1200 453 1200 453 1228 214 c 1,26,27
 1286 204 1286 204 1349 204 c 0,28,29
 1619 204 1619 204 1870 382 c 1,30,-1
 1876 372 l 1,31,32
 1774 164 1774 164 1753 0 c 1,33,34
 1559 60 1559 60 1344 60 c 0,35,36
 1105 60 1105 60 867 0 c 1,37,-1
 857 6 l 1,38,39
 897 359 897 359 902 644 c 1,40,41
 668 640 668 640 426 599 c 1,42,43
 370 395 370 395 303 108 c 1,44,45
 163 73 163 73 15 0 c 1,0,-1
902 788 m 1,46,47
 898 1027 898 1027 861 1355 c 1,48,49
 632 1285 632 1285 501 851 c 1,50,51
 686 794 686 794 902 788 c 1,46,47
EndSplineSet
Validated: 1
EndChar

StartChar: Eth
Encoding: 208 208 170
Width: 1459
VWidth: 0
Flags: W
HStem: 0 164<550.654 860.364> 516 196<149 219.644 528.781 831.75> 556 119<523 811.498> 1182 328<343.876 818.217>
VStem: 234 286<194.135 540> 1065 314<471.938 919.658>
LayerCount: 2
Fore
SplineSet
198 0 m 1,0,-1
 188 6 l 1,1,2
 234 231 234 231 234 474 c 0,3,4
 234 507 234 507 233 540 c 1,5,6
 162 531 162 531 86 516 c 1,7,-1
 80 526 l 1,8,9
 138 629 138 629 164 712 c 1,10,11
 193 706 193 706 221 702 c 1,12,13
 210 799 210 799 188 887 c 1,14,15
 354 909 354 909 560 1010 c 1,16,-1
 570 1004 l 1,17,18
 533 844 533 844 523 675 c 1,19,20
 708 675 708 675 894 712 c 1,21,-1
 900 702 l 1,22,23
 844 598 844 598 816 516 c 1,24,25
 672 552 672 552 520 556 c 1,26,27
 520 353 520 353 550 189 c 1,28,29
 638 164 638 164 708 164 c 0,30,31
 892 164 892 164 993 358 c 0,32,33
 1065 497 1065 497 1065 687 c 0,34,35
 1065 894 1065 894 954 1034 c 0,36,37
 836 1182 836 1182 590 1182 c 0,38,39
 309 1182 309 1182 86 976 c 1,40,-1
 80 985 l 1,41,42
 167 1228 167 1228 177 1402 c 1,43,44
 395 1510 395 1510 613 1510 c 0,45,46
 941 1510 941 1510 1152 1319 c 0,47,48
 1379 1113 1379 1113 1379 764 c 0,49,50
 1379 483 1379 483 1243 286 c 0,51,52
 1047 0 1047 0 707 0 c 0,53,54
 645 0 645 0 535 19 c 0,55,56
 442 35 442 35 397 35 c 0,57,58
 300 35 300 35 198 0 c 1,0,-1
EndSplineSet
Validated: 1
EndChar

StartChar: Dcroat
Encoding: 272 272 171
Width: 1459
VWidth: 0
Flags: W
HStem: 0 164<550.654 860.364> 516 196<149 219.644 528.781 831.75> 556 119<523 811.498> 1182 328<343.876 818.217>
VStem: 234 286<194.135 540> 1065 314<471.938 919.658>
LayerCount: 2
Fore
SplineSet
198 0 m 1,0,-1
 188 6 l 1,1,2
 234 231 234 231 234 474 c 0,3,4
 234 507 234 507 233 540 c 1,5,6
 162 531 162 531 86 516 c 1,7,-1
 80 526 l 1,8,9
 138 629 138 629 164 712 c 1,10,11
 193 706 193 706 221 702 c 1,12,13
 210 799 210 799 188 887 c 1,14,15
 354 909 354 909 560 1010 c 1,16,-1
 570 1004 l 1,17,18
 533 844 533 844 523 675 c 1,19,20
 708 675 708 675 894 712 c 1,21,-1
 900 702 l 1,22,23
 844 598 844 598 816 516 c 1,24,25
 672 552 672 552 520 556 c 1,26,27
 520 353 520 353 550 189 c 1,28,29
 638 164 638 164 708 164 c 0,30,31
 892 164 892 164 993 358 c 0,32,33
 1065 497 1065 497 1065 687 c 0,34,35
 1065 894 1065 894 954 1034 c 0,36,37
 836 1182 836 1182 590 1182 c 0,38,39
 309 1182 309 1182 86 976 c 1,40,-1
 80 985 l 1,41,42
 167 1228 167 1228 177 1402 c 1,43,44
 395 1510 395 1510 613 1510 c 0,45,46
 941 1510 941 1510 1152 1319 c 0,47,48
 1379 1113 1379 1113 1379 764 c 0,49,50
 1379 483 1379 483 1243 286 c 0,51,52
 1047 0 1047 0 707 0 c 0,53,54
 645 0 645 0 535 19 c 0,55,56
 442 35 442 35 397 35 c 0,57,58
 300 35 300 35 198 0 c 1,0,-1
EndSplineSet
Validated: 1
EndChar

StartChar: Hbar
Encoding: 294 294 172
Width: 1421
Flags: W
HStem: 0 21G<140 253 899 1012> 656 158<476.694 941.025> 1175 196<79 143 1265.22 1342.75> 1216 118<502 906> 1490 20G<409 522 1168 1281>
VStem: 945 286<170.793 638.836 821.935 1178.63>
LayerCount: 2
Fore
SplineSet
150 0 m 1,0,-1
 140 6 l 1,1,2
 186 409 186 409 186 724 c 0,3,4
 186 936 186 936 162 1189 c 1,5,6
 90 1183 90 1183 16 1175 c 1,7,-1
 10 1185 l 1,8,9
 68 1288 68 1288 94 1371 c 1,10,11
 118 1368 118 1368 143 1366 c 1,12,13
 142 1377 142 1377 140 1387 c 1,14,15
 306 1409 306 1409 512 1510 c 1,16,-1
 522 1504 l 1,17,18
 511 1421 511 1421 502 1339 c 1,19,20
 627 1334 627 1334 753 1334 c 0,21,22
 830 1334 830 1334 906 1336 c 1,23,24
 903 1362 903 1362 899 1387 c 1,25,26
 1065 1409 1065 1409 1271 1510 c 1,27,-1
 1281 1504 l 1,28,29
 1271 1430 1271 1430 1263 1356 c 1,30,31
 1334 1362 1334 1362 1405 1371 c 1,32,-1
 1411 1361 l 1,33,34
 1355 1257 1355 1257 1327 1175 c 1,35,36
 1287 1180 1287 1180 1247 1185 c 1,37,38
 1231 981 1231 981 1231 778 c 0,39,40
 1231 509 1231 509 1281 123 c 1,41,42
 1115 101 1115 101 909 0 c 1,43,-1
 899 6 l 1,44,45
 940 336 940 336 945 630 c 1,46,47
 829 656 829 656 672 656 c 0,48,49
 560 656 560 656 474 644 c 1,50,51
 481 405 481 405 522 123 c 1,52,53
 356 101 356 101 150 0 c 1,0,-1
920 1211 m 1,54,55
 816 1216 816 1216 711 1216 c 0,56,57
 604 1216 604 1216 490 1211 c 1,58,59
 474 1020 474 1020 472 832 c 1,60,61
 578 814 578 814 729 814 c 0,62,63
 849 814 849 814 944 827 c 1,64,65
 939 1019 939 1019 920 1211 c 1,54,55
EndSplineSet
Validated: 1
EndChar

StartChar: Lslash
Encoding: 321 321 173
Width: 1174
Flags: W
HStem: 0 21G<150 279 949 1056.5> 60 144<522.814 903.85> 1490 20G<419 532>
VStem: 150 382<998.163 1393.73> 191 292<222.765 516 680.95 730.546 848 1329.51>
LayerCount: 2
Fore
SplineSet
160 0 m 1,0,1
 150 6 l 1,2,3
 181 282 181 282 191 516 c 1,4,5
 150 483 150 483 109 447 c 1,6,-1
 99 453 l 1,7,8
 98 571 98 571 79 656 c 1,9,10
 139 677 139 677 196 700 c 1,11,12
 196 1017 196 1017 150 1387 c 1,13,14
 316 1409 316 1409 522 1510 c 1,15,-1
 532 1504 l 1,16,17
 488 1175 488 1175 483 848 c 1,18,19
 600 923 600 923 711 1021 c 1,20,-1
 721 1015 l 1,21,22
 724 897 724 897 741 812 c 1,23,24
 608 774 608 774 483 709 c 1,25,26
 488 495 488 495 521 214 c 1,27,28
 579 204 579 204 642 204 c 0,29,30
 912 204 912 204 1163 382 c 1,31,-1
 1169 372 l 1,32,33
 1067 164 1067 164 1046 0 c 1,34,35
 852 60 852 60 637 60 c 0,36,37
 398 60 398 60 160 0 c 1,0,1
EndSplineSet
Validated: 1
EndChar

StartChar: Eng
Encoding: 330 330 174
Width: 1459
VWidth: 0
Flags: W
HStem: -380 21G<799 930> 0 21G<140 253> 1490 20G<409 522 683.5 878.5>
VStem: 140 382<116.266 504.659> 190 286<168.949 1239.92> 987 286<146.028 976.539>
LayerCount: 2
Fore
SplineSet
150 0 m 1,0,-1
 140 6 l 1,1,2
 189 370 189 370 190 732 c 0,3,4
 190 1001 190 1001 140 1387 c 1,5,6
 306 1409 306 1409 512 1510 c 1,7,-1
 522 1504 l 1,8,9
 516 1450 516 1450 511 1398 c 1,10,11
 615 1463 615 1463 752 1510 c 1,12,-1
 762 1510 l 1,13,14
 995 1467 995 1467 1128 1308 c 0,15,16
 1273 1135 1273 1135 1273 764 c 0,17,18
 1273 493 1273 493 1319 123 c 1,19,20
 1271 -19 1271 -19 1185 -116 c 0,21,22
 1052 -268 1052 -268 808 -380 c 1,23,-1
 799 -374 l 1,24,25
 919 -152 919 -152 959 77 c 0,26,27
 987 247 987 247 987 650 c 0,28,29
 987 1035 987 1035 818 1158 c 0,30,31
 695 1248 695 1248 496 1248 c 1,32,33
 476 989 476 989 476 786 c 0,34,35
 476 493 476 493 522 123 c 1,36,37
 356 101 356 101 150 0 c 1,0,-1
EndSplineSet
Validated: 1
EndChar

StartChar: Oslash
Encoding: 216 216 175
Width: 1394
VWidth: 0
Flags: W
HStem: 0 21G<651.5 837.5> 1490 20G<560 742.5>
VStem: 80 219<710.467 995.019> 1095 219<517.625 797.421>
DStem2: 534 480 769 795 0.367179 0.93015<3.41221 629.564>
LayerCount: 2
Fore
SplineSet
702 0 m 1,0,-1
 692 0 l 1,1,2
 611 29 611 29 542 64 c 1,3,4
 532 26 532 26 522 -12 c 1,5,6
 413 -12 413 -12 318 -28 c 1,7,-1
 311 -19 l 1,8,9
 353 68 353 68 392 154 c 1,10,11
 324 204 324 204 272 261 c 0,12,13
 80 472 80 472 80 746 c 128,-1,14
 80 1020 80 1020 281 1254 c 0,15,16
 428 1425 428 1425 692 1510 c 1,17,-1
 702 1510 l 1,18,19
 783 1481 783 1481 852 1446 c 1,20,21
 862 1484 862 1484 872 1522 c 1,22,23
 960 1522 960 1522 1076 1538 c 1,24,-1
 1083 1529 l 1,25,26
 1041 1444 1041 1444 1000 1357 c 1,27,28
 1068 1307 1068 1307 1122 1249 c 0,29,30
 1314 1040 1314 1040 1314 766 c 0,31,32
 1314 491 1314 491 1113 256 c 0,33,34
 973 92 973 92 702 0 c 1,0,-1
1039 314 m 1,35,36
 1095 435 1095 435 1095 574 c 0,37,38
 1095 860 1095 860 859 1031 c 1,39,40
 812 915 812 915 769 795 c 0,41,42
 701 610 701 610 641 414 c 1,43,44
 831 314 831 314 1039 314 c 1,35,36
534 480 m 1,45,46
 587 611 587 611 634 740 c 0,47,48
 697 913 697 913 753 1096 c 1,49,50
 562 1196 562 1196 355 1196 c 1,51,52
 299 1075 299 1075 299 936 c 0,53,54
 299 652 299 652 534 480 c 1,45,46
EndSplineSet
Validated: 1
EndChar

StartChar: OE
Encoding: 338 338 176
Width: 1848
VWidth: 0
Flags: W
HStem: 0 21G<556 734.5 819 948 1618 1725.5> 60 144<1191.81 1572.85> 1162 273<1405.34 1647.72> 1490 20G<560 763.5 1119 1255.5 1681.5 1765>
VStem: 80 219<711.545 995.019>
LayerCount: 2
Fore
SplineSet
702 0 m 1,0,-1
 692 0 l 1,1,2
 420 98 420 98 272 261 c 0,3,4
 80 472 80 472 80 746 c 128,-1,5
 80 1020 80 1020 281 1254 c 0,6,7
 428 1425 428 1425 692 1510 c 1,8,-1
 702 1510 l 1,9,10
 825 1465 825 1465 923 1407 c 1,11,12
 1047 1439 1047 1439 1191 1510 c 1,13,14
 1320 1435 1320 1435 1450 1435 c 0,15,16
 1604 1435 1604 1435 1759 1510 c 1,17,-1
 1765 1500 l 1,18,19
 1661 1292 1661 1292 1642 1162 c 1,20,21
 1474 1162 1474 1162 1360 1230 c 128,-1,22
 1246 1298 1246 1298 1194 1450 c 1,23,24
 1178 1322 1178 1322 1168 1194 c 1,25,26
 1301 1021 1301 1021 1313 807 c 1,27,28
 1481 846 1481 846 1650 966 c 1,29,-1
 1656 956 l 1,30,31
 1555 749 1555 749 1533 584 c 1,32,33
 1416 620 1416 620 1302 635 c 1,34,35
 1273 481 1273 481 1176 339 c 1,36,37
 1182 278 1182 278 1190 214 c 1,38,39
 1248 204 1248 204 1311 204 c 0,40,41
 1581 204 1581 204 1832 382 c 1,42,-1
 1838 372 l 1,43,44
 1736 164 1736 164 1715 0 c 1,45,46
 1521 60 1521 60 1306 60 c 0,47,48
 1067 60 1067 60 829 0 c 1,49,-1
 819 6 l 1,50,51
 821 27 821 27 824 48 c 1,52,53
 767 22 767 22 702 0 c 1,0,-1
1039 314 m 1,54,55
 1095 435 1095 435 1095 574 c 0,56,57
 1095 903 1095 903 782 1080 c 0,58,59
 578 1196 578 1196 355 1196 c 1,60,61
 299 1075 299 1075 299 936 c 0,62,63
 299 608 299 608 612 430 c 0,64,65
 815 314 815 314 1039 314 c 1,54,55
EndSplineSet
Validated: 1
EndChar

StartChar: Tbar
Encoding: 358 358 177
Width: 1253
Flags: W
HStem: 0 21G<434 547> 636 196<341 477.217 769.908 912.75> 1490 20G<117.5 245.5 1092.5 1248>
VStem: 480 288<152.488 663 811 1289.8>
LayerCount: 2
Fore
SplineSet
444 0 m 1,0,-1
 434 6 l 1,1,2
 476 374 476 374 480 669 c 1,3,4
 392 659 392 659 278 636 c 1,5,-1
 272 646 l 1,6,7
 330 749 330 749 356 832 c 1,8,9
 422 819 422 819 479 811 c 1,10,11
 474 1034 474 1034 444 1299 c 1,12,13
 229 1263 229 1263 11 1128 c 1,14,-1
 5 1138 l 1,15,16
 107 1346 107 1346 128 1510 c 1,17,18
 363 1457 363 1457 632 1457 c 0,19,20
 943 1457 943 1457 1242 1510 c 1,21,-1
 1248 1500 l 1,22,23
 1146 1292 1146 1292 1125 1128 c 1,24,25
 980 1259 980 1259 790 1297 c 1,26,27
 767 1067 767 1067 766 800 c 1,28,29
 857 809 857 809 975 832 c 1,30,-1
 981 822 l 1,31,32
 925 718 925 718 897 636 c 1,33,34
 829 653 829 653 768 663 c 1,35,36
 776 430 776 430 816 123 c 1,37,38
 650 101 650 101 444 0 c 1,0,-1
EndSplineSet
Validated: 1
EndChar

StartChar: tbar
Encoding: 359 359 178
Width: 810
Flags: W
HStem: 0 21G<234 332> 503 196<129 273.18 536.908 680.75> 934 196<74 260.343 540.032 736.75> 1490 20G<474.5 576>
VStem: 234 342<112.35 524.24 1108.75 1396.68> 280 246<676 967>
LayerCount: 2
Fore
SplineSet
244 0 m 1,0,-1
 234 6 l 1,1,2
 267 293 267 293 276 536 c 1,3,4
 186 526 186 526 66 503 c 1,5,-1
 60 513 l 1,6,7
 118 616 118 616 144 699 c 1,8,9
 217 685 217 685 280 676 c 1,10,11
 280 700 280 700 280 724 c 0,12,13
 280 841 280 841 273 970 c 1,14,15
 150 961 150 961 11 934 c 1,16,-1
 5 944 l 1,17,18
 63 1047 63 1047 89 1130 c 1,19,20
 178 1113 178 1113 263 1104 c 1,21,22
 252 1240 252 1240 234 1387 c 1,23,24
 383 1417 383 1417 566 1510 c 1,25,-1
 576 1504 l 1,26,27
 548 1300 548 1300 536 1096 c 1,28,29
 665 1103 665 1103 799 1130 c 1,30,-1
 805 1120 l 1,31,32
 749 1016 749 1016 721 934 c 1,33,34
 627 957 627 957 530 967 c 1,35,36
 526 872 526 872 526 778 c 0,37,38
 526 725 526 725 528 666 c 1,39,40
 622 674 622 674 743 699 c 1,41,-1
 749 689 l 1,42,43
 693 585 693 585 665 503 c 1,44,45
 596 520 596 520 535 530 c 1,46,47
 547 346 547 346 576 123 c 1,48,49
 420 89 420 89 244 0 c 1,0,-1
EndSplineSet
Validated: 1
EndChar

StartChar: oslash
Encoding: 248 248 179
Width: 1120
Flags: W
HStem: 0 21G<531 678.5> 1110 20G<438.5 589>
VStem: 60 201<543.896 771.201> 859 201<360.368 586.104>
DStem2: 436 392 632 605 0.369737 0.929136<0.382617 411.474>
LayerCount: 2
Fore
SplineSet
565 0 m 1,0,-1
 555 0 l 1,1,2
 507 13 507 13 461 32 c 1,3,4
 455 4 455 4 450 -24 c 1,5,6
 359 -24 359 -24 246 -39 c 1,7,-1
 239 -30 l 1,8,9
 277 41 277 41 313 114 c 1,10,11
 277 139 277 139 243 169 c 0,12,13
 60 329 60 329 60 565 c 0,14,15
 60 754 60 754 194 906 c 0,16,17
 322 1052 322 1052 555 1130 c 1,18,-1
 565 1130 l 1,19,20
 613 1117 613 1117 658 1098 c 1,21,22
 664 1126 664 1126 670 1154 c 1,23,24
 760 1154 760 1154 874 1169 c 1,25,-1
 881 1160 l 1,26,27
 843 1088 843 1088 807 1016 c 1,28,29
 843 991 843 991 877 961 c 0,30,31
 1060 801 1060 801 1060 565 c 0,32,33
 1060 373 1060 373 925 222 c 0,34,35
 792 75 792 75 565 0 c 1,0,-1
835 271 m 1,36,37
 859 339 859 339 859 399 c 0,38,39
 859 602 859 602 683 738 c 1,40,41
 656 672 656 672 632 605 c 0,42,43
 580 461 580 461 539 328 c 1,44,45
 662 271 662 271 835 271 c 1,36,37
436 392 m 1,46,47
 470 477 470 477 502 565 c 0,48,49
 545 684 545 684 581 802 c 1,50,51
 458 859 458 859 285 859 c 1,52,53
 261 791 261 791 261 731 c 0,54,55
 261 528 261 528 436 392 c 1,46,47
EndSplineSet
Validated: 1
EndChar

StartChar: oe
Encoding: 339 339 180
Width: 1672
Flags: W
HStem: 0 271<571.258 676.869 1163.33 1273.96> 399 10<1139 1150.81> 1110 20G<438.5 647 1063 1247>
VStem: 60 201<543.486 771.201> 859 201<369.273 585.652> 1331 261<563.97 724.079>
LayerCount: 2
Fore
SplineSet
835 271 m 1,0,1
 859 339 859 339 859 399 c 0,2,3
 859 624 859 624 643 767 c 0,4,5
 505 859 505 859 285 859 c 1,6,7
 261 791 261 791 261 731 c 0,8,9
 261 506 261 506 477 363 c 0,10,11
 615 271 615 271 835 271 c 1,0,1
565 0 m 1,12,-1
 555 0 l 1,13,14
 383 46 383 46 243 169 c 0,15,16
 60 329 60 329 60 565 c 0,17,18
 60 754 60 754 194 906 c 0,19,20
 322 1052 322 1052 555 1130 c 1,21,-1
 565 1130 l 1,22,23
 729 1085 729 1085 860 975 c 1,24,25
 976 1071 976 1071 1150 1130 c 1,26,-1
 1160 1130 l 1,27,28
 1334 1082 1334 1082 1472 961 c 0,29,30
 1592 855 1592 855 1592 715 c 0,31,32
 1592 585 1592 585 1487 493 c 0,33,34
 1380 399 1380 399 1139 399 c 1,35,-1
 1139 409 l 1,36,37
 1331 470 1331 470 1331 604 c 0,38,39
 1331 705 1331 705 1238 767 c 0,40,41
 1130 839 1130 839 973 855 c 1,42,43
 1060 728 1060 728 1060 565 c 0,44,45
 1060 475 1060 475 1030 393 c 1,46,47
 1050 377 1050 377 1072 363 c 0,48,49
 1210 271 1210 271 1400 271 c 0,50,51
 1526 271 1526 271 1603 367 c 1,52,-1
 1612 362 l 1,53,54
 1579 288 1579 288 1520 222 c 0,55,56
 1387 75 1387 75 1160 0 c 1,57,-1
 1150 0 l 1,58,59
 988 43 988 43 855 155 c 1,60,61
 737 57 737 57 565 0 c 1,12,-1
EndSplineSet
Validated: 1
EndChar

StartChar: eng
Encoding: 331 331 181
Width: 1225
Flags: W
HStem: -380 21G<645 763> 0 21G<110 221.5> 915 215<519.667 644.311>
VStem: 110 352<114.724 430.792> 156 256<150.832 909.691> 819 266<150.742 742.252>
LayerCount: 2
Fore
SplineSet
120 0 m 1,0,-1
 110 6 l 1,1,2
 156 295 156 295 156 534 c 0,3,4
 156 774 156 774 110 1007 c 1,5,6
 249 1027 249 1027 452 1130 c 1,7,-1
 462 1124 l 1,8,9
 455 1083 455 1083 448 1042 c 1,10,11
 537 1104 537 1104 640 1130 c 1,12,-1
 650 1130 l 1,13,14
 842 1094 842 1094 956 955 c 0,15,16
 1085 799 1085 799 1085 565 c 0,17,18
 1085 345 1085 345 1135 123 c 1,19,20
 1088 -15 1088 -15 1001 -116 c 0,21,22
 872 -267 872 -267 654 -380 c 1,23,-1
 645 -374 l 1,24,25
 767 -172 767 -172 801 78 c 0,26,27
 819 211 819 211 819 534 c 0,28,29
 819 734 819 734 713 825 c 0,30,31
 608 915 608 915 431 915 c 1,32,33
 412 745 412 745 412 588 c 0,34,35
 412 345 412 345 462 123 c 1,36,37
 323 103 323 103 120 0 c 1,0,-1
EndSplineSet
Validated: 1
EndChar

StartChar: lslash
Encoding: 322 322 182
Width: 712
Flags: W
HStem: 0 21G<180 281> 1490 20G<420 522>
VStem: 180 342<113.075 569.862 1012.8 1396.68> 224 248<168.081 578 715.228 756.312 888 1319.59>
LayerCount: 2
Fore
SplineSet
190 0 m 1,0,-1
 180 6 l 1,1,2
 216 318 216 318 224 578 c 1,3,4
 144 520 144 520 60 447 c 1,5,-1
 50 453 l 1,6,7
 49 571 49 571 30 656 c 1,8,9
 133 692 133 692 226 735 c 1,10,11
 225 1024 225 1024 180 1387 c 1,12,13
 328 1417 328 1417 512 1510 c 1,14,-1
 522 1504 l 1,15,16
 480 1195 480 1195 473 888 c 1,17,18
 559 948 559 948 642 1021 c 1,19,-1
 652 1015 l 1,20,21
 655 897 655 897 672 812 c 1,22,23
 570 783 570 783 472 737 c 1,24,25
 475 480 475 480 522 123 c 1,26,27
 372 92 372 92 190 0 c 1,0,-1
EndSplineSet
Validated: 19457
EndChar

StartChar: kgreenlandic
Encoding: 312 312 183
Width: 1214
Flags: W
HStem: 0 21G<110 219.5 847 954> 1110 20G<352.5 462 739.5 841>
VStem: 110 352<115.25 432.562 750.063 1014.75> 156 259<133.513 526.5 657 995.076>
LayerCount: 2
Fore
SplineSet
120 0 m 1,0,-1
 110 6 l 1,1,2
 156 295 156 295 156 534 c 0,3,4
 156 774 156 774 110 1007 c 1,5,6
 253 1029 253 1029 452 1130 c 1,7,-1
 462 1124 l 1,8,9
 419 878 419 878 413 657 c 1,10,11
 655 876 655 876 824 1130 c 1,12,-1
 841 1129 l 1,13,14
 992 1052 992 1052 1109 1023 c 1,15,16
 899 907 899 907 728 761 c 1,17,18
 881 450 881 450 1209 123 c 1,19,20
 1051 102 1051 102 857 0 c 1,21,-1
 847 6 l 1,22,23
 693 334 693 334 506 578 c 1,24,25
 458 528 458 528 415 472 c 1,26,27
 424 291 424 291 462 123 c 1,28,29
 319 101 319 101 120 0 c 1,0,-1
EndSplineSet
Validated: 1
EndChar

StartChar: hbar
Encoding: 295 295 184
Width: 1235
Flags: W
HStem: 0 21G<120 229.5 783 892.5> 915 215<532.893 653.694> 1175 196<467.843 771.75> 1216 118<462 751.373> 1490 20G<372.5 482>
VStem: 120 362<115.25 588.872> 166 266<170.793 912.703> 829 266<150.742 742.252>
LayerCount: 2
Fore
SplineSet
130 0 m 1,0,-1
 120 6 l 1,1,2
 166 409 166 409 166 724 c 0,3,4
 166 939 166 939 141 1195 c 1,5,6
 85 1187 85 1187 26 1175 c 1,7,-1
 20 1185 l 1,8,9
 78 1288 78 1288 104 1371 c 1,10,11
 113 1369 113 1369 122 1368 c 1,12,13
 121 1378 121 1378 120 1387 c 1,14,15
 273 1409 273 1409 472 1510 c 1,16,-1
 482 1504 l 1,17,18
 471 1419 471 1419 462 1334 c 1,19,20
 649 1334 649 1334 834 1371 c 1,21,-1
 840 1361 l 1,22,23
 784 1257 784 1257 756 1175 c 1,24,25
 608 1212 608 1212 451 1216 c 1,26,27
 443 1122 443 1122 438 1027 c 1,28,29
 535 1100 535 1100 650 1130 c 1,30,-1
 660 1130 l 1,31,32
 852 1094 852 1094 966 955 c 0,33,34
 1095 799 1095 799 1095 565 c 0,35,36
 1095 345 1095 345 1145 123 c 1,37,38
 992 101 992 101 793 0 c 1,39,-1
 783 6 l 1,40,41
 829 295 829 295 829 534 c 0,42,43
 829 734 829 734 723 825 c 0,44,45
 618 915 618 915 434 915 c 1,46,47
 432 847 432 847 432 778 c 0,48,49
 432 509 432 509 482 123 c 1,50,51
 329 101 329 101 130 0 c 1,0,-1
EndSplineSet
Validated: 19457
EndChar

StartChar: longs
Encoding: 383 383 185
Width: 1189
Flags: W
HStem: 0 21G<227 336.5> 590 196<74 260.316> 1490 20G<761.5 959>
VStem: 277 256<131.259 633 757 937.463>
LayerCount: 2
Fore
SplineSet
237 0 m 1,0,-1
 227 6 l 1,1,2
 277 290 277 290 277 542 c 0,3,4
 277 598 277 598 276 633 c 1,5,6
 151 628 151 628 11 590 c 1,7,-1
 5 600 l 1,8,9
 63 703 63 703 89 786 c 1,10,11
 167 765 167 765 264 757 c 1,12,13
 254 869 254 869 227 957 c 1,14,15
 368 1162 368 1162 501 1286 c 0,16,17
 661 1434 661 1434 862 1510 c 1,18,-1
 872 1510 l 1,19,20
 1046 1462 1046 1462 1184 1341 c 1,21,-1
 1181 1330 l 1,22,23
 1033 1303 1033 1303 845 1199 c 1,24,25
 733 1239 733 1239 592 1239 c 1,26,27
 585 1206 585 1206 561 1052 c 0,28,29
 533 873 533 873 533 686 c 0,30,31
 533 387 533 387 579 123 c 1,32,33
 436 101 436 101 237 0 c 1,0,-1
EndSplineSet
Validated: 1
EndChar

StartChar: florin
Encoding: 402 402 186
Width: 1105
Flags: W
HStem: -380 21G<5 122> 590 196<112 176.846 458.436 794.75> 631 118<452 773.998> 1490 20G<677.5 875>
VStem: 193 256<130.691 613>
LayerCount: 2
Fore
SplineSet
14 -380 m 1,0,-1
 5 -374 l 1,1,2
 132 -164 132 -164 165 78 c 0,3,4
 193 282 193 282 193 542 c 0,5,6
 193 578 193 578 192 613 c 1,7,8
 123 604 123 604 49 590 c 1,9,-1
 43 600 l 1,10,11
 101 703 101 703 127 786 c 1,12,13
 153 781 153 781 178 777 c 1,14,15
 166 871 166 871 143 957 c 1,16,17
 284 1162 284 1162 417 1286 c 0,18,19
 577 1434 577 1434 778 1510 c 1,20,-1
 788 1510 l 1,21,22
 962 1462 962 1462 1100 1341 c 1,23,-1
 1097 1330 l 1,24,25
 949 1303 949 1303 761 1199 c 1,26,27
 649 1239 649 1239 508 1239 c 1,28,29
 489 1150 489 1150 477 1052 c 0,30,31
 459 900 459 900 452 749 c 1,32,33
 658 749 658 749 857 786 c 1,34,-1
 863 776 l 1,35,36
 807 672 807 672 779 590 c 1,37,38
 619 630 619 630 449 631 c 1,39,40
 449 369 449 369 495 123 c 1,41,42
 448 -15 448 -15 361 -116 c 0,43,44
 230 -268 230 -268 14 -380 c 1,0,-1
EndSplineSet
Validated: 19457
EndChar

StartChar: dcroat
Encoding: 273 273 187
Width: 1193
Flags: W
HStem: 0 21G<469 616 741 847.5> 1110 20G<438.5 628.5> 1175 196<442 743.592> 1216 120<461.685 748> 1490 20G<975.5 1083>
VStem: 60 201<543.486 770.932> 788 245<274.985 637.328 938 1179.62>
LayerCount: 2
Fore
SplineSet
788 411 m 0,0,1
 788 618 788 618 673 742 c 0,2,3
 555 870 555 870 285 870 c 1,4,5
 261 802 261 802 261 731 c 0,6,7
 261 506 261 506 477 363 c 0,8,9
 614 272 614 272 777 272 c 1,10,11
 788 344 788 344 788 411 c 0,0,1
565 0 m 1,12,-1
 555 0 l 1,13,14
 383 46 383 46 243 169 c 0,15,16
 60 329 60 329 60 565 c 0,17,18
 60 754 60 754 194 906 c 0,19,20
 322 1052 322 1052 555 1130 c 1,21,-1
 565 1130 l 1,22,23
 692 1076 692 1076 781 938 c 1,24,25
 774 1081 774 1081 761 1216 c 1,26,27
 588 1215 588 1215 379 1175 c 1,28,-1
 373 1185 l 1,29,30
 431 1288 431 1288 457 1371 c 1,31,32
 607 1342 607 1342 748 1336 c 1,33,34
 745 1362 745 1362 741 1387 c 1,35,36
 878 1411 878 1411 1073 1510 c 1,37,-1
 1083 1504 l 1,38,39
 1073 1428 1073 1428 1065 1352 c 1,40,41
 1121 1360 1121 1360 1177 1371 c 1,42,-1
 1183 1361 l 1,43,44
 1127 1257 1127 1257 1099 1175 c 1,45,46
 1074 1181 1074 1181 1049 1186 c 1,47,48
 1033 982 1033 982 1033 778 c 0,49,50
 1033 509 1033 509 1083 123 c 1,51,52
 944 98 944 98 751 0 c 1,53,-1
 741 6 l 1,54,55
 745 44 745 44 749 82 c 1,56,57
 667 34 667 34 565 0 c 1,12,-1
EndSplineSet
Validated: 19457
EndChar

StartChar: ae
Encoding: 230 230 188
Width: 1709
Flags: W
HStem: 0 271<1200.33 1310.96> 0 215<530.891 618.727> 399 10<1176 1187.81> 721 10<505.501 513> 915 215<437.327 558.25>
VStem: 60 268<384.297 567.258> 731 269<413.913 744.725> 1368 261<563.97 724.079>
LayerCount: 2
Fore
SplineSet
502 0 m 1,0,-1
 492 0 l 1,1,2
 318 48 318 48 180 169 c 0,3,4
 60 275 60 275 60 415 c 0,5,6
 60 545 60 545 165 637 c 0,7,8
 272 731 272 731 513 731 c 1,9,-1
 513 721 l 1,10,11
 328 662 328 662 328 511 c 0,12,13
 328 403 328 403 441 315 c 0,14,15
 569 216 569 216 713 215 c 1,16,17
 731 384 731 384 731 534 c 0,18,19
 731 734 731 734 625 825 c 0,20,21
 520 915 520 915 365 915 c 0,22,23
 286 915 286 915 210 884 c 1,24,-1
 203 892 l 1,25,26
 351 1078 351 1078 552 1130 c 1,27,-1
 562 1130 l 1,28,29
 754 1094 754 1094 871 952 c 1,30,31
 992 1065 992 1065 1187 1130 c 1,32,-1
 1197 1130 l 1,33,34
 1371 1082 1371 1082 1509 961 c 0,35,36
 1629 855 1629 855 1629 715 c 0,37,38
 1629 585 1629 585 1524 493 c 0,39,40
 1417 399 1417 399 1176 399 c 1,41,-1
 1176 409 l 1,42,43
 1368 470 1368 470 1368 604 c 0,44,45
 1368 705 1368 705 1275 767 c 0,46,47
 1142 856 1142 856 931 859 c 1,48,49
 997 732 997 732 997 565 c 0,50,51
 997 510 997 510 1000 455 c 1,52,53
 1045 406 1045 406 1109 363 c 0,54,55
 1247 271 1247 271 1437 271 c 0,56,57
 1563 271 1563 271 1640 367 c 1,58,-1
 1649 362 l 1,59,60
 1616 288 1616 288 1557 222 c 0,61,62
 1424 75 1424 75 1197 0 c 1,63,-1
 1187 0 l 1,64,65
 1064 33 1064 33 958 105 c 1,66,67
 838 73 838 73 695 0 c 1,68,-1
 685 6 l 1,69,70
 692 49 692 49 698 91 c 1,71,72
 607 27 607 27 502 0 c 1,0,-1
EndSplineSet
Validated: 1
EndChar

StartChar: eth
Encoding: 240 240 189
Width: 1120
Flags: W
HStem: 0 21G<469 671.5> 1490 20G<480 612.5 932 1003>
VStem: 60 201<543.486 768.845> 859 201<405.563 771.603>
LayerCount: 2
Fore
SplineSet
565 0 m 1,0,-1
 555 0 l 1,1,2
 383 46 383 46 243 169 c 0,3,4
 60 329 60 329 60 565 c 0,5,6
 60 752 60 752 194 906 c 0,7,8
 247 967 247 967 319 1016 c 1,9,-1
 327 1009 l 1,10,11
 261 878 261 878 261 731 c 0,12,13
 261 506 261 506 477 363 c 0,14,15
 615 271 615 271 835 271 c 1,16,17
 859 383 859 383 859 499 c 0,18,19
 859 793 859 793 675 1039 c 0,20,21
 620 1113 620 1113 551 1180 c 1,22,23
 431 1128 431 1128 302 1050 c 1,24,-1
 293 1057 l 1,25,26
 308 1172 308 1172 308 1260 c 1,27,28
 373 1270 373 1270 435 1284 c 1,29,30
 371 1335 371 1335 299 1382 c 1,31,32
 405 1460 405 1460 555 1510 c 1,33,-1
 565 1510 l 1,34,35
 660 1458 660 1458 745 1382 c 1,36,37
 870 1435 870 1435 994 1510 c 1,38,-1
 1003 1503 l 1,39,40
 988 1386 988 1386 988 1300 c 1,41,42
 917 1292 917 1292 847 1277 c 1,43,44
 860 1261 860 1261 873 1245 c 0,45,46
 1060 1012 1060 1012 1060 665 c 0,47,48
 1060 396 1060 396 905 221 c 0,49,50
 778 78 778 78 565 0 c 1,0,-1
EndSplineSet
Validated: 1
EndChar

StartChar: thorn
Encoding: 254 254 190
Width: 1193
Flags: W
HStem: -380 21G<110 214.5> 0 21G<564.5 754.5> 1110 20G<571.5 724> 1490 20G<358.5 462>
VStem: 110 342<-265.958 184.661 1043.34 1396.2> 160 245<-29.8367 192 492.672 845.594> 932 201<359.068 586.514>
LayerCount: 2
Fore
SplineSet
638 0 m 1,0,1
 628 0 l 1,2,3
 501 54 501 54 412 192 c 1,4,5
 423 -43 423 -43 452 -257 c 1,6,7
 309 -284 309 -284 120 -380 c 1,8,-1
 110 -374 l 1,9,10
 160 114 160 114 160 551 c 0,11,12
 160 985 160 985 110 1387 c 1,13,14
 265 1415 265 1415 452 1510 c 1,15,-1
 462 1504 l 1,16,17
 431 1271 431 1271 419 1036 c 1,18,19
 515 1091 515 1091 628 1130 c 1,20,-1
 638 1130 l 1,21,22
 810 1084 810 1084 950 961 c 0,23,24
 1133 801 1133 801 1133 565 c 0,25,26
 1133 376 1133 376 999 224 c 0,27,28
 871 78 871 78 638 0 c 1,0,1
405 719 m 0,29,30
 405 512 405 512 520 388 c 0,31,32
 638 260 638 260 908 260 c 1,33,34
 932 328 932 328 932 399 c 0,35,36
 932 624 932 624 716 767 c 0,37,38
 579 858 579 858 416 858 c 1,39,40
 405 786 405 786 405 719 c 0,29,30
EndSplineSet
Validated: 1
EndChar

StartChar: Thorn
Encoding: 222 222 191
Width: 1371
Flags: W
HStem: 0 21G<184 297> 178 170<559.649 843.309> 1000 328<545.815 812.139> 1490 20G<453 566>
VStem: 230 286<374.237 900> 992 299<526.679 832.777>
LayerCount: 2
Fore
SplineSet
194 0 m 1,0,-1
 184 6 l 1,1,2
 230 409 230 409 230 724 c 0,3,4
 230 809 230 809 226 900 c 1,5,6
 153 856 153 856 86 794 c 1,7,-1
 80 803 l 1,8,9
 167 1046 167 1046 177 1220 c 1,10,11
 189 1226 189 1226 202 1232 c 1,12,13
 194 1308 194 1308 184 1387 c 1,14,15
 350 1409 350 1409 556 1510 c 1,16,-1
 566 1504 l 1,17,18
 554 1415 554 1415 545 1325 c 1,19,20
 579 1328 579 1328 613 1328 c 0,21,22
 907 1328 907 1328 1087 1176 c 0,23,24
 1291 1003 1291 1003 1291 745 c 0,25,26
 1291 508 1291 508 1112 342 c 0,27,28
 936 179 936 179 670 178 c 0,29,30
 614 178 614 178 558 188 c 1,31,32
 562 156 562 156 566 123 c 1,33,34
 400 101 400 101 194 0 c 1,0,-1
538 367 m 1,35,36
 600 348 600 348 670 348 c 0,37,38
 840 348 840 348 932 475 c 0,39,40
 992 559 992 559 992 674 c 0,41,42
 992 800 992 800 903 892 c 0,43,44
 799 1000 799 1000 590 1000 c 0,45,46
 555 1000 555 1000 521 997 c 1,47,48
 516 888 516 888 516 778 c 0,49,50
 516 599 516 599 538 367 c 1,35,36
EndSplineSet
Validated: 1
EndChar

StartChar: germandbls
Encoding: 223 223 192
Width: 1237
VWidth: 0
Flags: W
HStem: 0 164<582.848 757.125> 1489 20G<641.5 803.5>
VStem: 160 256<130.259 930.824> 839 239<952.684 1142.14> 878 279<284.694 565.447>
LayerCount: 2
Fore
SplineSet
120 -1 m 1,0,1
 110 5 l 1,2,3
 160 289 160 289 160 541 c 0,4,5
 160 755 160 755 110 956 c 1,6,7
 251 1161 251 1161 384 1285 c 0,8,9
 558 1446 558 1446 725 1509 c 1,10,-1
 735 1509 l 1,11,12
 872 1456 872 1456 956 1374 c 0,13,14
 1078 1256 1078 1256 1078 1106 c 128,-1,15
 1078 956 1078 956 930 840 c 1,16,17
 984 810 984 810 1030 767 c 0,18,19
 1157 648 1157 648 1157 481 c 0,20,21
 1157 312 1157 312 1051 193 c 0,22,23
 879 0 879 0 532 0 c 1,24,-1
 526 10 l 1,25,26
 578 95 578 95 599 164 c 1,27,28
 736 171 736 171 809 250 c 0,29,30
 878 326 878 326 878 426 c 0,31,32
 878 637 878 637 574 708 c 1,33,-1
 574 718 l 1,34,35
 704 775 704 775 777 851 c 0,36,37
 839 914 839 914 839 1016 c 0,38,39
 839 1133 839 1133 733 1190 c 0,40,41
 643 1238 643 1238 475 1238 c 1,42,43
 468 1205 468 1205 444 1051 c 0,44,45
 416 872 416 872 416 685 c 0,46,47
 416 386 416 386 462 122 c 1,48,49
 319 100 319 100 120 -1 c 1,0,1
EndSplineSet
Validated: 1
EndChar

StartChar: uni1E02
Encoding: 7682 7682 193
Width: 1385
VWidth: 0
Flags: W
HStem: 0 164<550.693 891.85> 1182 328<363.511 779.525>
VStem: 234 286<193.851 881.177> 468 378<1670.2 1905.8> 869 260<930.5 1208.5> 1019 286<304.536 580.177>
LayerCount: 2
Fore
SplineSet
652 1996 m 1,0,-1
 662 1996 l 1,1,2
 730 1973 730 1973 788 1920 c 128,-1,3
 846 1867 846 1867 846 1788 c 128,-1,4
 846 1709 846 1709 788 1656 c 128,-1,5
 730 1603 730 1603 662 1580 c 1,6,-1
 652 1580 l 1,7,8
 568 1611 568 1611 522 1655 c 0,9,10
 468 1707 468 1707 468 1788 c 128,-1,11
 468 1869 468 1869 522 1921 c 0,12,13
 568 1965 568 1965 652 1996 c 1,0,-1
198 0 m 1,14,-1
 188 6 l 1,15,16
 234 231 234 231 234 474 c 0,17,18
 234 701 234 701 188 887 c 1,19,20
 354 909 354 909 560 1010 c 1,21,-1
 570 1004 l 1,22,23
 520 788 520 788 520 528 c 0,24,25
 520 344 520 344 550 189 c 1,26,27
 638 164 638 164 727 164 c 0,28,29
 874 164 874 164 959 268 c 0,30,31
 1019 341 1019 341 1019 443 c 0,32,33
 1019 550 1019 550 942 617 c 0,34,35
 881 670 881 670 773 670 c 0,36,37
 718 670 718 670 669 662 c 1,38,-1
 663 670 l 1,39,40
 757 730 757 730 814 812 c 0,41,42
 869 891 869 891 869 970 c 0,43,44
 869 1071 869 1071 797 1126 c 0,45,46
 725 1182 725 1182 590 1182 c 0,47,48
 347 1182 347 1182 86 976 c 1,49,-1
 80 985 l 1,50,51
 167 1228 167 1228 177 1402 c 1,52,53
 395 1510 395 1510 613 1510 c 0,54,55
 864 1510 864 1510 1000 1394 c 0,56,57
 1129 1283 1129 1283 1129 1134 c 0,58,59
 1129 1031 1129 1031 1061 946 c 0,60,61
 1048 930 1048 930 1031 914 c 1,62,63
 1096 889 1096 889 1154 843 c 0,64,65
 1305 726 1305 726 1305 516 c 0,66,67
 1305 298 1305 298 1148 154 c 0,68,69
 980 0 980 0 726 0 c 16,70,71
 645 0 645 0 535 19 c 0,72,73
 442 35 442 35 397 35 c 0,74,75
 300 35 300 35 198 0 c 1,14,-1
EndSplineSet
Validated: 1
EndChar

StartChar: uni1E03
Encoding: 7683 7683 194
Width: 1196
Flags: W
HStem: 0 21G<545 754.5> 1110 20G<567.5 728> 1490 20G<342.5 452>
VStem: 87 378<1213.67 1393.73 1670.2 1905.8> 136 266<500.534 856.158> 935 201<360.368 586.514>
LayerCount: 2
Fore
SplineSet
271 1996 m 1,0,-1
 281 1996 l 1,1,2
 349 1973 349 1973 407 1920 c 128,-1,3
 465 1867 465 1867 465 1788 c 128,-1,4
 465 1709 465 1709 407 1656 c 128,-1,5
 349 1603 349 1603 281 1580 c 1,6,-1
 271 1580 l 1,7,8
 187 1611 187 1611 141 1655 c 0,9,10
 87 1707 87 1707 87 1788 c 128,-1,11
 87 1869 87 1869 141 1921 c 0,12,13
 187 1965 187 1965 271 1996 c 1,0,-1
641 0 m 1,14,-1
 631 0 l 1,15,16
 459 46 459 46 319 169 c 0,17,18
 136 329 136 329 136 649 c 0,19,20
 136 1017 136 1017 90 1387 c 1,21,22
 243 1409 243 1409 442 1510 c 1,23,-1
 452 1504 l 1,24,25
 420 1266 420 1266 408 1025 c 1,26,27
 504 1088 504 1088 631 1130 c 1,28,-1
 641 1130 l 1,29,30
 815 1082 815 1082 953 961 c 0,31,32
 1136 801 1136 801 1136 565 c 0,33,34
 1136 373 1136 373 1001 222 c 0,35,36
 868 75 868 75 641 0 c 1,14,-1
403 858 m 1,37,38
 402 809 402 809 402 760 c 0,39,40
 402 464 402 464 553 363 c 0,41,42
 691 271 691 271 911 271 c 1,43,44
 935 339 935 339 935 399 c 0,45,46
 935 624 935 624 719 767 c 0,47,48
 595 850 595 850 403 858 c 1,37,38
EndSplineSet
Validated: 1
EndChar

StartChar: uni1E0A
Encoding: 7690 7690 195
Width: 1459
VWidth: 0
Flags: W
HStem: 0 164<550.654 860.364> 1182 328<343.876 818.217>
VStem: 234 286<193.851 881.177> 511 378<1670.2 1905.8> 1065 314<471.938 919.658>
LayerCount: 2
Fore
SplineSet
695 1996 m 1,0,-1
 705 1996 l 1,1,2
 773 1973 773 1973 831 1920 c 128,-1,3
 889 1867 889 1867 889 1788 c 128,-1,4
 889 1709 889 1709 831 1656 c 128,-1,5
 773 1603 773 1603 705 1580 c 1,6,-1
 695 1580 l 1,7,8
 611 1611 611 1611 565 1655 c 0,9,10
 511 1707 511 1707 511 1788 c 128,-1,11
 511 1869 511 1869 565 1921 c 0,12,13
 611 1965 611 1965 695 1996 c 1,0,-1
198 0 m 1,14,-1
 188 6 l 1,15,16
 234 231 234 231 234 474 c 0,17,18
 234 701 234 701 188 887 c 1,19,20
 354 909 354 909 560 1010 c 1,21,-1
 570 1004 l 1,22,23
 520 788 520 788 520 528 c 0,24,25
 520 344 520 344 550 189 c 1,26,27
 638 164 638 164 708 164 c 0,28,29
 892 164 892 164 993 358 c 0,30,31
 1065 497 1065 497 1065 687 c 0,32,33
 1065 894 1065 894 954 1034 c 0,34,35
 836 1182 836 1182 590 1182 c 0,36,37
 309 1182 309 1182 86 976 c 1,38,-1
 80 985 l 1,39,40
 167 1228 167 1228 177 1402 c 1,41,42
 395 1510 395 1510 613 1510 c 0,43,44
 941 1510 941 1510 1152 1319 c 0,45,46
 1379 1113 1379 1113 1379 764 c 0,47,48
 1379 483 1379 483 1243 286 c 0,49,50
 1047 0 1047 0 707 0 c 0,51,52
 645 0 645 0 535 19 c 0,53,54
 442 35 442 35 397 35 c 0,55,56
 300 35 300 35 198 0 c 1,14,-1
EndSplineSet
Validated: 1
EndChar

StartChar: uni1E0B
Encoding: 7691 7691 196
Width: 1193
Flags: W
HStem: 0 21G<469 616 741 845> 1110 20G<438.5 628.5> 1490 20G<986 1083>
VStem: 60 201<543.486 770.932> 712 378<1670.2 1905.8> 788 245<274.985 637.328 938 1356.21>
LayerCount: 2
Fore
SplineSet
896 1996 m 1,0,-1
 906 1996 l 1,1,2
 974 1973 974 1973 1032 1920 c 128,-1,3
 1090 1867 1090 1867 1090 1788 c 128,-1,4
 1090 1709 1090 1709 1032 1656 c 128,-1,5
 974 1603 974 1603 906 1580 c 1,6,-1
 896 1580 l 1,7,8
 812 1611 812 1611 766 1655 c 0,9,10
 712 1707 712 1707 712 1788 c 128,-1,11
 712 1869 712 1869 766 1921 c 0,12,13
 812 1965 812 1965 896 1996 c 1,0,-1
565 0 m 1,14,-1
 555 0 l 1,15,16
 383 46 383 46 243 169 c 0,17,18
 60 329 60 329 60 565 c 0,19,20
 60 754 60 754 194 906 c 0,21,22
 322 1052 322 1052 555 1130 c 1,23,-1
 565 1130 l 1,24,25
 692 1076 692 1076 781 938 c 1,26,27
 770 1173 770 1173 741 1387 c 1,28,29
 899 1421 899 1421 1073 1510 c 1,30,-1
 1083 1504 l 1,31,32
 1034 1140 1034 1140 1033 778 c 0,33,34
 1033 509 1033 509 1083 123 c 1,35,36
 939 95 939 95 751 0 c 1,37,-1
 741 6 l 1,38,39
 745 44 745 44 749 82 c 1,40,41
 667 34 667 34 565 0 c 1,14,-1
788 411 m 0,42,43
 788 618 788 618 673 742 c 0,44,45
 555 870 555 870 285 870 c 1,46,47
 261 802 261 802 261 731 c 0,48,49
 261 506 261 506 477 363 c 0,50,51
 614 272 614 272 777 272 c 1,52,53
 788 344 788 344 788 411 c 0,42,43
EndSplineSet
Validated: 1
EndChar

StartChar: uni1E1E
Encoding: 7710 7710 197
Width: 1096
Flags: W
HStem: 0 21G<140 253> 644 144<475 720.75> 1162 273<726.342 968.723> 1490 20G<409 576.5 1002.5 1086>
VStem: 412 378<1670.2 1905.8>
LayerCount: 2
Fore
SplineSet
596 1996 m 1,0,-1
 606 1996 l 1,1,2
 674 1973 674 1973 732 1920 c 128,-1,3
 790 1867 790 1867 790 1788 c 128,-1,4
 790 1709 790 1709 732 1656 c 128,-1,5
 674 1603 674 1603 606 1580 c 1,6,-1
 596 1580 l 1,7,8
 512 1611 512 1611 466 1655 c 0,9,10
 412 1707 412 1707 412 1788 c 128,-1,11
 412 1869 412 1869 466 1921 c 0,12,13
 512 1965 512 1965 596 1996 c 1,0,-1
150 0 m 1,14,-1
 140 6 l 1,15,16
 186 409 186 409 186 724 c 0,17,18
 186 1017 186 1017 140 1387 c 1,19,20
 306 1409 306 1409 512 1510 c 1,21,22
 641 1435 641 1435 771 1435 c 0,23,24
 925 1435 925 1435 1080 1510 c 1,25,-1
 1086 1500 l 1,26,27
 982 1292 982 1292 963 1162 c 1,28,29
 795 1162 795 1162 681 1230 c 128,-1,30
 567 1298 567 1298 515 1450 c 1,31,32
 474 1118 474 1118 472 788 c 1,33,34
 720 788 720 788 971 966 c 1,35,-1
 977 956 l 1,36,37
 876 749 876 749 854 584 c 1,38,39
 660 644 660 644 475 644 c 1,40,41
 484 414 484 414 522 123 c 1,42,43
 356 101 356 101 150 0 c 1,14,-1
EndSplineSet
Validated: 1
EndChar

StartChar: uni1E1F
Encoding: 7711 7711 198
Width: 1092
Flags: W
HStem: 0 21G<130 239.5> 590 196<99 163.846 445.436 781.75> 631 118<439 760.998> 1490 20G<664.5 862>
VStem: 180 256<130.691 613> 439 378<1670.2 1905.8>
LayerCount: 2
Fore
SplineSet
623 1996 m 1,0,-1
 633 1996 l 1,1,2
 701 1973 701 1973 759 1920 c 128,-1,3
 817 1867 817 1867 817 1788 c 128,-1,4
 817 1709 817 1709 759 1656 c 128,-1,5
 701 1603 701 1603 633 1580 c 1,6,-1
 623 1580 l 1,7,8
 539 1611 539 1611 493 1655 c 0,9,10
 439 1707 439 1707 439 1788 c 128,-1,11
 439 1869 439 1869 493 1921 c 0,12,13
 539 1965 539 1965 623 1996 c 1,0,-1
140 0 m 1,14,-1
 130 6 l 1,15,16
 180 290 180 290 180 542 c 0,17,18
 180 578 180 578 179 613 c 1,19,20
 110 604 110 604 36 590 c 1,21,-1
 30 600 l 1,22,23
 88 703 88 703 114 786 c 1,24,25
 140 781 140 781 165 777 c 1,26,27
 153 871 153 871 130 957 c 1,28,29
 271 1162 271 1162 404 1286 c 0,30,31
 564 1434 564 1434 765 1510 c 1,32,-1
 775 1510 l 1,33,34
 949 1462 949 1462 1087 1341 c 1,35,-1
 1084 1330 l 1,36,37
 936 1303 936 1303 748 1199 c 1,38,39
 636 1239 636 1239 495 1239 c 1,40,41
 476 1150 476 1150 464 1052 c 0,42,43
 446 900 446 900 439 749 c 1,44,45
 645 749 645 749 844 786 c 1,46,-1
 850 776 l 1,47,48
 794 672 794 672 766 590 c 1,49,50
 606 630 606 630 436 631 c 1,51,52
 436 369 436 369 482 123 c 1,53,54
 339 101 339 101 140 0 c 1,14,-1
EndSplineSet
Validated: 1
EndChar

StartChar: uni1E40
Encoding: 7744 7744 199
Width: 1745
Flags: W
HStem: 0 21G<10 78 611 723.5 1353 1466> 1490 20G<387 500 1403 1516>
VStem: 678 378<1670.2 1905.8>
LayerCount: 2
Fore
SplineSet
862 1996 m 1,0,-1
 872 1996 l 1,1,2
 940 1973 940 1973 998 1920 c 128,-1,3
 1056 1867 1056 1867 1056 1788 c 128,-1,4
 1056 1709 1056 1709 998 1656 c 128,-1,5
 940 1603 940 1603 872 1580 c 1,6,-1
 862 1580 l 1,7,8
 778 1611 778 1611 732 1655 c 0,9,10
 678 1707 678 1707 678 1788 c 128,-1,11
 678 1869 678 1869 732 1921 c 0,12,13
 778 1965 778 1965 862 1996 c 1,0,-1
20 0 m 1,14,-1
 10 6 l 1,15,16
 168 673 168 673 211 1237 c 1,17,18
 173 1317 173 1317 118 1387 c 1,19,20
 284 1409 284 1409 490 1510 c 1,21,-1
 500 1504 l 1,22,23
 658 815 658 815 875 339 c 1,24,25
 1062 781 1062 781 1186 1292 c 1,26,27
 1168 1350 1168 1350 1134 1387 c 1,28,29
 1300 1409 1300 1409 1506 1510 c 1,30,-1
 1516 1504 l 1,31,32
 1551 768 1551 768 1735 123 c 1,33,34
 1569 101 1569 101 1363 0 c 1,35,-1
 1353 6 l 1,36,37
 1336 560 1336 560 1271 944 c 1,38,39
 1112 568 1112 568 993 123 c 1,40,41
 826 101 826 101 621 0 c 1,42,-1
 611 6 l 1,43,44
 496 530 496 530 344 918 c 1,45,46
 259 533 259 533 243 90 c 1,47,48
 136 57 136 57 20 0 c 1,14,-1
EndSplineSet
Validated: 1
EndChar

StartChar: uni1E41
Encoding: 7745 7745 200
Width: 1888
Flags: W
HStem: 0 21G<110 221.5 773 882.5 1436 1545.5> 915 215<519.667 644.311 1146.64 1313.52>
VStem: 110 352<114.724 430.792> 156 256<150.832 909.691> 761 378<116.266 261.555 1290.2 1525.8> 819 266<150.742 745.516> 1482 266<150.742 748.555>
LayerCount: 2
Fore
SplineSet
945 1616 m 1,0,-1
 955 1616 l 1,1,2
 1023 1593 1023 1593 1081 1540 c 128,-1,3
 1139 1487 1139 1487 1139 1408 c 128,-1,4
 1139 1329 1139 1329 1081 1276 c 128,-1,5
 1023 1223 1023 1223 955 1200 c 1,6,-1
 945 1200 l 1,7,8
 861 1231 861 1231 815 1275 c 0,9,10
 761 1327 761 1327 761 1408 c 128,-1,11
 761 1489 761 1489 815 1541 c 0,12,13
 861 1585 861 1585 945 1616 c 1,0,-1
120 0 m 1,14,-1
 110 6 l 1,15,16
 156 295 156 295 156 534 c 0,17,18
 156 774 156 774 110 1007 c 1,19,20
 249 1027 249 1027 452 1130 c 1,21,-1
 462 1124 l 1,22,23
 455 1083 455 1083 448 1042 c 1,24,25
 537 1104 537 1104 640 1130 c 1,26,-1
 650 1130 l 1,27,28
 836 1095 836 1095 949 963 c 1,29,30
 1100 1097 1100 1097 1303 1130 c 1,31,-1
 1313 1130 l 1,32,33
 1505 1094 1505 1094 1619 955 c 0,34,35
 1748 799 1748 799 1748 565 c 0,36,37
 1748 345 1748 345 1798 123 c 1,38,39
 1645 101 1645 101 1446 0 c 1,40,-1
 1436 6 l 1,41,42
 1482 295 1482 295 1482 534 c 0,43,44
 1482 734 1482 734 1378 824.5 c 128,-1,45
 1274 915 1274 915 1139 915 c 0,46,47
 1068 915 1068 915 1006 883 c 1,48,49
 1085 748 1085 748 1085 565 c 0,50,51
 1085 345 1085 345 1135 123 c 1,52,53
 982 101 982 101 783 0 c 1,54,-1
 773 6 l 1,55,56
 819 295 819 295 819 534 c 0,57,58
 819 734 819 734 713 825 c 0,59,60
 608 915 608 915 431 915 c 1,61,62
 412 745 412 745 412 588 c 0,63,64
 412 345 412 345 462 123 c 1,65,66
 323 103 323 103 120 0 c 1,14,-1
EndSplineSet
Validated: 1
EndChar

StartChar: uni1E56
Encoding: 7766 7766 201
Width: 1371
VWidth: 0
Flags: W
HStem: 0 21G<188 301> 360 170<529.019 843.309> 1182 328<343.876 812.139>
VStem: 234 293<126.969 376 540.26 881.177> 490 378<1670.2 1905.8> 992 299<708.679 1014.78>
LayerCount: 2
Fore
SplineSet
674 1996 m 1,0,-1
 684 1996 l 1,1,2
 752 1973 752 1973 810 1920 c 128,-1,3
 868 1867 868 1867 868 1788 c 128,-1,4
 868 1709 868 1709 810 1656 c 128,-1,5
 752 1603 752 1603 684 1580 c 1,6,-1
 674 1580 l 1,7,8
 590 1611 590 1611 544 1655 c 0,9,10
 490 1707 490 1707 490 1788 c 128,-1,11
 490 1869 490 1869 544 1921 c 0,12,13
 590 1965 590 1965 674 1996 c 1,0,-1
198 0 m 1,14,-1
 188 6 l 1,15,16
 234 231 234 231 234 474 c 0,17,18
 234 701 234 701 188 887 c 1,19,20
 354 909 354 909 560 1010 c 1,21,-1
 570 1004 l 1,22,23
 523 799 523 799 520 555 c 1,24,25
 590 530 590 530 670 530 c 0,26,27
 840 530 840 530 932 657 c 0,28,29
 992 741 992 741 992 856 c 0,30,31
 992 982 992 982 903 1074 c 0,32,33
 799 1182 799 1182 590 1182 c 0,34,35
 309 1182 309 1182 86 976 c 1,36,-1
 80 985 l 1,37,38
 167 1228 167 1228 177 1402 c 1,39,40
 395 1510 395 1510 613 1510 c 0,41,42
 907 1510 907 1510 1087 1358 c 0,43,44
 1291 1185 1291 1185 1291 927 c 0,45,46
 1291 690 1291 690 1112 524 c 0,47,48
 936 361 936 361 670 360 c 0,49,50
 599 360 599 360 527 376 c 1,51,52
 539 250 539 250 570 123 c 1,53,54
 404 101 404 101 198 0 c 1,14,-1
EndSplineSet
Validated: 1
EndChar

StartChar: uni1E57
Encoding: 7767 7767 202
Width: 1193
Flags: W
HStem: -380 21G<110 210> 0 21G<564.5 754.5> 1110 20G<350 452 577 724>
VStem: 160 252<-237.57 192 478.311 855.015> 444 378<1290.2 1525.8> 932 201<359.068 586.514>
LayerCount: 2
Fore
SplineSet
628 1616 m 1,0,-1
 638 1616 l 1,1,2
 706 1593 706 1593 764 1540 c 128,-1,3
 822 1487 822 1487 822 1408 c 128,-1,4
 822 1329 822 1329 764 1276 c 128,-1,5
 706 1223 706 1223 638 1200 c 1,6,-1
 628 1200 l 1,7,8
 544 1231 544 1231 498 1275 c 0,9,10
 444 1327 444 1327 444 1408 c 128,-1,11
 444 1489 444 1489 498 1541 c 0,12,13
 544 1585 544 1585 628 1616 c 1,0,-1
638 0 m 1,14,-1
 628 0 l 1,15,16
 501 54 501 54 412 192 c 1,17,18
 423 -43 423 -43 452 -257 c 1,19,20
 300 -288 300 -288 120 -380 c 1,21,-1
 110 -374 l 1,22,23
 159 -10 159 -10 160 352 c 0,24,25
 160 621 160 621 110 1007 c 1,26,27
 258 1036 258 1036 442 1130 c 1,28,-1
 452 1124 l 1,29,30
 448 1086 448 1086 444 1048 c 1,31,32
 526 1096 526 1096 628 1130 c 1,33,-1
 638 1130 l 1,34,35
 810 1084 810 1084 950 961 c 0,36,37
 1133 801 1133 801 1133 565 c 0,38,39
 1133 376 1133 376 999 224 c 0,40,41
 871 78 871 78 638 0 c 1,14,-1
405 719 m 0,42,43
 405 512 405 512 520 388 c 0,44,45
 638 260 638 260 908 260 c 1,46,47
 932 328 932 328 932 399 c 0,48,49
 932 624 932 624 716 767 c 0,50,51
 579 858 579 858 416 858 c 1,52,53
 405 786 405 786 405 719 c 0,42,43
EndSplineSet
Validated: 1
EndChar

StartChar: uni1E60
Encoding: 7776 7776 203
Width: 1200
VWidth: 0
Flags: W
HStem: 0 21G<439 709.5> 1276 234<493.763 590.27>
VStem: 173 189<950.5 1236.68> 424 378<1670.2 1905.8> 901 239<357.025 649.5>
DStem2: 551 1040 419 729 0.907172 -0.420761<-203.495 510.394>
LayerCount: 2
Fore
SplineSet
613 0 m 1,0,-1
 603 0 l 1,1,2
 275 102 275 102 60 419 c 1,3,-1
 64 429 l 1,4,5
 205 448 205 448 363 518 c 1,6,7
 555 294 555 294 879 252 c 1,8,9
 901 301 901 301 901 363 c 0,10,11
 901 503 901 503 647 622 c 2,12,-1
 419 729 l 2,13,14
 173 844 173 844 173 1057 c 0,15,16
 173 1236 173 1236 320 1359 c 0,17,18
 435 1454 435 1454 603 1510 c 1,19,-1
 613 1510 l 1,20,21
 783 1450 783 1450 876 1378 c 0,22,23
 964 1310 964 1310 1003 1214 c 1,24,-1
 1000 1204 l 1,25,26
 862 1186 862 1186 712 1119 c 1,27,28
 672 1189 672 1189 603 1225 c 0,29,30
 502 1276 502 1276 374 1276 c 1,31,32
 362 1246 362 1246 362 1213 c 0,33,34
 362 1128 362 1128 551 1040 c 2,35,-1
 855 899 l 2,36,37
 1140 767 1140 767 1140 532 c 0,38,39
 1140 340 1140 340 938 170 c 0,40,41
 806 59 806 59 613 0 c 1,0,-1
608 1996 m 1,42,-1
 618 1996 l 1,43,44
 686 1973 686 1973 744 1920 c 128,-1,45
 802 1867 802 1867 802 1788 c 128,-1,46
 802 1709 802 1709 744 1656 c 128,-1,47
 686 1603 686 1603 618 1580 c 1,48,-1
 608 1580 l 1,49,50
 524 1611 524 1611 478 1655 c 0,51,52
 424 1707 424 1707 424 1788 c 128,-1,53
 424 1869 424 1869 478 1921 c 0,54,55
 524 1965 524 1965 608 1996 c 1,42,-1
EndSplineSet
Validated: 1
EndChar

StartChar: uni1E61
Encoding: 7777 7777 204
Width: 928
VWidth: 0
Flags: W
HStem: 0 21G<376.5 562.5> 939 191<339.25 428.123>
VStem: 96 162<699 935.047> 277 378<1290.2 1525.8> 696 192<245.18 495.5>
DStem2: 634 697 313 511 0.925471 -0.37882<-416.398 189.898>
LayerCount: 2
Fore
SplineSet
470 0 m 1,0,-1
 459 0 l 1,1,2
 294 44 294 44 148 169 c 0,3,4
 82 225 82 225 40 294 c 1,5,-1
 43 305 l 1,6,7
 165 339 165 339 300 408 c 1,8,9
 444 257 444 257 687 222 c 1,10,11
 696 247 696 247 696 273 c 0,12,13
 696 354 696 354 506 432 c 2,14,-1
 313 511 l 2,15,16
 96 600 96 600 96 798 c 0,17,18
 96 929 96 929 238 1028 c 0,19,20
 330 1093 330 1093 459 1130 c 1,21,-1
 469 1130 l 1,22,23
 668 1085 668 1085 814 917 c 1,24,-1
 811 907 l 1,25,26
 691 875 691 875 546 802 c 1,27,28
 442 925 442 925 265 939 c 1,29,30
 258 920 258 920 258 901 c 0,31,32
 258 851 258 851 458 769 c 2,33,-1
 634 697 l 2,34,35
 888 593 888 593 888 398 c 0,36,37
 888 250 888 250 742 136 c 0,38,39
 655 68 655 68 470 0 c 1,0,-1
461 1616 m 1,40,-1
 471 1616 l 1,41,42
 539 1593 539 1593 597 1540 c 128,-1,43
 655 1487 655 1487 655 1408 c 128,-1,44
 655 1329 655 1329 597 1276 c 128,-1,45
 539 1223 539 1223 471 1200 c 1,46,-1
 461 1200 l 1,47,48
 377 1231 377 1231 331 1275 c 0,49,50
 277 1327 277 1327 277 1408 c 128,-1,51
 277 1489 277 1489 331 1541 c 0,52,53
 377 1585 377 1585 461 1616 c 1,40,-1
EndSplineSet
Validated: 1
EndChar

StartChar: uni1E6A
Encoding: 7786 7786 205
Width: 1253
Flags: W
HStem: 0 21G<434 547> 1490 20G<117.5 245.5 1092.5 1248>
VStem: 439 378<116.266 569.546 1670.2 1905.8> 480 286<170.793 1289.11>
LayerCount: 2
Fore
SplineSet
623 1996 m 1,0,-1
 633 1996 l 1,1,2
 701 1973 701 1973 759 1920 c 128,-1,3
 817 1867 817 1867 817 1788 c 128,-1,4
 817 1709 817 1709 759 1656 c 128,-1,5
 701 1603 701 1603 633 1580 c 1,6,-1
 623 1580 l 1,7,8
 539 1611 539 1611 493 1655 c 0,9,10
 439 1707 439 1707 439 1788 c 128,-1,11
 439 1869 439 1869 493 1921 c 0,12,13
 539 1965 539 1965 623 1996 c 1,0,-1
444 0 m 1,14,-1
 434 6 l 1,15,16
 480 409 480 409 480 724 c 0,17,18
 480 982 480 982 444 1299 c 1,19,20
 229 1263 229 1263 11 1128 c 1,21,-1
 5 1138 l 1,22,23
 107 1346 107 1346 128 1510 c 1,24,25
 363 1457 363 1457 632 1457 c 0,26,27
 943 1457 943 1457 1242 1510 c 1,28,-1
 1248 1500 l 1,29,30
 1146 1292 1146 1292 1125 1128 c 1,31,32
 980 1259 980 1259 790 1297 c 1,33,34
 766 1057 766 1057 766 778 c 0,35,36
 766 509 766 509 816 123 c 1,37,38
 650 101 650 101 444 0 c 1,14,-1
EndSplineSet
Validated: 1
EndChar

StartChar: uni1E6B
Encoding: 7787 7787 206
Width: 810
Flags: W
HStem: 0 21G<234 332.5> 934 196<74 260.343 540.032 736.75> 1490 20G<472.5 576>
VStem: 216 378<1670.2 1905.8> 234 342<112.592 588.872 1108.75 1396.2> 280 246<194.347 967>
LayerCount: 2
Fore
SplineSet
244 0 m 1,0,-1
 234 6 l 1,1,2
 280 409 280 409 280 724 c 0,3,4
 280 841 280 841 273 970 c 1,5,6
 150 961 150 961 11 934 c 1,7,-1
 5 944 l 1,8,9
 63 1047 63 1047 89 1130 c 1,10,11
 178 1113 178 1113 263 1104 c 1,12,13
 252 1240 252 1240 234 1387 c 1,14,15
 379 1415 379 1415 566 1510 c 1,16,-1
 576 1504 l 1,17,18
 548 1300 548 1300 536 1096 c 1,19,20
 665 1103 665 1103 799 1130 c 1,21,-1
 805 1120 l 1,22,23
 749 1016 749 1016 721 934 c 1,24,25
 627 957 627 957 530 967 c 1,26,27
 526 872 526 872 526 778 c 0,28,29
 526 509 526 509 576 123 c 1,30,31
 421 90 421 90 244 0 c 1,0,-1
400 1996 m 1,32,-1
 410 1996 l 1,33,34
 478 1973 478 1973 536 1920 c 128,-1,35
 594 1867 594 1867 594 1788 c 128,-1,36
 594 1709 594 1709 536 1656 c 128,-1,37
 478 1603 478 1603 410 1580 c 1,38,-1
 400 1580 l 1,39,40
 316 1611 316 1611 270 1655 c 0,41,42
 216 1707 216 1707 216 1788 c 128,-1,43
 216 1869 216 1869 270 1921 c 0,44,45
 316 1965 316 1965 400 1996 c 1,32,-1
EndSplineSet
Validated: 1
EndChar

StartChar: Wgrave
Encoding: 7808 7808 207
Width: 1974
Flags: W
HStem: 0 21G<519 632 1097 1210> 1490 20G<274 387 831 935 1314.5 1391 1885 1969>
LayerCount: 2
Fore
SplineSet
959 1990 m 1,0,1
 1124 1823 1124 1823 1142 1618 c 1,2,3
 1075 1597 1075 1597 1018 1560 c 1,4,-1
 1008 1560 l 1,5,6
 919 1766 919 1766 688 1856 c 1,7,-1
 693 1866 l 1,8,9
 859 1908 859 1908 959 1990 c 1,0,1
529 0 m 1,10,-1
 519 6 l 1,11,12
 339 710 339 710 5 1387 c 1,13,14
 171 1408 171 1408 377 1510 c 1,15,-1
 387 1504 l 1,16,17
 528 844 528 844 791 338 c 1,18,19
 848 490 848 490 900 644 c 1,20,21
 763 1023 763 1023 583 1391 c 1,22,23
 737 1418 737 1418 925 1510 c 1,24,-1
 935 1504 l 1,25,26
 978 1293 978 1293 1039 1088 c 1,27,28
 1085 1248 1085 1248 1125 1410 c 1,29,30
 1248 1445 1248 1445 1381 1510 c 1,31,-1
 1391 1504 l 1,32,33
 1237 1189 1237 1189 1116 850 c 1,34,35
 1209 586 1209 586 1332 334 c 1,36,37
 1552 897 1552 897 1671 1402 c 1,38,39
 1811 1437 1811 1437 1959 1510 c 1,40,-1
 1969 1504 l 1,41,42
 1656 864 1656 864 1479 123 c 1,43,44
 1313 101 1313 101 1107 0 c 1,45,-1
 1097 6 l 1,46,47
 1043 213 1043 213 978 417 c 1,48,49
 937 272 937 272 901 123 c 1,50,51
 735 101 735 101 529 0 c 1,10,-1
EndSplineSet
Validated: 1
EndChar

StartChar: wgrave
Encoding: 7809 7809 208
Width: 1888
Flags: W
HStem: 0 215<574.482 741.355 1243.69 1368.33> 1110 20G<342.5 452 1005.5 1115 1666.5 1778>
VStem: 140 266<381.445 979.258> 803 266<384.484 979.258> 1426 352<699.208 1015.28> 1476 256<220.309 979.168>
LayerCount: 2
Fore
SplineSet
857 1610 m 1,0,1
 1022 1443 1022 1443 1040 1238 c 1,2,3
 973 1217 973 1217 916 1180 c 1,4,-1
 906 1180 l 1,5,6
 817 1386 817 1386 586 1476 c 1,7,-1
 591 1486 l 1,8,9
 757 1528 757 1528 857 1610 c 1,0,1
585 0 m 1,10,-1
 575 0 l 1,11,12
 383 36 383 36 269 175 c 0,13,14
 140 331 140 331 140 565 c 0,15,16
 140 785 140 785 90 1007 c 1,17,18
 243 1029 243 1029 442 1130 c 1,19,-1
 452 1124 l 1,20,21
 406 835 406 835 406 596 c 0,22,23
 406 396 406 396 510 305.5 c 128,-1,24
 614 215 614 215 749 215 c 0,25,26
 820 215 820 215 882 247 c 1,27,28
 803 382 803 382 803 565 c 0,29,30
 803 785 803 785 753 1007 c 1,31,32
 906 1029 906 1029 1105 1130 c 1,33,-1
 1115 1124 l 1,34,35
 1069 835 1069 835 1069 596 c 0,36,37
 1069 396 1069 396 1175 305 c 0,38,39
 1280 215 1280 215 1457 215 c 1,40,41
 1476 385 1476 385 1476 542 c 0,42,43
 1476 785 1476 785 1426 1007 c 1,44,45
 1565 1027 1565 1027 1768 1130 c 1,46,-1
 1778 1124 l 1,47,48
 1732 835 1732 835 1732 596 c 0,49,50
 1732 356 1732 356 1778 123 c 1,51,52
 1639 103 1639 103 1436 0 c 1,53,-1
 1426 6 l 1,54,55
 1433 47 1433 47 1440 88 c 1,56,57
 1351 26 1351 26 1248 0 c 1,58,-1
 1238 0 l 1,59,60
 1052 35 1052 35 939 167 c 1,61,62
 788 33 788 33 585 0 c 1,10,-1
EndSplineSet
Validated: 1
EndChar

StartChar: Wacute
Encoding: 7810 7810 209
Width: 1974
Flags: W
HStem: 0 21G<519 632 1097 1210> 1490 20G<274 387 831 935 1314.5 1391 1885 1969>
LayerCount: 2
Fore
SplineSet
1080 1990 m 1,0,1
 1180 1908 1180 1908 1346 1866 c 1,2,-1
 1351 1856 l 1,3,4
 1120 1766 1120 1766 1031 1560 c 1,5,6
 1021 1560 l 1,7,8
 964 1597 964 1597 897 1618 c 1,9,10
 915 1823 915 1823 1080 1990 c 1,0,1
529 0 m 1,11,-1
 519 6 l 1,12,13
 339 710 339 710 5 1387 c 1,14,15
 171 1408 171 1408 377 1510 c 1,16,-1
 387 1504 l 1,17,18
 528 844 528 844 791 338 c 1,19,20
 848 490 848 490 900 644 c 1,21,22
 763 1023 763 1023 583 1391 c 1,23,24
 737 1418 737 1418 925 1510 c 1,25,-1
 935 1504 l 1,26,27
 978 1293 978 1293 1039 1088 c 1,28,29
 1085 1248 1085 1248 1125 1410 c 1,30,31
 1248 1445 1248 1445 1381 1510 c 1,32,-1
 1391 1504 l 1,33,34
 1237 1189 1237 1189 1116 850 c 1,35,36
 1209 586 1209 586 1332 334 c 1,37,38
 1552 897 1552 897 1671 1402 c 1,39,40
 1811 1437 1811 1437 1959 1510 c 1,41,-1
 1969 1504 l 1,42,43
 1656 864 1656 864 1479 123 c 1,44,45
 1313 101 1313 101 1107 0 c 1,46,-1
 1097 6 l 1,47,48
 1043 213 1043 213 978 417 c 1,49,50
 937 272 937 272 901 123 c 1,51,52
 735 101 735 101 529 0 c 1,11,-1
EndSplineSet
Validated: 1
EndChar

